<?xml version="1.0" standalone="no"?>
<!DOCTYPE svg PUBLIC "-//W3C//DTD SVG 1.1//EN" "http://www.w3.org/Graphics/SVG/1.1/DTD/svg11.dtd" >
<svg>
<metadata>
Created by FontForge 20090914 at Tue Apr 18 13:53:51 2017
 By www-data
Copyright 2016 The Muli Project Authors (contact@sansoxygen.com)
</metadata>
<defs>
<font id="Muli-Black" horiz-adv-x="0" >
  <font-face 
    font-family="Muli Black"
    font-weight="900"
    font-stretch="normal"
    units-per-em="1000"
    panose-1="0 0 10 0 0 0 0 0 0 0"
    ascent="800"
    descent="-200"
    x-height="507"
    cap-height="712"
    bbox="-368 -284.002 1355 1096"
    underline-thickness="50"
    underline-position="-50"
    unicode-range="U+000D-U+FB02"
  />
<missing-glyph horiz-adv-x="476" 
d="M390 736v-952h-301v952h301zM317 672h-157v-31h62v-35h-63v-32h158v32h-63v35h63v31zM254 549h-95v-99h158v33h-63v66zM222 517v-34h-32v34h32zM317 425h-158v-32h63v-35h-63v-31h95v66h63v32zM317 368h-31v-63h-127v-33h158v96zM317 251h-95v-53h32v22h32v-45h-96v76
h-31v-107h158v107zM317 87h-158v-108h158v108zM286 55v-44h-96v44h96zM317 -43h-158v-31h67l-67 -45v-31h158v31h-97l67 45h30v31z" />
    <glyph glyph-name="fi" unicode="fi" horiz-adv-x="694" 
d="M454 762h192v-166h-192v166zM279 508l362.001 -0.00292969v-508h-182v375h-180v-375h-181v375h-95v133h95v31c0 50.667 8.16699 90.334 24.5 119.001s42.666 49.334 78.999 62.001s86.166 19 149.499 19h44v-129h-24c-27.333 0 -47.166 -2 -59.499 -6
s-20.833 -11.667 -25.5 -23s-7 -29.666 -7 -54.999v-18z" />
    <glyph glyph-name="fl" unicode="fl" horiz-adv-x="694" 
d="M298 576.5c-14 -12.333 -21 -31.168 -21 -56.501v-12h99v-133h-99v-375h-181v375h-93v133h93v14c0 68.667 17.833 122.334 53.5 161.001s87.5 58 155.5 58c38.667 0 70 -4.66699 94 -14v-139c-19.333 4.66699 -35.333 7 -48 7c-21.333 0 -39 -6.16699 -53 -18.5z
M459 -0.00195312v736h181v-736h-181z" />
    <glyph glyph-name=".notdef" horiz-adv-x="476" 
d="M390 736v-952h-301v952h301zM317 672h-157v-31h62v-35h-63v-32h158v32h-63v35h63v31zM254 549h-95v-99h158v33h-63v66zM222 517v-34h-32v34h32zM317 425h-158v-32h63v-35h-63v-31h95v66h63v32zM317 368h-31v-63h-127v-33h158v96zM317 251h-95v-53h32v22h32v-45h-96v76
h-31v-107h158v107zM317 87h-158v-108h158v108zM286 55v-44h-96v44h96zM317 -43h-158v-31h67l-67 -45v-31h158v31h-97l67 45h30v31z" />
    <glyph glyph-name="NULL" 
 />
    <glyph glyph-name="NULL" 
 />
    <glyph glyph-name="nonmarkingreturn" unicode="&#xd;" horiz-adv-x="290" 
 />
    <glyph glyph-name="space" unicode=" " horiz-adv-x="290" 
 />
    <glyph glyph-name="exclam" unicode="!" horiz-adv-x="276" 
d="M83 247l-57 466l223 -1l-56 -465h-110zM43 186h189v-186h-189v186z" />
    <glyph glyph-name="quotedbl" unicode="&#x22;" horiz-adv-x="494" 
d="M76 402l-44 310h207l-42 -310h-121zM298 402l-44 310h207l-42 -310h-121z" />
    <glyph glyph-name="numbersign" unicode="#" horiz-adv-x="606" 
d="M551 452h-69l-36 -183h81v-109h-103l-32 -160h-116l32 160h-87l-32 -160h-117l32 160h-48v109h70l36 183h-83v108h105l30 152h116l-30 -152h87l30 152h117l-30 -152h47v-108zM329 269l37 183h-87l-37 -183h87z" />
    <glyph glyph-name="dollar" unicode="$" horiz-adv-x="600" 
d="M532.5 74c-37 -38 -87.167 -62.998 -150.5 -74.998v-115h-144v110c-88.667 8 -161 32 -217 72l59 132c53.333 -35.333 110.666 -56 171.999 -62v149c-44.667 11.333 -82.5 24.166 -113.5 38.499s-57.167 35.5 -78.5 63.5s-32 64.667 -32 110
c0 53.333 19.333 99.666 58 138.999s89.334 65.333 152.001 78v114h144v-112c38 -5.33301 73.5 -14.166 106.5 -26.499s59.833 -26.833 80.5 -43.5l-59 -133c-47.333 30 -94 49.667 -140 59v-150c44 -11.333 81 -23.833 111 -37.5s55.333 -34.334 76 -62.001
s31 -64.167 31 -109.5c0 -54.667 -18.5 -101 -55.5 -139zM252 457.002v108.999c-12 -5.33301 -21.333 -13 -28 -23s-10 -21.333 -10 -34c0 -21.333 12.667 -38.666 38 -51.999zM402 204.001c0 18.667 -10.667 33.333 -32 44v-99c21.333 12 32 30.333 32 55z" />
    <glyph glyph-name="percent" unicode="%" horiz-adv-x="974" 
d="M79 345.5c-34 37.667 -51 91.834 -51 162.501c0 69.333 17 122.666 51 159.999s80.667 56 140 56s106 -18.833 140 -56.5s51 -91.167 51 -160.5c0 -70.667 -17 -124.667 -51 -162s-80.667 -56 -140 -56s-106 18.833 -140 56.5zM356 0h-152l414 712h151zM253 423.5
c6.66699 15.667 10 43.5 10 83.5c0 38 -3.66699 65.167 -11 81.5s-18.333 24.5 -33 24.5s-25.5 -8.16699 -32.5 -24.5s-10.5 -43.5 -10.5 -81.5c0 -39.333 3.5 -67 10.5 -83s17.833 -24 32.5 -24c16 0 27.333 7.83301 34 23.5zM615 49.5
c-33.333 37.667 -50 91.834 -50 162.501c0 69.333 16.667 122.666 50 159.999s79.666 56 138.999 56c60 0 106.667 -18.667 140 -56s50 -91 50 -161c0 -70.667 -16.667 -124.667 -50 -162s-80 -56 -140 -56c-59.333 0 -105.666 18.833 -138.999 56.5zM787.5 128
c7 16 10.5 43.667 10.5 83c0 38 -3.66699 65.167 -11 81.5s-18.333 24.5 -33 24.5s-25.5 -8.16699 -32.5 -24.5s-10.5 -43.5 -10.5 -81.5c0 -39.333 3.5 -67 10.5 -83s17.833 -24 32.5 -24c15.333 0 26.5 8 33.5 24z" />
    <glyph glyph-name="ampersand" unicode="&#x26;" horiz-adv-x="709" 
d="M660 -10c-63.333 15.333 -116.998 40.6699 -160.998 76.0029c-64 -49.333 -134.667 -74 -212 -74c-51.333 0 -97 8.5 -137 25.5s-71.167 41 -93.5 72s-33.5 66.5 -33.5 106.5c0 41.333 10.5 78.166 31.5 110.499s53.833 61.5 98.5 87.5
c-41.333 43.333 -62 90.666 -62 141.999c0 36 9.16699 67.833 27.5 95.5s44.166 49.167 77.499 64.5s71.333 23 114 23c60.667 0 109 -15.333 145 -46s54 -71.334 54 -122.001c0 -73.333 -40 -132.666 -120 -177.999l102 -94c24 52 38 106.333 42 163h148
c-2.66699 -48.667 -10.834 -95.334 -24.501 -140.001s-32.167 -85.667 -55.5 -123c43.333 -33.333 91.333 -55 144 -65zM267.502 585.004c-11.667 -11.333 -17.498 -27.001 -17.498 -47.001c0 -12 3.16699 -23.333 9.5 -34s18.5 -25 36.5 -43
c25.333 13.333 43.666 26.333 54.999 39s17 27.334 17 44.001c0 18 -5.16699 32.167 -15.5 42.5s-23.5 15.5 -39.5 15.5c-18.667 0 -33.834 -5.66699 -45.501 -17zM224.004 150.003c16.667 -14.667 39.333 -21.998 68 -21.998c35.333 0 70 11.667 104 35l-148 141
c-32.667 -24.667 -49 -56.334 -49 -95.001c0 -24.667 8.33301 -44.334 25 -59.001z" />
    <glyph glyph-name="quotesingle" unicode="'" horiz-adv-x="272" 
d="M76 402l-44 310h207l-42 -310h-121z" />
    <glyph glyph-name="parenleft" unicode="(" horiz-adv-x="404" 
d="M129.5 46.5c-20.333 68.333 -30.501 141.501 -30.501 219.501c0 78.667 10.5 153.167 31.5 223.5s56.833 144.5 107.5 222.5h143c-37.333 -95.333 -62.666 -175.833 -75.999 -241.5s-20 -133.834 -20 -204.501c0 -69.333 6.5 -136.833 19.5 -202.5
s37.5 -147.5 73.5 -245.5h-142c-50.667 84 -86.167 160.167 -106.5 228.5z" />
    <glyph glyph-name="parenright" unicode=")" horiz-adv-x="404" 
d="M25 -182c36 97.333 60.5 178.832 73.5 244.499s19.5 133.5 19.5 203.5c0 71.333 -6.5 139.833 -19.5 205.5s-38.167 145.834 -75.5 240.501h142c50 -78.667 85.833 -153.334 107.5 -224.001s32.5 -144.667 32.5 -222s-10.5 -150.166 -31.5 -218.499
s-56.833 -144.833 -107.5 -229.5h-141z" />
    <glyph glyph-name="asterisk" unicode="*" horiz-adv-x="460" 
d="M160 325l-97 72l85 100l-129 32l38 115l122 -50l-9 132h121l-10 -130l123 48l37 -115l-129 -31l86 -101l-99 -72l-69 111z" />
    <glyph glyph-name="plus" unicode="+" horiz-adv-x="600" 
d="M546 351v-121h-185v-186h-122v186h-185v121h185v186h122v-186h185z" />
    <glyph glyph-name="comma" unicode="," horiz-adv-x="276" 
d="M232 186v-117.001c0 -43.333 -7.83301 -82.666 -23.5 -117.999s-42.5 -71.333 -80.5 -108l-67 54c36.667 36.667 59 71 67 103h-85v186h189z" />
    <glyph glyph-name="hyphen" unicode="-" horiz-adv-x="450" 
d="M64 201v140h324v-140h-324z" />
    <glyph glyph-name="period" unicode="." horiz-adv-x="276" 
d="M43 186h189v-186h-189v186z" />
    <glyph glyph-name="slash" unicode="/" horiz-adv-x="353" 
d="M117 -64h-145l263 822h146z" />
    <glyph glyph-name="zero" unicode="0" horiz-adv-x="600" 
d="M97.5 85c-47 62.667 -70.5 153.334 -70.5 272.001c0 116.667 23.5 206.167 70.5 268.5s114.5 93.5 202.5 93.5s155.5 -31.167 202.5 -93.5s70.5 -151.833 70.5 -268.5c0 -118.667 -23.5 -209.334 -70.5 -272.001s-114.5 -94 -202.5 -94s-155.5 31.333 -202.5 94z
M369 184.5c14 35 21 92.5 21 172.5c0 78 -7 134.333 -21 169s-37 52 -69 52s-55 -17.333 -69 -52s-21 -91 -21 -169c0 -80 7 -137.5 21 -172.5s37 -52.5 69 -52.5s55 17.5 69 52.5z" />
    <glyph glyph-name="one" unicode="1" horiz-adv-x="600" 
d="M432 149h154v-149h-494v149h153v359l-143 -82v161l220 125h110v-563z" />
    <glyph glyph-name="two" unicode="2" horiz-adv-x="601" 
d="M559 149l-0.000976562 -149h-502v138l232 242c43.333 45.333 65 87.666 65 126.999c0 46 -27.333 69 -82 69c-28 0 -57.5 -5.5 -88.5 -16.5s-62.167 -26.833 -93.5 -47.5l-59 133c28.667 23.333 65.834 41.833 111.501 55.5s92.167 20.5 139.5 20.5
c51.333 0 96.166 -8.16699 134.499 -24.5s68 -39.666 89 -69.999s31.5 -65.833 31.5 -106.5c0 -41.333 -8.16699 -78.833 -24.5 -112.5s-44.166 -71.5 -83.499 -113.5l-142 -145h272z" />
    <glyph glyph-name="three" unicode="3" horiz-adv-x="600" 
d="M522.5 304c22.333 -30 33.5029 -66.6689 33.5029 -110.002c0 -41.333 -11.167 -77.166 -33.5 -107.499s-54.5 -53.666 -96.5 -69.999s-91 -24.5 -147 -24.5c-50 0 -98.5 6.83301 -145.5 20.5s-84.5 32.167 -112.5 55.5l59 133c62 -42.667 125.333 -64 190 -64
c40 0 68.333 5.83301 85 17.5s25 31.5 25 59.5c0 26.667 -8.16699 45.667 -24.5 57s-43.5 17 -81.5 17h-111v144h92c37.333 0 64.166 5.16699 80.499 15.5s24.5 27.166 24.5 50.499c0 25.333 -7.83301 44.666 -23.5 57.999s-37.5 20 -65.5 20
c-28.667 0 -58.834 -5.5 -90.501 -16.5s-61.834 -26.833 -90.501 -47.5l-59 133c28.667 22.667 66.167 41 112.5 55s93.166 21 140.499 21c50.667 0 95 -8 133 -24s67.5 -38.833 88.5 -68.5s31.5 -64.167 31.5 -103.5c0.666992 -37.333 -8.66602 -69.666 -27.999 -96.999
s-46.666 -47.666 -81.999 -60.999c41.333 -12 73.166 -33 95.499 -63z" />
    <glyph glyph-name="four" unicode="4" horiz-adv-x="600" 
d="M588 263v-143h-92v-120h-184v120h-285v138l319 454h150v-449h92zM195 263h117v168z" />
    <glyph glyph-name="five" unicode="5" horiz-adv-x="600" 
d="M466 438c34.667 -19.333 61.6689 -46.333 81.002 -81s29 -74.667 29 -120c0 -49.333 -11.833 -92.5 -35.5 -129.5s-57.334 -65.5 -101.001 -85.5s-94.5 -30 -152.5 -30c-46 0 -91.667 7 -137 21s-81.666 32.333 -108.999 55l58 133c61.333 -42.667 125 -64 191 -64
c37.333 0 65 7.5 83 22.5s27 38.167 27 69.5c0 30.667 -9.5 54.167 -28.5 70.5s-45.5 24.5 -79.5 24.5c-18.667 0 -38.834 -3.16699 -60.501 -9.5s-41.834 -14.5 -60.501 -24.5h-103v422h470v-142h-288v-122c27.333 12.667 60 19 98 19c44 0 83.333 -9.66699 118 -29z" />
    <glyph glyph-name="six" unicode="6" horiz-adv-x="600" 
d="M470.5 439c32.333 -20 57.667 -47.501 76 -82.501s27.5 -74.833 27.5 -119.5c0 -47.333 -10.667 -89.666 -32 -126.999s-51 -66.5 -89 -87.5s-81 -31.5 -129 -31.5c-95.333 0 -168.833 31 -220.5 93s-77.5 150.333 -77.5 265c0 76.667 12.5 143 37.5 199
s60.833 98.833 107.5 128.5s102 44.5 166 44.5c45.333 0 89 -6.66699 131 -20s77.667 -32 107 -56l-59 -133c-30 22 -59.667 38.167 -89 48.5s-56.333 15.5 -81 15.5c-80 0 -124 -59 -132 -177c15.333 21.333 36 38.333 62 51s54.333 19 85 19
c40.667 0 77.167 -10 109.5 -30zM376.001 160.999c15.333 17.333 23 40 23 68c0 29.333 -7.5 52.5 -22.5 69.5s-35.833 25.5 -62.5 25.5c-25.333 0 -45.833 -8.66699 -61.5 -26s-23.5 -40.333 -23.5 -69c0 -27.333 7.83301 -49.833 23.5 -67.5s36.167 -26.5 61.5 -26.5
c26 0 46.667 8.66699 62 26z" />
    <glyph glyph-name="seven" unicode="7" horiz-adv-x="600" 
d="M36 712h529v-140l-310 -572h-200l309 563h-328v149z" />
    <glyph glyph-name="eight" unicode="8" horiz-adv-x="600" 
d="M543 305c25.333 -29.333 38.001 -65.667 38.001 -109c0 -42 -12 -78.333 -36 -109s-57.167 -54.167 -99.5 -70.5s-90.833 -24.5 -145.5 -24.5s-103.167 8.16699 -145.5 24.5s-75.5 39.833 -99.5 70.5s-36 67 -36 109c0 44 12.667 80.833 38 110.5s61 50.167 107 61.5
c-39.333 13.333 -70.333 33.833 -93 61.5s-34 60.167 -34 97.5c0 39.333 11.5 73.666 34.5 102.999s54.333 51.833 94 67.5s84.5 23.5 134.5 23.5s94.833 -7.83301 134.5 -23.5s71 -38.167 94 -67.5s34.5 -63.666 34.5 -102.999c0 -38 -11.5 -71.167 -34.5 -99.5
s-53.5 -48.5 -91.5 -60.5c45.333 -12 80.666 -32.667 105.999 -62zM236.501 561.499c-16.333 -12.333 -24.5 -31.166 -24.5 -56.499c0 -44 29.333 -73.333 88 -88c58.667 14.667 88 44 88 88c0 25.333 -8.16699 44.166 -24.5 56.499s-37.5 18.5 -63.5 18.5
s-47.167 -6.16699 -63.5 -18.5zM378.001 152.999c20 13.333 29.998 32.666 29.998 57.999c0 24.667 -9.66699 44.667 -29 60s-45.666 26 -78.999 32c-33.333 -6 -59.666 -16.667 -78.999 -32s-29 -35.333 -29 -60c0 -25.333 10 -44.666 30 -57.999s46 -20 78 -20
s58 6.66699 78 20z" />
    <glyph glyph-name="nine" unicode="9" horiz-adv-x="600" 
d="M495.5 628c51.667 -62 77.5 -150.332 77.5 -264.999c0 -76.667 -12.333 -143 -37 -199s-60.334 -98.833 -107.001 -128.5s-102 -44.5 -166 -44.5c-45.333 0 -89 6.66699 -131 20s-77.667 32 -107 56l59 133c59.333 -42.667 116 -64 170 -64c80 0 124 59 132 177
c-15.333 -22 -36 -39.167 -62 -51.5s-54.667 -18.5 -86 -18.5c-40.667 0 -77.167 10 -109.5 30s-57.666 47.5 -75.999 82.5s-27.5 74.833 -27.5 119.5c0 47.333 10.667 89.666 32 126.999s51 66.5 89 87.5s81 31.5 129 31.5c95.333 0 168.833 -31 220.5 -93zM347.5 414.001
c15.667 17.333 23.5 40.333 23.5 69c0 27.333 -8 49.833 -24 67.5s-36.333 26.5 -61 26.5c-26 0 -46.667 -8.66699 -62 -26s-23 -40 -23 -68c0 -29.333 7.5 -52.5 22.5 -69.5s35.833 -25.5 62.5 -25.5c25.333 0 45.833 8.66699 61.5 26z" />
    <glyph glyph-name="colon" unicode=":" horiz-adv-x="276" 
d="M43 497h189v-185h-189v185zM43 186h189v-186h-189v186z" />
    <glyph glyph-name="semicolon" unicode=";" horiz-adv-x="276" 
d="M43 497h189v-185h-189v185zM43 186l189 -0.000976562v-117c0 -43.333 -7.83301 -82.666 -23.5 -117.999s-42.5 -71.333 -80.5 -108l-67 54c36.667 36.667 59 71 67 103h-85v186z" />
    <glyph glyph-name="less" unicode="&#x3c;" horiz-adv-x="600" 
d="M546 550v-132l-332 -127l332 -128v-132l-492 192v135z" />
    <glyph glyph-name="equal" unicode="=" horiz-adv-x="600" 
d="M546 452v-121h-492v121h492zM546 250v-121h-492v121h492z" />
    <glyph glyph-name="greater" unicode="&#x3e;" horiz-adv-x="600" 
d="M54 550l492 -192v-135l-492 -192v132l332 128l-332 127v132z" />
    <glyph glyph-name="question" unicode="?" horiz-adv-x="484" 
d="M247 721c45.333 0 85.665 -7.5 120.998 -22.5s62.833 -35.833 82.5 -62.5s29.5 -57 29.5 -91c0 -35.333 -9.5 -65.666 -28.5 -90.999s-45.833 -52.666 -80.5 -81.999c-23.333 -20 -40.666 -36.333 -51.999 -49s-18.666 -26.334 -21.999 -41.001l-7 -41h-106v62
c0 31.333 5.83301 57.166 17.5 77.499s28.167 42.5 49.5 66.5c15.333 16 26.666 29.667 33.999 41s11 24.333 11 39c0 32.667 -21.667 49 -65 49c-22 0 -45.333 -3.5 -70 -10.5s-48.667 -18.167 -72 -33.5v147c44.667 28 97.334 42 158.001 42zM144.999 0v186h188v-186h-188
z" />
    <glyph glyph-name="at" unicode="@" horiz-adv-x="953" 
d="M248.5 -109.5c-67.667 36.333 -119.834 86.834 -156.501 151.501s-55 138.667 -55 222c0 95.333 19.5 177.166 58.5 245.499s92.667 120.333 161 156s146.166 53.5 233.499 53.5c88.667 0 165.167 -15.833 229.5 -47.5s113.166 -76 146.499 -133s50 -122.5 50 -196.5
c0 -56 -8.5 -104.833 -25.5 -146.5s-41.5 -74 -73.5 -97s-69.667 -34.5 -113 -34.5c-35.333 0 -64.5 7.5 -87.5 22.5s-37.833 34.833 -44.5 59.5h-2c-19.333 -26.667 -39.666 -47 -60.999 -61s-49 -21 -83 -21c-52 0 -92 16.833 -120 50.5s-42 78.167 -42 133.5
c0 48.667 9 92.5 27 131.5s43 69.667 75 92s68.333 33.5 109 33.5c26 0 48.833 -4.83301 68.5 -14.5s34.167 -24.5 43.5 -44.5h4l9 51h127l-40 -222c-4 -20.667 -6 -39 -6 -55c0 -18.667 3.5 -32.667 10.5 -42s18.833 -14 35.5 -14c10 0 20.5 6 31.5 18s20.333 31.333 28 58
s11.5 60.667 11.5 102c0 87.333 -26.5 154.5 -79.5 201.5s-129.167 70.5 -228.5 70.5c-63.333 0 -119.5 -13.5 -168.5 -40.5s-87.333 -66.833 -115 -119.5s-41.5 -116 -41.5 -190c0 -64.667 12.833 -121.167 38.5 -169.5s62.667 -85.833 111 -112.5s105.833 -40 172.5 -40
c46.667 0 86.334 5.16699 119.001 15.5s56.667 24.5 72 42.5h163c-25.333 -48.667 -68.666 -88.167 -129.999 -118.5s-136 -45.5 -224 -45.5c-91.333 0 -170.833 18.167 -238.5 54.5zM538 211.001c20 31.333 29.999 68.333 29.999 111c0 27.333 -6.16699 48 -18.5 62
s-29.166 21 -50.499 21c-33.333 0 -59.333 -16.167 -78 -48.5s-28 -68.833 -28 -109.5c0 -24 5.16699 -43.833 15.5 -59.5s25.5 -23.5 45.5 -23.5c36 0 64 15.667 84 47z" />
    <glyph glyph-name="A" unicode="A" horiz-adv-x="769" 
d="M607 0l-63 147h-316l-63 -147h-188l333 712h148l334 -712h-185zM289 288h194l-97 225z" />
    <glyph glyph-name="B" unicode="B" horiz-adv-x="702" 
d="M640 305.5c22.667 -30.333 33.999 -67.168 33.999 -110.501c0 -39.333 -10.333 -73.666 -31 -102.999s-50.167 -52 -88.5 -68s-83.5 -24 -135.5 -24h-355v712h346c74.667 0 134 -16.667 178 -50s66 -78.333 66 -135c0 -36.667 -9.66699 -69 -29 -97
s-46.666 -48.333 -81.999 -61c42 -12 74.333 -33.167 97 -63.5zM246.999 432.998h131c34.667 0 60 5.33301 76 16s24 27.667 24 51c0 24 -8.16699 41.667 -24.5 53s-41.5 17 -75.5 17h-131v-137zM474.499 158.998c15.667 11.333 23.5 30.334 23.5 57.001
c0 27.333 -7.66699 46.666 -23 57.999s-41.333 17 -78 17h-150v-149h150c36 0 61.833 5.66699 77.5 17z" />
    <glyph glyph-name="C" unicode="C" horiz-adv-x="685" 
d="M216.5 36.5c-55 30.333 -97.333 73.166 -127 128.499s-44.5 119.333 -44.5 192c0 72 14.833 135.5 44.5 190.5s72 97.667 127 128s119.5 45.5 193.5 45.5c46.667 0 91.834 -7 135.501 -21s78.834 -33 105.501 -57l-57 -133c-58 42 -118 63 -180 63
c-57.333 0 -101.333 -18.167 -132 -54.5s-46 -90.166 -46 -161.499c0 -72 15.333 -126.333 46 -163s74.667 -55 132 -55c62 0 122 21 180 63l57 -133c-26.667 -24 -61.834 -43 -105.501 -57s-88.834 -21 -135.501 -21c-74 0 -138.5 15.167 -193.5 45.5z" />
    <glyph glyph-name="D" unicode="D" horiz-adv-x="781" 
d="M64 712l291 -0.00195312c78.667 0 146.5 -14.167 203.5 -42.5s100.667 -69.166 131 -122.499s45.5 -116.666 45.5 -189.999c0 -74 -15 -137.833 -45 -191.5s-73.5 -94.667 -130.5 -123s-125.167 -42.5 -204.5 -42.5h-291v712zM342 149.998
c69.333 0 121.167 17.168 155.5 51.501s51.5 86.166 51.5 155.499c0 136.667 -69 205 -207 205h-90v-412h90z" />
    <glyph glyph-name="E" unicode="E" horiz-adv-x="604" 
d="M64 0v712h508v-144h-325v-134h304v-144h-304v-146h325v-144h-508z" />
    <glyph glyph-name="F" unicode="F" horiz-adv-x="584" 
d="M64 0v712h497v-147h-312v-130h292v-146h-292v-289h-185z" />
    <glyph glyph-name="G" unicode="G" horiz-adv-x="751" 
d="M696 402l0.000976562 -357.002c-38 -17.333 -80.5 -30.666 -127.5 -39.999s-95.167 -14 -144.5 -14c-77.333 0 -144.5 14.667 -201.5 44s-100.833 71.5 -131.5 126.5s-46 120.167 -46 195.5c0 73.333 15.333 137.5 46 192.5s74 97.333 130 127s121.333 44.5 196 44.5
c51.333 0 99.833 -6.66699 145.5 -20s82.834 -31.666 111.501 -54.999l-59 -133c-32.667 21.333 -64.167 36.833 -94.5 46.5s-62.833 14.5 -97.5 14.5c-63.333 0 -110.5 -17.833 -141.5 -53.5s-46.5 -90.167 -46.5 -163.5c0 -76 16.167 -132.333 48.5 -169
s82.166 -55 149.499 -55c31.333 0 62.666 3.33301 93.999 10v132h-124v127h293z" />
    <glyph glyph-name="H" unicode="H" horiz-adv-x="784" 
d="M536 712h184v-712h-184v288h-288v-288h-184v712h184v-277h288v277z" />
    <glyph glyph-name="I" unicode="I" horiz-adv-x="316" 
d="M64 0v712h188v-712h-188z" />
    <glyph glyph-name="J" unicode="J" horiz-adv-x="403" 
d="M2 -29c33.333 -3.33301 57.668 -5 73.001 -5c30 0 50 6 60 18s15 35 15 69v659h188v-656c0 -84 -17 -145.667 -51 -185s-92.333 -59 -175 -59c-32.667 0 -69.334 3 -110.001 9v150z" />
    <glyph glyph-name="K" unicode="K" horiz-adv-x="706" 
d="M760 0h-223l-285 323v-323h-188v712h188v-306l277 306h220l-315 -338z" />
    <glyph glyph-name="L" unicode="L" horiz-adv-x="579" 
d="M64 0v712h188v-560h301v-152h-489z" />
    <glyph glyph-name="M" unicode="M" horiz-adv-x="852" 
d="M639 712h146v-712h-164l-1 326l-135 -326h-119l-136 322v-322h-163v712h147l213 -486z" />
    <glyph glyph-name="N" unicode="N" horiz-adv-x="766" 
d="M524 712h177v-712h-139l-323 404v-404h-175v712h137l323 -402v402z" />
    <glyph glyph-name="O" unicode="O" horiz-adv-x="805" 
d="M213 35.5c-54 29.667 -95.501 72.167 -124.501 127.5s-43.5 120 -43.5 194s14.667 138.333 44 193s70.833 96.834 124.5 126.501s116.834 44.5 189.501 44.5s135.834 -14.833 189.501 -44.5s94.834 -71.834 123.501 -126.501s43 -119 43 -193s-14.333 -138.667 -43 -194
s-69.834 -97.833 -123.501 -127.5s-116.834 -44.5 -189.501 -44.5s-136 14.833 -190 44.5zM528.499 191c30.333 38 45.5 93.333 45.5 166c0 72 -15.167 126.833 -45.5 164.5s-72.166 56.5 -125.499 56.5s-95 -18.667 -125 -56s-45 -92.333 -45 -165
c0 -73.333 15 -128.833 45 -166.5s71.667 -56.5 125 -56.5s95.166 19 125.499 57z" />
    <glyph glyph-name="P" unicode="P" horiz-adv-x="685" 
d="M64 712h339c81.333 0 144.333 -19.5 189 -58.5s67 -91.833 67 -158.5c0 -66 -22.667 -118.667 -68 -158s-108 -59 -188 -59h-151v-278h-188v712zM378 418c70.667 0 106 25 106 75c0 25.333 -8.5 44.5 -25.5 57.5s-43.833 19.5 -80.5 19.5h-126v-152h126z" />
    <glyph glyph-name="Q" unicode="Q" horiz-adv-x="805" 
d="M648.5 -32.5c21.667 -21.667 46.4961 -44.166 74.4961 -67.499l-125 -91c-73.333 48 -131.666 108.667 -174.999 182h-20c-72.667 0 -136 14.833 -190 44.5s-95.5 72.167 -124.5 127.5s-43.5 120 -43.5 194s14.667 138.333 44 193s70.833 96.834 124.5 126.501
s116.834 44.5 189.501 44.5s135.834 -14.833 189.501 -44.5s94.834 -71.834 123.501 -126.501s43 -119 43 -193s-14.333 -138.5 -43 -193.5s-69.334 -97.167 -122.001 -126.5c14.667 -24.667 32.834 -47.834 54.501 -69.501zM277.996 190.501
c30 -37.667 71.667 -56.5 125 -56.5s95.166 19 125.499 57s45.5 93.333 45.5 166c0 72 -15.167 126.833 -45.5 164.5s-72.166 56.5 -125.499 56.5s-95 -18.667 -125 -56s-45 -92.333 -45 -165c0 -73.333 15 -128.833 45 -166.5z" />
    <glyph glyph-name="R" unicode="R" horiz-adv-x="714" 
d="M683 0l-198.999 0.000976562l-92 237c-10.667 26.667 -35.667 40 -75 40h-68v-277h-185v712h331c86 0 150.667 -18.5 194 -55.5s65 -89.833 65 -158.5c0 -48 -12.833 -89.5 -38.5 -124.5s-61.834 -59.833 -108.501 -74.5c20 -4 38 -13.333 54 -28
s28.667 -34.334 38 -59.001zM452.001 435.501c18 12.333 27.001 31.5 27.001 57.5c0 27.333 -8.83301 47 -26.5 59s-46.834 18 -87.501 18h-118v-153h118c40 0 69 6.16699 87 18.5z" />
    <glyph glyph-name="S" unicode="S" horiz-adv-x="672" 
d="M164 12c-52 14 -94.333 32.999 -127 56.999l59 133c34.667 -22 71.5 -38.833 110.5 -50.5s78.167 -17.5 117.5 -17.5c40 0 70.667 5.5 92 16.5s32 26.5 32 46.5c0 18 -9.66699 32.833 -29 44.5s-55.666 23.167 -108.999 34.5
c-67.333 13.333 -119.666 29.833 -156.999 49.5s-63.5 42.834 -78.5 69.501s-22.5 59 -22.5 97c0 43.333 12.333 82.5 37 117.5s59.334 62.333 104.001 82s95.667 29.5 153 29.5c51.333 0 101.166 -7.16699 149.499 -21.5s86.166 -33.166 113.499 -56.499l-58 -133
c-31.333 22 -64.333 38.833 -99 50.5s-69.334 17.5 -104.001 17.5c-34 0 -61.333 -6.5 -82 -19.5s-31 -30.5 -31 -52.5c0 -12 3.66699 -22 11 -30s21 -15.833 41 -23.5s50 -15.834 90 -24.501c64.667 -14 115.5 -30.833 152.5 -50.5s63.167 -42.667 78.5 -69
s23 -57.833 23 -94.5c0 -69.333 -27 -123.833 -81 -163.5s-130 -59.5 -228 -59.5c-53.333 0 -106 7 -158 21z" />
    <glyph glyph-name="T" unicode="T" horiz-adv-x="638" 
d="M224 0v560h-212v152h614v-152h-212v-560h-190z" />
    <glyph glyph-name="U" unicode="U" horiz-adv-x="752" 
d="M141 69.5c-53.333 52.333 -80 129.165 -80 230.498v412h183v-419c0 -51.333 11.5 -90.666 34.5 -117.999s55.833 -41 98.5 -41c42 0 74.333 13.833 97 41.5s34 66.834 34 117.501v419h185v-412c0 -100 -27.167 -176.5 -81.5 -229.5s-132.5 -79.5 -234.5 -79.5
c-104 0 -182.667 26.167 -236 78.5z" />
    <glyph glyph-name="V" unicode="V" horiz-adv-x="751" 
d="M585 712h189l-324 -712h-149l-324 712h195l205 -478z" />
    <glyph glyph-name="W" unicode="W" horiz-adv-x="1132" 
d="M942 712h178l-255 -712h-149l-149 423l-152 -423h-149l-254 712h191l146 -449l159 449h128l153 -457z" />
    <glyph glyph-name="X" unicode="X" horiz-adv-x="694" 
d="M452 360l272 -360h-219l-159 222l-160 -222h-218l271 360l-265 352h217l154 -216l157 216h218z" />
    <glyph glyph-name="Y" unicode="Y" horiz-adv-x="657" 
d="M724 712l-301 -440v-272h-189v273l-299 439h212l180 -284l183 284h214z" />
    <glyph glyph-name="Z" unicode="Z" horiz-adv-x="624" 
d="M260 147h329v-147h-536v137l314 428h-314v147h525v-135z" />
    <glyph glyph-name="bracketleft" unicode="[" horiz-adv-x="401" 
d="M103 -182v894h281v-134h-104v-626h104v-134h-281z" />
    <glyph glyph-name="backslash" unicode="\" horiz-adv-x="352" 
d="M234 -64l-262 822h145l263 -822h-146z" />
    <glyph glyph-name="bracketright" unicode="]" horiz-adv-x="401" 
d="M298 -182h-281v134h104v626h-104v134h281v-894z" />
    <glyph glyph-name="asciicircum" unicode="^" horiz-adv-x="600" 
d="M560 145h-133l-127 333l-127 -333h-134l193 493h136z" />
    <glyph glyph-name="underscore" unicode="_" horiz-adv-x="505" 
d="M17 -103v103h471v-103h-471z" />
    <glyph glyph-name="grave" unicode="`" horiz-adv-x="300" 
d="M97 562l-161 208h172l98 -208h-109z" />
    <glyph glyph-name="a" unicode="a" horiz-adv-x="643" 
d="M589 508v-508.002h-178v69c-14.667 -24 -36 -42.833 -64 -56.5s-58.667 -20.5 -92 -20.5c-43.333 0 -82 10.667 -116 32s-60.5 51.833 -79.5 91.5s-28.5 85.5 -28.5 137.5c0 52.667 9.66699 99.334 29 140.001s46 72.334 80 95.001s72.333 34 115 34
c33.333 0 63.833 -7.16699 91.5 -21.5s49.167 -33.5 64.5 -57.5v65h178zM385 159.998c17.333 22 26 53.668 26 95.001c0 42 -8.66699 74.167 -26 96.5s-42 33.5 -74 33.5c-31.333 0 -56 -11.5 -74 -34.5s-27 -55.5 -27 -97.5c0 -40.667 8.66699 -71.834 26 -93.501
s42.333 -32.5 75 -32.5c32 0 56.667 11 74 33z" />
    <glyph glyph-name="b" unicode="b" horiz-adv-x="645" 
d="M506 489.5c34 -21.667 60.501 -52.502 79.501 -92.502s28.5 -86 28.5 -138c0 -52.667 -9.66699 -99.167 -29 -139.5s-46 -71.666 -80 -93.999s-72.667 -33.5 -116 -33.5c-34 0 -65 6.83301 -93 20.5s-49 32.5 -63 56.5v-69h-179v736h181v-289
c14.667 22.667 35.667 40.834 63 54.501s57.666 20.5 90.999 20.5c44 0 83 -10.833 117 -32.5zM407.501 160.998c17 22.667 25.501 55.332 25.501 97.999c0 40.667 -8.33301 71.834 -25 93.501s-41.334 32.5 -74.001 32.5s-57.667 -11 -75 -33s-26 -53.667 -26 -95
c0 -42.667 8.66699 -75 26 -97s42.333 -33 75 -33c32 0 56.5 11.333 73.5 34z" />
    <glyph glyph-name="c" unicode="c" horiz-adv-x="515" 
d="M104 62c-48.667 46.667 -73.002 110.332 -73.002 190.999c0 53.333 11.833 100.333 35.5 141s56.834 72.167 99.501 94.5s92 33.5 148 33.5c37.333 0 74 -5.5 110 -16.5s64.667 -25.833 86 -44.5l-46 -125c-18 14.667 -39 26.334 -63 35.001s-47 13 -69 13
c-37.333 0 -66 -10.667 -86 -32s-30 -53 -30 -95c0 -42.667 10 -74.834 30 -96.501s49 -32.5 87 -32.5c22 0 44.833 4.33301 68.5 13s44.5 20.334 62.5 35.001l46 -123c-22 -19.333 -51.167 -34.333 -87.5 -45s-75.166 -16 -116.499 -16c-86 0 -153.333 23.333 -202 70z" />
    <glyph glyph-name="d" unicode="d" horiz-adv-x="643" 
d="M589 736v-735.999h-178v69c-14.667 -24 -36 -42.833 -64 -56.5s-58.667 -20.5 -92 -20.5c-43.333 0 -82 11.167 -116 33.5s-60.5 53.666 -79.5 93.999s-28.5 86.833 -28.5 139.5c0 52 9.5 98 28.5 138s45.5 70.833 79.5 92.5s72.667 32.5 116 32.5
c32 0 61.5 -6.66699 88.5 -20s48.5 -31.333 64.5 -54v288h181zM385 160.501c17.333 22.333 26 54.501 26 96.501c0 40.667 -8.83301 72.167 -26.5 94.5s-42.167 33.5 -73.5 33.5c-32.667 0 -57.667 -10.833 -75 -32.5s-26 -52.834 -26 -93.501
c0 -42 8.83301 -74.5 26.5 -97.5s42.5 -34.5 74.5 -34.5s56.667 11.167 74 33.5z" />
    <glyph glyph-name="e" unicode="e" horiz-adv-x="553" 
d="M523 236l-318.995 0.00195312c3.33301 -39.333 14.666 -67.666 33.999 -84.999s47.666 -26 84.999 -26c25.333 0 50.666 4.16699 75.999 12.5s48.333 19.833 69 34.5l46 -120c-25.333 -18.667 -56 -33.334 -92 -44.001s-72 -16 -108 -16c-58 0 -108.333 10.667 -151 32
s-75.334 51.833 -98.001 91.5s-34 86.5 -34 140.5c0 51.333 10.833 97.166 32.5 137.499s51.667 71.833 90 94.5s82.166 34 131.499 34c48 0 90 -10.667 126 -32s63.667 -51.833 83 -91.5s29 -85.834 29 -138.501v-24zM206.005 320.002h162c-6.66699 52 -32.667 78 -78 78
c-44.667 0 -72.667 -26 -84 -78z" />
    <glyph glyph-name="f" unicode="f" horiz-adv-x="405" 
d="M298 576.5c-14 -12.333 -21 -31.168 -21 -56.501v-12h99v-133h-99v-375h-181v375h-93v133h93v14c0 68.667 17.833 122.334 53.5 161.001s87.5 58 155.5 58c38.667 0 70 -4.66699 94 -14v-139c-19.333 4.66699 -35.333 7 -48 7c-21.333 0 -39 -6.16699 -53 -18.5z" />
    <glyph glyph-name="g" unicode="g" horiz-adv-x="647" 
d="M595 508l0.000976562 -475.999c0 -83.333 -25 -146.833 -75 -190.5s-123.333 -65.5 -220 -65.5c-82.667 0 -154.334 14.667 -215.001 44l27 132c30 -13.333 60.833 -23.833 92.5 -31.5s61.5 -11.5 89.5 -11.5c41.333 0 71.833 8.83301 91.5 26.5s29.5 45.167 29.5 82.5
v75c-16.667 -22 -39.167 -40.667 -67.5 -56s-58.5 -23 -90.5 -23c-43.333 0 -82.166 10.5 -116.499 31.5s-61.166 50.667 -80.499 89s-29 82.833 -29 133.5c0 50 9.66699 94.167 29 132.5s46.166 68.166 80.499 89.499s73.166 32 116.499 32c34 0 65 -7 93 -21
s49.667 -33 65 -57v64h180zM388.001 180.501c18 21 27 50.168 27 87.501c0 36 -9 64.5 -27 85.5s-43 31.5 -75 31.5s-57.167 -10.333 -75.5 -31s-27.5 -49.334 -27.5 -86.001s9.33301 -65.667 28 -87s43.667 -32 75 -32c32 0 57 10.5 75 31.5z" />
    <glyph glyph-name="h" unicode="h" horiz-adv-x="624" 
d="M528.5 467.5c29.667 -36.333 44.501 -91.167 44.501 -164.5v-303h-181v295c0 31.333 -5.33301 53.833 -16 67.5s-27.334 20.5 -50.001 20.5c-27.333 0 -49.333 -9.16699 -66 -27.5s-25 -42.5 -25 -72.5v-283h-181v736h181v-290c39.333 50.667 92.333 76 159 76
c60 0 104.833 -18.167 134.5 -54.5z" />
    <glyph glyph-name="i" unicode="i" horiz-adv-x="289" 
d="M54 0v508h181v-508h-181zM49 757h189v-163h-189v163z" />
    <glyph glyph-name="j" unicode="j" horiz-adv-x="289" 
d="M-20 -79c21.333 0 39.002 6.16895 53.002 18.502s21 31.166 21 56.499v512h181v-514c0 -68.667 -17.833 -122.334 -53.5 -161.001s-87.834 -58 -156.501 -58c-38.667 0 -70 4.66699 -94 14v139c19.333 -4.66699 35.666 -7 48.999 -7zM48.002 757.002h189v-163h-189v163z
" />
    <glyph glyph-name="k" unicode="k" horiz-adv-x="598" 
d="M627 0h-219l-173 219v-219h-181v736h181v-440l170 211h214l-200 -243z" />
    <glyph glyph-name="l" unicode="l" horiz-adv-x="289" 
d="M54 0v736h181v-736h-181z" />
    <glyph glyph-name="m" unicode="m" horiz-adv-x="925" 
d="M831.5 468c28.333 -36 42.499 -91.001 42.499 -165.001v-303h-181v298c0 30 -4.5 51.667 -13.5 65s-24.167 20 -45.5 20c-25.333 0 -45 -9.33301 -59 -28s-21 -45 -21 -79v-276h-181v298c0 30 -4.66699 51.667 -14 65s-24.333 20 -45 20
c-25.333 0 -44.833 -9.33301 -58.5 -28s-20.5 -45 -20.5 -79v-276h-181v362c0 54.667 -2.66699 103.334 -8 146.001h170l9 -71c15.333 27.333 36.833 48.333 64.5 63s59.5 22 95.5 22c72.667 0 122 -30.667 148 -92c18 28 41.833 50.333 71.5 67s61.834 25 96.501 25
c58.667 0 102.167 -18 130.5 -54z" />
    <glyph glyph-name="n" unicode="n" horiz-adv-x="624" 
d="M528.5 467.5c29.667 -36.333 44.501 -91.168 44.501 -164.501v-303h-181v295c0 31.333 -5.33301 53.833 -16 67.5s-27.334 20.5 -50.001 20.5c-27.333 0 -49.333 -9.16699 -66 -27.5s-25 -42.5 -25 -72.5v-283h-181v362c0 54.667 -2.66699 103.334 -8 146.001h170l9 -75
c19.333 28.667 43.333 50.667 72 66s61 23 97 23c60 0 104.833 -18.167 134.5 -54.5z" />
    <glyph glyph-name="o" unicode="o" horiz-adv-x="618" 
d="M162 24c-42 21.333 -74.333 52.002 -97 92.002s-34 87 -34 141s11.333 101 34 141s55 70.667 97 92s91.333 32 148 32c56 0 104.833 -10.833 146.5 -32.5s73.834 -52.334 96.501 -92.001s34 -86.5 34 -140.5s-11.333 -100.833 -34 -140.5
s-54.834 -70.334 -96.501 -92.001s-90.5 -32.5 -146.5 -32.5c-56.667 0 -106 10.667 -148 32zM408 257.002c0 44 -8.16699 76.5 -24.5 97.5s-40.833 31.5 -73.5 31.5c-33.333 0 -58.333 -10.5 -75 -31.5s-25 -53.5 -25 -97.5c0 -44.667 8.33301 -77.5 25 -98.5
s41.667 -31.5 75 -31.5c65.333 0 98 43.333 98 130z" />
    <glyph glyph-name="p" unicode="p" horiz-adv-x="645" 
d="M505 488c34 -22.667 60.667 -54.333 80 -95s29 -87.334 29 -140.001c0 -52 -9.5 -97.833 -28.5 -137.5s-45.5 -70.167 -79.5 -91.5s-73 -32 -117 -32c-33.333 0 -63.666 6.5 -90.999 19.5s-48.333 31.167 -63 54.5v-282h-181v578c0 54.667 -2.66699 103.334 -8 146.001
h170l10 -79c12.667 28 33.667 50.5 63 67.5s62.666 25.5 99.999 25.5c43.333 0 82 -11.333 116 -34zM408 159.001c16.667 21.333 24.999 52.667 24.999 94c0 42 -8.5 74.5 -25.5 97.5s-41.5 34.5 -73.5 34.5c-32.667 0 -57.667 -11 -75 -33s-26 -54.333 -26 -97
c0 -41.333 8.66699 -73 26 -95s42.333 -33 75 -33s57.334 10.667 74.001 32z" />
    <glyph glyph-name="q" unicode="q" horiz-adv-x="643" 
d="M599 508c-6.66699 -40 -10 -88.6689 -10 -146.002v-578h-181v280c-15.333 -22.667 -36.5 -40.334 -63.5 -53.001s-56.833 -19 -89.5 -19c-43.333 0 -82 10.667 -116 32s-60.5 51.833 -79.5 91.5s-28.5 85.5 -28.5 137.5c0 52.667 9.66699 99.334 29 140.001
s46 72.334 80 95.001s72.333 34 115 34c36 0 68.833 -8.16699 98.5 -24.5s51.167 -38.166 64.5 -65.499l10 76h171zM385 159.998c17.333 22 26 53.668 26 95.001c0 42 -8.66699 74.167 -26 96.5s-42 33.5 -74 33.5c-31.333 0 -56 -11.5 -74 -34.5s-27 -55.5 -27 -97.5
c0 -40.667 8.66699 -71.834 26 -93.501s42.333 -32.5 75 -32.5c32 0 56.667 11 74 33z" />
    <glyph glyph-name="r" unicode="r" horiz-adv-x="430" 
d="M432 509l0.000976562 -165.001c-28.667 13.333 -56.334 20 -83.001 20c-76 0 -114 -36.333 -114 -109v-255h-181v362c0 54.667 -2.66699 103.334 -8 146.001h170l11 -85c12 31.333 31.333 55.333 58 72s56.667 25 90 25c24.667 0 43.667 -3.66699 57 -11z" />
    <glyph glyph-name="s" unicode="s" horiz-adv-x="507" 
d="M19 53l45.999 123c27.333 -18.667 58.333 -33.167 93 -43.5s68.667 -15.5 102 -15.5c20.667 0 36.667 3 48 9s17 14.333 17 25c0 9.33301 -4.16699 16.833 -12.5 22.5s-24.166 10.834 -47.499 15.501l-82 19c-52 10.667 -89.5 27.5 -112.5 50.5s-34.5 54.833 -34.5 95.5
c0 32.667 9.66699 61.667 29 87s46.166 45.166 80.499 59.499s73.833 21.5 118.5 21.5c36.667 0 72.667 -5.33301 108 -16s68.333 -25.667 99 -45l-48 -120c-26.667 17.333 -54 30.666 -82 39.999s-54.333 14 -79 14c-20 0 -35.667 -3.16699 -47 -9.5s-17 -15.5 -17 -27.5
c0 -7.33301 3.33301 -13.166 10 -17.499s19.334 -8.83301 38.001 -13.5l85 -19c54 -12.667 92.833 -31.167 116.5 -55.5s35.5 -57.5 35.5 -99.5c0 -50 -19.833 -89.333 -59.5 -118s-94.5 -43 -164.5 -43c-101.333 0 -181.333 20.333 -240 61z" />
    <glyph glyph-name="t" unicode="t" horiz-adv-x="416" 
d="M402 144l0.00195312 -137.001c-24.667 -10 -56 -15 -94 -15c-68.667 0 -120.834 19.333 -156.501 58s-53.5 92.334 -53.5 161.001v164h-95v133h95v115l181 58v-173h122v-133h-122v-164c0 -24 7.16699 -42.167 21.5 -54.5s32.166 -18.5 53.499 -18.5c12 0 28 2 48 6z" />
    <glyph glyph-name="u" unicode="u" horiz-adv-x="619" 
d="M565 508l0.000976562 -508h-177v68c-32.667 -50.667 -81 -76 -145 -76c-64.667 0 -112.834 18 -144.501 54s-47.5 91 -47.5 165v297h181v-302c0 -50 21.667 -75 65 -75c25.333 0 45.833 9 61.5 27s23.5 42 23.5 72v278h183z" />
    <glyph glyph-name="v" unicode="v" horiz-adv-x="559" 
d="M401 507h178l-226 -507h-149l-223 507h188l114 -292z" />
    <glyph glyph-name="w" unicode="w" horiz-adv-x="900" 
d="M736 508h174l-212 -508h-149l-102 252l-96 -252h-150l-212 508h184l113 -293l110 293h116l113 -299z" />
    <glyph glyph-name="x" unicode="x" horiz-adv-x="567" 
d="M386 262l217 -262h-212l-108 136l-108 -136h-211l217 262l-204 246h212l94 -122l93 122h214z" />
    <glyph glyph-name="y" unicode="y" horiz-adv-x="559" 
d="M579 508l-233 -525.999c-30.667 -68.667 -69.167 -118.834 -115.5 -150.501s-103.5 -51.5 -171.5 -59.5l-42 138c46.667 9.33301 81.667 21.333 105 36s41 35 53 61l13 28l-207 473h188l114 -293l118 293h178z" />
    <glyph glyph-name="z" unicode="z" horiz-adv-x="535" 
d="M258 134h246v-134h-457v127l230 248h-229v133h446v-119z" />
    <glyph glyph-name="braceleft" unicode="{" horiz-adv-x="438" 
d="M290.5 307.5c-17.667 -23 -37.834 -37.1689 -60.501 -42.502c22.667 -5.33301 42.834 -19.666 60.501 -42.999s26.5 -50.666 26.5 -81.999v-90c0 -30.667 7.33301 -54.667 22 -72s32 -26 52 -26h30v-134h-66c-69.333 0 -122.5 16.167 -159.5 48.5s-55.5 79.5 -55.5 141.5
v85c0 37.333 -4 63.5 -12 78.5s-22.667 26.5 -44 34.5l-48 16v84l48 17c21.333 8 36 19.5 44 34.5s12 40.833 12 77.5v87c0 62 18.333 109.167 55 141.5s90 48.5 160 48.5h66v-134h-30c-20 0 -37.333 -8.33301 -52 -25s-22 -41 -22 -73v-92
c0 -30.667 -8.83301 -57.5 -26.5 -80.5z" />
    <glyph glyph-name="bar" unicode="|" horiz-adv-x="305" 
d="M69 -182v894h166v-894h-166z" />
    <glyph glyph-name="braceright" unicode="}" horiz-adv-x="438" 
d="M402 306v-83.998l-48 -16c-20.667 -8 -35.167 -19.5 -43.5 -34.5s-12.5 -41.167 -12.5 -78.5v-85c0 -62 -18.5 -109.167 -55.5 -141.5s-90.167 -48.5 -159.5 -48.5h-66v134h31c19.333 0 36.333 8.66699 51 26s22 41.333 22 72v90c0 31.333 8.83301 58.666 26.5 81.999
s37.834 37.666 60.501 42.999c-22.667 5.33301 -42.834 19.5 -60.501 42.5s-26.5 49.833 -26.5 80.5v92c0 32 -7.33301 56.333 -22 73s-31.667 25 -51 25h-31v134h66c70 0 123.333 -16.167 160 -48.5s55 -79.5 55 -141.5v-87c0 -36.667 4.16699 -62.5 12.5 -77.5
s22.833 -26.5 43.5 -34.5z" />
    <glyph glyph-name="asciitilde" unicode="~" horiz-adv-x="600" 
d="M546 315c-10 -34 -28.3311 -61.5 -54.998 -82.5s-55.667 -31.5 -87 -31.5c-18.667 0 -36.834 3.16699 -54.501 9.5s-39.834 16.166 -66.501 29.499c-19.333 9.33301 -34.5 16.166 -45.5 20.499s-21.167 6.5 -30.5 6.5c-30 0 -51.667 -20 -65 -60l-88 60
c10 34.667 28.333 62.334 55 83.001s55.667 31 87 31c19.333 0 38 -3.16699 56 -9.5s39.667 -15.833 65 -28.5c19.333 -9.33301 34.5 -16.166 45.5 -20.499s21.167 -6.5 30.5 -6.5c30 0 51.667 19.333 65 58z" />
    <glyph glyph-name="uni00A0" unicode="&#xa0;" horiz-adv-x="290" 
 />
    <glyph glyph-name="exclamdown" unicode="&#xa1;" horiz-adv-x="276" 
d="M43 312v185h189v-185h-189zM83 250h110l56 -431l-223 -1z" />
    <glyph glyph-name="cent" unicode="&#xa2;" horiz-adv-x="600" 
d="M551 53c-26.667 -22.667 -62.668 -39.335 -108.001 -50.002v-122h-143v114c-70.667 8.66699 -126.334 35.834 -167.001 81.501s-61 104.5 -61 176.5c0 70 20.833 129 62.5 177s96.834 77.333 165.501 88v113h143v-120c43.333 -10 79.333 -26.667 108 -50l-47 -125
c-17.333 14 -37.666 25.333 -60.999 34v-229c24 8.66699 44.333 20.334 61 35.001zM299.999 148.999v214c-28 -20.667 -42 -56 -42 -106c0 -50.667 14 -86.667 42 -108z" />
    <glyph glyph-name="sterling" unicode="&#xa3;" horiz-adv-x="600" 
d="M276.5 195c-5.66699 -18 -15.1641 -33.334 -28.4971 -46.001h328v-149h-540v126c25.333 13.333 42.166 27.833 50.499 43.5s12.5 39.5 12.5 71.5v62h-63v107h63v107c0 40 10.333 75.5 31 106.5s49.5 55 86.5 72s79.167 25.5 126.5 25.5s92.166 -6.5 134.499 -19.5
s79.166 -31.5 110.499 -55.5l-58 -133c-32.667 20.667 -63.5 36.334 -92.5 47.001s-54.833 16 -77.5 16c-50 0 -75 -24 -75 -72v-94h154v-107h-154v-40c0 -27.333 -2.83301 -50 -8.5 -68z" />
    <glyph glyph-name="currency" unicode="&#xa4;" horiz-adv-x="600" 
d="M498 104l55 -58l-60 -59l-54 56c-42 -30.667 -89.333 -46 -142 -46c-50.667 0 -97 14.667 -139 44l-54 -55l-62 60l55 57c-30 44 -45 92 -45 144c0 52.667 15 101 45 145l-55 56l63 62l54 -55c41.333 28.667 87.333 43 138 43c50 0 95.667 -14.333 137 -43l55 58l68 -68
l-57 -57c28 -41.333 42 -88.333 42 -141c0 -53.333 -14.667 -101 -44 -143zM370.5 169c20.333 22 30.501 48.001 30.501 78.001c0 30.667 -10.333 57 -31 79s-45.334 33 -74.001 33s-53 -11 -73 -33s-30 -48.333 -30 -79s10 -56.834 30 -78.501s45 -32.5 75 -32.5
c28 0 52.167 11 72.5 33z" />
    <glyph glyph-name="yen" unicode="&#xa5;" horiz-adv-x="600" 
d="M633 712l-198 -298h104v-106h-145v-50h145v-106h-145v-152h-189v152h-144v106h144v50h-144v106h103l-197 298h200l133 -219l133 219h200z" />
    <glyph glyph-name="brokenbar" unicode="&#xa6;" horiz-adv-x="305" 
d="M69 375v337h166v-337h-166zM69 -182v338h166v-338h-166z" />
    <glyph glyph-name="section" unicode="&#xa7;" horiz-adv-x="604" 
d="M506 94c20 -28.667 30.001 -56.6631 30.001 -83.9961c0 -64.667 -21.5 -114 -64.5 -148s-104.833 -51 -185.5 -51c-48 0 -91.833 5.16699 -131.5 15.5s-72.834 25.5 -99.501 45.5l45 123c26.667 -16.667 55.5 -29.834 86.5 -39.501s60.167 -14.5 87.5 -14.5
c25.333 0 46 4.83301 62 14.5s24 22.167 24 37.5c0 11.333 -4 21.166 -12 29.499s-21.667 17.166 -41 26.499l-146 64c-45.333 19.333 -79 43.333 -101 72s-33 63.667 -33 105c0 59.333 24 108.333 72 147c-20.667 28 -31 55.667 -31 83c0 61.333 22.833 109.833 68.5 145.5
s108.167 53.5 187.5 53.5c82.667 0 151.667 -19 207 -57l-45 -119c-22 14.667 -46.5 26.167 -73.5 34.5s-53.5 12.5 -79.5 12.5c-28 0 -49.833 -4.5 -65.5 -13.5s-23.5 -21.833 -23.5 -38.5c0 -22.667 17.333 -41.334 52 -56.001l146 -65c90 -38 135 -96.667 135 -176
c0 -60 -23.667 -109 -71 -147zM407.001 174.004l3 -2.00098c5.33301 10.667 8 19.667 8 27c0 17.333 -6.33301 34 -19 50s-30 29 -52 39l-150 72l-3 1c-6 -13.333 -9 -23.333 -9 -30c0 -17.333 6.16699 -33.666 18.5 -48.999s29.5 -28.333 51.5 -39z" />
    <glyph glyph-name="dieresis" unicode="&#xa8;" horiz-adv-x="300" 
d="M-29 740h160v-152h-160v152zM172 740h160v-152h-160v152z" />
    <glyph glyph-name="copyright" unicode="&#xa9;" horiz-adv-x="823" 
d="M228.5 43c-55 32 -98.333 75.499 -130 130.499s-47.5 116.167 -47.5 183.5s15.833 128.333 47.5 183s75 97.834 130 129.501s116.167 47.5 183.5 47.5s128.5 -15.833 183.5 -47.5s98.333 -75 130 -130s47.5 -115.833 47.5 -182.5c0 -67.333 -15.833 -128.5 -47.5 -183.5
s-75.167 -98.5 -130.5 -130.5s-116.333 -48 -183 -48c-67.333 0 -128.5 16 -183.5 48zM559.5 102.999c43.667 25.333 77.834 60.166 102.501 104.499s37 94.166 37 149.499c0 54.667 -12.333 104 -37 148s-58.834 78.667 -102.501 104s-92.834 38 -147.501 38
c-55.333 0 -104.833 -12.5 -148.5 -37.5s-77.834 -59.667 -102.501 -104s-37 -93.833 -37 -148.5c0 -55.333 12.333 -105.166 37 -149.499s58.834 -79.166 102.501 -104.499s93.167 -38 148.5 -38c54.667 0 103.834 12.667 147.501 38zM264 197.499
c-40.667 39.667 -61 92.832 -61 159.499c0 66 20.333 118.667 61 158s95.667 59 165 59c67.333 0 120.333 -15.333 159 -46l-38 -109c-10 6.66699 -24.167 13.5 -42.5 20.5s-35.5 10.5 -51.5 10.5c-28 0 -50.167 -8.16699 -66.5 -24.5s-24.5 -39.166 -24.5 -68.499
c0 -30 8.16699 -53.333 24.5 -70s38.5 -25 66.5 -25c16 0 33.167 3.5 51.5 10.5s32.5 13.833 42.5 20.5l38 -109c-42 -30.667 -95 -46 -159 -46c-69.333 0 -124.333 19.833 -165 59.5z" />
    <glyph glyph-name="ordfeminine" unicode="&#xaa;" horiz-adv-x="346" 
d="M294.5 681c25.667 -24 38.5 -60.999 38.5 -110.999v-162h-137v51c-6.66699 -18.667 -17.334 -32.667 -32.001 -42s-31.667 -14 -51 -14c-29.333 0 -53.833 10.167 -73.5 30.5s-29.5 43.166 -29.5 68.499c0 28.667 12.167 50.167 36.5 64.5s64.833 21.5 121.5 21.5h25v8
c0 5.33301 -2.83301 9.33301 -8.5 12s-15.5 4 -29.5 4c-30.667 0 -62 -6.66699 -94 -20l-25 101c38.667 16 84.667 24 138 24c54.667 0 94.834 -12 120.501 -36zM193 522.001v2.99902h-8c-30 0 -45 -6 -45 -18c0 -3.33301 2 -6.16602 6 -8.49902s9.66699 -3.5 17 -3.5
c20 0 30 9 30 27z" />
    <glyph glyph-name="guillemotleft" unicode="&#xab;" horiz-adv-x="565" 
d="M157 84l-138 183l137 185h148l-132 -184l131 -184h-146zM398 84l-138 183l137 185h148l-132 -184l131 -184h-146z" />
    <glyph glyph-name="logicalnot" unicode="&#xac;" horiz-adv-x="600" 
d="M546 451v-321h-125v199h-367v122h492z" />
    <glyph glyph-name="uni00AD" unicode="&#xad;" horiz-adv-x="450" 
d="M64 201v140h324v-140h-324z" />
    <glyph glyph-name="registered" unicode="&#xae;" horiz-adv-x="823" 
d="M595.5 669.5c55 -31.667 98.333 -75.001 130 -130.001s47.5 -115.833 47.5 -182.5c0 -67.333 -15.833 -128.5 -47.5 -183.5s-75.167 -98.5 -130.5 -130.5s-116.333 -48 -183 -48c-67.333 0 -128.5 16 -183.5 48s-98.333 75.5 -130 130.5s-47.5 116.167 -47.5 183.5
s15.833 128.333 47.5 183s75 97.834 130 129.501s116.167 47.5 183.5 47.5s128.5 -15.833 183.5 -47.5zM681 249.999c12 33.333 18.002 68.9961 18.002 106.996c0 54.667 -12.333 104 -37 148s-58.834 78.667 -102.501 104s-92.834 38 -147.501 38
c-55.333 0 -104.833 -12.5 -148.5 -37.5s-77.834 -59.667 -102.501 -104s-37 -93.833 -37 -148.5c0 -55.333 12.333 -105.166 37 -149.499s58.834 -79.166 102.501 -104.499s93.167 -38 148.5 -38c40 0 77 6.83301 111 20.5s64 32.834 90 57.501h-151l-63 138
c0 2 -0.5 3.83301 -1.5 5.5s-1.83301 2.5 -2.5 2.5h-11v-146h-158v428h214c54 0 95.5 -12.667 124.5 -38s43.5 -59.333 43.5 -102c0 -31.333 -8.5 -58.666 -25.5 -81.999s-41.5 -39.666 -73.5 -48.999c16 -1.33301 31.333 -6.33301 46 -15s26 -21 34 -37l41 -86
c22 25.333 39 54.666 51 87.999zM449.502 401.995c6.33301 4 9.5 11.001 9.5 21.001c0 11.333 -3.16699 19.166 -9.5 23.499s-16.5 6.5 -30.5 6.5h-37v-57h37c14 0 24.167 2 30.5 6z" />
    <glyph glyph-name="macron" unicode="&#xaf;" horiz-adv-x="300" 
d="M-9 610v108h321v-108h-321z" />
    <glyph glyph-name="degree" unicode="&#xb0;" horiz-adv-x="373" 
d="M106 428c-24 13.333 -43 31.833 -57 55.5s-21 50.167 -21 79.5c0 28.667 7 54.834 21 78.501s33 42.167 57 55.5s50.667 20 80 20s56.166 -6.66699 80.499 -20s43.333 -31.833 57 -55.5s20.5 -49.834 20.5 -78.501c0 -29.333 -6.83301 -55.833 -20.5 -79.5
s-32.667 -42.167 -57 -55.5s-51.166 -20 -80.499 -20s-56 6.66699 -80 20zM233 514.5c12.667 13 19 29.167 19 48.5s-6.33301 35.333 -19 48s-28.334 19 -47.001 19c-18 0 -33.333 -6.16699 -46 -18.5s-19 -28.5 -19 -48.5s6.33301 -36.333 19 -49s28 -19 46 -19
c18.667 0 34.334 6.5 47.001 19.5z" />
    <glyph glyph-name="plusminus" unicode="&#xb1;" horiz-adv-x="600" 
d="M361 406h185v-122h-185v-132h-122v132h-185v122h185v131h122v-131zM54 0v121h492v-121h-492z" />
    <glyph glyph-name="uni00B2" unicode="&#xb2;" horiz-adv-x="380" 
d="M357 404l0.00195312 -119h-318v112l129 133c18 20.667 27 37 27 49c0 15.333 -12.667 23 -38 23c-34 0 -71 -10.333 -111 -31l-20 111c19.333 10 44.166 18.167 74.499 24.5s59.166 9.5 86.499 9.5c48.667 0 88 -11.5 118 -34.5s45 -53.833 45 -92.5
c0 -24 -6 -46.5 -18 -67.5s-34.333 -45.833 -67 -74.5l-52 -43h144z" />
    <glyph glyph-name="uni00B3" unicode="&#xb3;" horiz-adv-x="380" 
d="M343 468c14 -18 21 -39.665 21 -64.998c0 -21.333 -6.66699 -41.5 -20 -60.5s-33.5 -34.167 -60.5 -45.5s-60.5 -17 -100.5 -17c-28.667 0 -58.167 3 -88.5 9s-55.166 14 -74.499 24l19 111c38.667 -20 81.667 -30 129 -30c19.333 0 32.833 2 40.5 6s11.5 10 11.5 18
c0 16 -14.333 24 -43 24h-78v116h66c16.667 0 27.834 1.5 33.501 4.5s8.5 8.83301 8.5 17.5c0 6.66699 -3.5 12 -10.5 16s-17.5 6 -31.5 6c-18.667 0 -38.5 -2.83301 -59.5 -8.5s-40.833 -13.167 -59.5 -22.5l-20 111c19.333 10 43.666 18.167 72.999 24.5
s55.666 9.5 78.999 9.5c54.667 0 97 -11.667 127 -35s45 -52.333 45 -87c0 -20.667 -5.5 -38.834 -16.5 -54.501s-27.167 -26.834 -48.5 -33.501c24.667 -7.33301 44 -20 58 -38z" />
    <glyph glyph-name="acute" unicode="&#xb4;" horiz-adv-x="300" 
d="M206 562h-109l98 208h172z" />
    <glyph glyph-name="uni00B5" unicode="&#xb5;" horiz-adv-x="619" 
d="M565 508v-508h-177v68c-32.667 -50.667 -81 -76 -145 -76h-11v-208h-181v724h181v-302c0 -50 21.667 -75 65 -75c25.333 0 45.833 9 61.5 27s23.5 42 23.5 72v278h183z" />
    <glyph glyph-name="paragraph" unicode="&#xb6;" horiz-adv-x="658" 
d="M593 -182h-115.002v791h-103v-791h-116v432c-46 0 -86.667 9.66699 -122 29s-62.666 46.5 -81.999 81.5s-29 75.5 -29 121.5s9.83301 86.333 29.5 121s47.334 61.5 83.001 80.5s77.167 28.5 124.5 28.5h330v-894z" />
    <glyph glyph-name="periodcentered" unicode="&#xb7;" horiz-adv-x="276" 
d="M43 365h189v-186h-189v186z" />
    <glyph glyph-name="cedilla" unicode="&#xb8;" horiz-adv-x="300" 
d="M252 -59c15.333 -12.667 23.0039 -29.668 23.0039 -51.001c0 -27.333 -12.333 -49.166 -37 -65.499s-60.334 -24.5 -107.001 -24.5c-14.667 0 -30.834 1.5 -48.501 4.5s-33.834 7.16699 -48.501 12.5l11 65c36 -9.33301 62.667 -14 80 -14c28.667 0 43 7.33301 43 22
c0 11.333 -10.667 17 -32 17c-8 0 -18.667 -1.66699 -32 -5l-20 22l13 96h92l-9 -60h8c27.333 0 48.666 -6.33301 63.999 -19z" />
    <glyph glyph-name="uni00B9" unicode="&#xb9;" horiz-adv-x="380" 
d="M295 404h83v-119h-320v119h83v148l-78 -39v134l125 65h107v-308z" />
    <glyph glyph-name="ordmasculine" unicode="&#xba;" horiz-adv-x="391" 
d="M59 448.5c-30.667 30.333 -46 67.833 -46 112.5c0 43.333 15.333 80.166 46 110.499s76.334 45.5 137.001 45.5s106.167 -15.167 136.5 -45.5s45.5 -67.166 45.5 -110.499c0 -44.667 -15.167 -82.167 -45.5 -112.5s-75.833 -45.5 -136.5 -45.5
s-106.334 15.167 -137.001 45.5zM224 528c7.33301 8 11.002 19 11.002 33c0 28 -13 42 -39 42s-39 -14 -39 -42c0 -14 3.66699 -25 11 -33s16.666 -12 27.999 -12s20.666 4 27.999 12z" />
    <glyph glyph-name="guillemotright" unicode="&#xbb;" horiz-adv-x="565" 
d="M168 84h-147l132 184l-133 184h149l136 -185zM409 84h-147l132 184l-133 184h149l136 -185z" />
    <glyph glyph-name="onequarter" unicode="&#xbc;" horiz-adv-x="973" 
d="M636 744l114 -66l-413 -710l-114 66l146 251h-311v119h83v148l-78 -39v134l125 65h107v-308h83v-104zM974 165v-109h-59v-56h-133v56h-186v105l200 266h119v-262h59zM716 165h66v84z" />
    <glyph glyph-name="onehalf" unicode="&#xbd;" horiz-adv-x="973" 
d="M636 744l114 -66l-413 -710l-114 66l146 251h-311v119h83v148l-78 -39v134l125 65h107v-308h83v-104zM950 119l0.00195312 -119h-318v112l129 133c18 20.667 27 37 27 49c0 15.333 -12.667 23 -38 23c-34 0 -71 -10.333 -111 -31l-20 111
c19.333 10 44.166 18.167 74.499 24.5s59.166 9.5 86.499 9.5c48.667 0 88 -11.5 118 -34.5s45 -53.833 45 -92.5c0 -24 -6 -46.5 -18 -67.5s-34.333 -45.833 -67 -74.5l-52 -43h144z" />
    <glyph glyph-name="threequarters" unicode="&#xbe;" horiz-adv-x="973" 
d="M343 468c14 -18 21 -39.665 21 -64.998c0 -21.333 -6.66699 -41.5 -20 -60.5s-33.5 -34.167 -60.5 -45.5s-60.5 -17 -100.5 -17c-28.667 0 -58.167 3 -88.5 9s-55.166 14 -74.499 24l19 111c38.667 -20 81.667 -30 129 -30c19.333 0 32.833 2 40.5 6s11.5 10 11.5 18
c0 16 -14.333 24 -43 24h-78v116h66c16.667 0 27.834 1.5 33.501 4.5s8.5 8.83301 8.5 17.5c0 6.66699 -3.5 12 -10.5 16s-17.5 6 -31.5 6c-18.667 0 -38.5 -2.83301 -59.5 -8.5s-40.833 -13.167 -59.5 -22.5l-20 111c19.333 10 43.666 18.167 72.999 24.5
s55.666 9.5 78.999 9.5c54.667 0 97 -11.667 127 -35s45 -52.333 45 -87c0 -20.667 -5.5 -38.834 -16.5 -54.501s-27.167 -26.834 -48.5 -33.501c24.667 -7.33301 44 -20 58 -38zM337 -31.998l-114 66l413 710l114 -66zM974 165.002v-109h-59v-56h-133v56h-186v105l200 266
h119v-262h59zM716 165.002h66v84z" />
    <glyph glyph-name="questiondown" unicode="&#xbf;" horiz-adv-x="484" 
d="M150 312v185h188v-185h-188zM120 -169.5c-35.333 13.667 -63.501 33.8301 -84.501 60.4971s-31.5 58.667 -31.5 96c0 22.667 5 42.834 15 60.501s22 32.667 36 45s32.667 26.833 56 43.5c24 17.333 41.833 31.5 53.5 42.5s19.167 23.5 22.5 37.5l7 40h106v-62
c0 -31.333 -6.16699 -56.166 -18.5 -74.499s-29.5 -36.5 -51.5 -54.5c-14.667 -12 -25.334 -22.167 -32.001 -30.5s-10 -18.166 -10 -29.499c0 -33.333 21 -50 63 -50c46.667 0 94.334 15 143.001 45v-147c-45.333 -28.667 -98.333 -43 -159 -43
c-41.333 0 -79.666 6.83301 -114.999 20.5z" />
    <glyph glyph-name="Agrave" unicode="&#xc0;" horiz-adv-x="769" 
d="M607 0l-63 147h-316l-63 -147h-188l333 712h148l334 -712h-185zM289 288h194l-97 225zM329 773l-157 158h162l104 -158h-109z" />
    <glyph glyph-name="Aacute" unicode="&#xc1;" horiz-adv-x="769" 
d="M607 0l-63 147h-316l-63 -147h-188l333 712h148l334 -712h-185zM289 288h194l-97 225zM438 773h-109l104 158h162z" />
    <glyph glyph-name="Acircumflex" unicode="&#xc2;" horiz-adv-x="769" 
d="M607 0l-63 147h-316l-63 -147h-188l333 712h148l334 -712h-185zM289 288h194l-97 225zM326 773h-131l139 158h99l139 -158h-131l-57 78z" />
    <glyph glyph-name="Atilde" unicode="&#xc3;" horiz-adv-x="769" 
d="M607 0l-63 147h-316l-63 -147h-188l333 712h148l334 -712h-185zM289 288h194l-97 225zM236 894.5c22 26.333 50 39.5 84 39.5c11.333 0 22.333 -2.16699 33 -6.5s24 -11.166 40 -20.499c12.667 -7.33301 23.334 -13 32.001 -17s17 -6 25 -6c11.333 0 20.666 4 27.999 12
s12 19.667 14 35h72c0 -54 -11 -94.167 -33 -120.5s-50 -39.5 -84 -39.5c-11.333 0 -22.333 2.16699 -33 6.5s-24 11.166 -40 20.499c-12.667 7.33301 -23.334 13 -32.001 17s-17 6 -25 6c-11.333 0 -20.666 -4 -27.999 -12s-12 -19.667 -14 -35h-72
c0 54 11 94.167 33 120.5z" />
    <glyph glyph-name="Adieresis" unicode="&#xc4;" horiz-adv-x="769" 
d="M607 0l-63 147h-316l-63 -147h-188l333 712h148l334 -712h-185zM289 288h194l-97 225zM203 928h160v-151h-160v151zM404 928h160v-151h-160v151z" />
    <glyph glyph-name="Aring" unicode="&#xc5;" horiz-adv-x="769" 
d="M544 147l-315.999 0.000976562l-63 -147h-188l330 706c-11.333 10 -20.166 22.167 -26.499 36.5s-9.5 29.5 -9.5 45.5c0 30.667 11.167 56.834 33.5 78.501s49.166 32.5 80.499 32.5s58.166 -10.833 80.499 -32.5s33.5 -47.834 33.5 -78.501
c0 -16.667 -3.33301 -32.334 -10 -47.001s-15.667 -27 -27 -37l330 -704h-185zM355.001 818.501c-8 -8.33301 -12 -18.5 -12 -30.5s4 -22.5 12 -31.5s18 -13.5 30 -13.5s22 4.5 30 13.5s12 19.5 12 31.5s-4 22.167 -12 30.5s-18 12.5 -30 12.5s-22 -4.16699 -30 -12.5z
M289.001 288.001h194l-97 225z" />
    <glyph glyph-name="AE" unicode="&#xc6;" horiz-adv-x="1014" 
d="M982 568h-303l8 -134h274v-144h-264l9 -146h276v-144h-437l-9 147h-289l-87 -147h-203l454 712h571v-144zM528 288l-17 280h-13l-167 -280h197z" />
    <glyph glyph-name="Ccedilla" unicode="&#xc7;" horiz-adv-x="685" 
d="M558 16.5c-38.667 -13.667 -79.3311 -21.833 -121.998 -24.5l-5 -32h8c27.333 0 48.666 -6.33301 63.999 -19s23 -29.667 23 -51c0 -27.333 -12.333 -49.166 -37 -65.499s-60.334 -24.5 -107.001 -24.5c-14.667 0 -30.834 1.5 -48.501 4.5s-33.834 7.16699 -48.501 12.5
l11 65c36 -9.33301 62.667 -14 80 -14c28.667 0 43 7.33301 43 22c0 11.333 -10.667 17 -32 17c-8 0 -18.667 -1.66699 -32 -5l-20 22l10 71c-62 8.66699 -115.5 29.167 -160.5 61.5s-79.5 74.166 -103.5 125.499s-36 109.666 -36 174.999c0 72 14.833 135.5 44.5 190.5
s72 97.667 127 128s119.5 45.5 193.5 45.5c46.667 0 91.834 -7 135.501 -21s78.834 -33 105.501 -57l-57 -133c-58 42 -118 63 -180 63c-57.333 0 -101.333 -18.167 -132 -54.5s-46 -90.166 -46 -161.499c0 -72 15.333 -126.333 46 -163s74.667 -55 132 -55
c62 0 122 21 180 63l57 -133c-23.333 -21.333 -54.333 -38.833 -93 -52.5z" />
    <glyph glyph-name="Egrave" unicode="&#xc8;" horiz-adv-x="604" 
d="M64 0v712h508v-144h-325v-134h304v-144h-304v-146h325v-144h-508zM281 773l-157 158h162l104 -158h-109z" />
    <glyph glyph-name="Eacute" unicode="&#xc9;" horiz-adv-x="604" 
d="M64 0v712h508v-144h-325v-134h304v-144h-304v-146h325v-144h-508zM390 773h-109l104 158h162z" />
    <glyph glyph-name="Ecircumflex" unicode="&#xca;" horiz-adv-x="604" 
d="M64 0v712h508v-144h-325v-134h304v-144h-304v-146h325v-144h-508zM278 773h-131l139 158h99l139 -158h-131l-57 78z" />
    <glyph glyph-name="Edieresis" unicode="&#xcb;" horiz-adv-x="604" 
d="M64 0v712h508v-144h-325v-134h304v-144h-304v-146h325v-144h-508zM155 928h160v-151h-160v151zM356 928h160v-151h-160v151z" />
    <glyph glyph-name="Igrave" unicode="&#xcc;" horiz-adv-x="316" 
d="M64 0v712h188v-712h-188zM102 773l-157 158h162l104 -158h-109z" />
    <glyph glyph-name="Iacute" unicode="&#xcd;" horiz-adv-x="316" 
d="M64 0v712h188v-712h-188zM211 773h-109l104 158h162z" />
    <glyph glyph-name="Icircumflex" unicode="&#xce;" horiz-adv-x="316" 
d="M64 0v712h188v-712h-188zM99 773h-131l139 158h99l139 -158h-131l-57 78z" />
    <glyph glyph-name="Idieresis" unicode="&#xcf;" horiz-adv-x="316" 
d="M64 0v712h188v-712h-188zM-24 928h160v-151h-160v151zM177 928h160v-151h-160v151z" />
    <glyph glyph-name="Eth" unicode="&#xd0;" horiz-adv-x="818" 
d="M596 669.5c56.667 -28.333 100.166 -69.168 130.499 -122.501s45.5 -116.666 45.5 -189.999c0 -74 -15 -137.833 -45 -191.5s-73.5 -94.667 -130.5 -123s-124.833 -42.5 -203.5 -42.5h-292v289h-84v140h84v283h292c78.667 0 146.334 -14.167 203.001 -42.5z
M533.999 201.498c34 34.333 51 86.167 51 155.5c0 136.667 -68.667 205 -206 205h-90v-133h184v-140h-184v-139h90c69.333 0 121 17.167 155 51.5z" />
    <glyph glyph-name="Ntilde" unicode="&#xd1;" horiz-adv-x="766" 
d="M524 712h177v-712h-139l-323 404v-404h-175v712h137l323 -402v402zM234 894.5c22 26.333 50 39.5 84 39.5c11.333 0 22.333 -2.16699 33 -6.5s24 -11.166 40 -20.499c12.667 -7.33301 23.334 -13 32.001 -17s17 -6 25 -6c11.333 0 20.666 4 27.999 12s12 19.667 14 35h72
c0 -54 -11 -94.167 -33 -120.5s-50 -39.5 -84 -39.5c-11.333 0 -22.333 2.16699 -33 6.5s-24 11.166 -40 20.499c-12.667 7.33301 -23.334 13 -32.001 17s-17 6 -25 6c-11.333 0 -20.666 -4 -27.999 -12s-12 -19.667 -14 -35h-72c0 54 11 94.167 33 120.5z" />
    <glyph glyph-name="Ograve" unicode="&#xd2;" horiz-adv-x="805" 
d="M213 35.5c-54 29.667 -95.501 72.167 -124.501 127.5s-43.5 120 -43.5 194s14.667 138.333 44 193s70.833 96.834 124.5 126.501s116.834 44.5 189.501 44.5s135.834 -14.833 189.501 -44.5s94.834 -71.834 123.501 -126.501s43 -119 43 -193s-14.333 -138.667 -43 -194
s-69.834 -97.833 -123.501 -127.5s-116.834 -44.5 -189.501 -44.5s-136 14.833 -190 44.5zM528.499 191c30.333 38 45.5 93.333 45.5 166c0 72 -15.167 126.833 -45.5 164.5s-72.166 56.5 -125.499 56.5s-95 -18.667 -125 -56s-45 -92.333 -45 -165
c0 -73.333 15 -128.833 45 -166.5s71.667 -56.5 125 -56.5s95.166 19 125.499 57zM346.999 773l-157 158h162l104 -158h-109z" />
    <glyph glyph-name="Oacute" unicode="&#xd3;" horiz-adv-x="805" 
d="M213 35.5c-54 29.667 -95.501 72.167 -124.501 127.5s-43.5 120 -43.5 194s14.667 138.333 44 193s70.833 96.834 124.5 126.501s116.834 44.5 189.501 44.5s135.834 -14.833 189.501 -44.5s94.834 -71.834 123.501 -126.501s43 -119 43 -193s-14.333 -138.667 -43 -194
s-69.834 -97.833 -123.501 -127.5s-116.834 -44.5 -189.501 -44.5s-136 14.833 -190 44.5zM528.499 191c30.333 38 45.5 93.333 45.5 166c0 72 -15.167 126.833 -45.5 164.5s-72.166 56.5 -125.499 56.5s-95 -18.667 -125 -56s-45 -92.333 -45 -165
c0 -73.333 15 -128.833 45 -166.5s71.667 -56.5 125 -56.5s95.166 19 125.499 57zM455.999 773h-109l104 158h162z" />
    <glyph glyph-name="Ocircumflex" unicode="&#xd4;" horiz-adv-x="805" 
d="M213 35.5c-54 29.667 -95.501 72.167 -124.501 127.5s-43.5 120 -43.5 194s14.667 138.333 44 193s70.833 96.834 124.5 126.501s116.834 44.5 189.501 44.5s135.834 -14.833 189.501 -44.5s94.834 -71.834 123.501 -126.501s43 -119 43 -193s-14.333 -138.667 -43 -194
s-69.834 -97.833 -123.501 -127.5s-116.834 -44.5 -189.501 -44.5s-136 14.833 -190 44.5zM528.499 191c30.333 38 45.5 93.333 45.5 166c0 72 -15.167 126.833 -45.5 164.5s-72.166 56.5 -125.499 56.5s-95 -18.667 -125 -56s-45 -92.333 -45 -165
c0 -73.333 15 -128.833 45 -166.5s71.667 -56.5 125 -56.5s95.166 19 125.499 57zM343.999 773h-131l139 158h99l139 -158h-131l-57 78z" />
    <glyph glyph-name="Otilde" unicode="&#xd5;" horiz-adv-x="805" 
d="M213 35.5c-54 29.667 -95.501 72.167 -124.501 127.5s-43.5 120 -43.5 194s14.667 138.333 44 193s70.833 96.834 124.5 126.501s116.834 44.5 189.501 44.5s135.834 -14.833 189.501 -44.5s94.834 -71.834 123.501 -126.501s43 -119 43 -193s-14.333 -138.667 -43 -194
s-69.834 -97.833 -123.501 -127.5s-116.834 -44.5 -189.501 -44.5s-136 14.833 -190 44.5zM528.499 191c30.333 38 45.5 93.333 45.5 166c0 72 -15.167 126.833 -45.5 164.5s-72.166 56.5 -125.499 56.5s-95 -18.667 -125 -56s-45 -92.333 -45 -165
c0 -73.333 15 -128.833 45 -166.5s71.667 -56.5 125 -56.5s95.166 19 125.499 57zM253.999 894.5c22 26.333 50 39.5 84 39.5c11.333 0 22.333 -2.16699 33 -6.5s24 -11.166 40 -20.499c12.667 -7.33301 23.334 -13 32.001 -17s17 -6 25 -6c11.333 0 20.666 4 27.999 12
s12 19.667 14 35h72c0 -54 -11 -94.167 -33 -120.5s-50 -39.5 -84 -39.5c-11.333 0 -22.333 2.16699 -33 6.5s-24 11.166 -40 20.499c-12.667 7.33301 -23.334 13 -32.001 17s-17 6 -25 6c-11.333 0 -20.666 -4 -27.999 -12s-12 -19.667 -14 -35h-72
c0 54 11 94.167 33 120.5z" />
    <glyph glyph-name="Odieresis" unicode="&#xd6;" horiz-adv-x="805" 
d="M213 35.5c-54 29.667 -95.501 72.167 -124.501 127.5s-43.5 120 -43.5 194s14.667 138.333 44 193s70.833 96.834 124.5 126.501s116.834 44.5 189.501 44.5s135.834 -14.833 189.501 -44.5s94.834 -71.834 123.501 -126.501s43 -119 43 -193s-14.333 -138.667 -43 -194
s-69.834 -97.833 -123.501 -127.5s-116.834 -44.5 -189.501 -44.5s-136 14.833 -190 44.5zM528.499 191c30.333 38 45.5 93.333 45.5 166c0 72 -15.167 126.833 -45.5 164.5s-72.166 56.5 -125.499 56.5s-95 -18.667 -125 -56s-45 -92.333 -45 -165
c0 -73.333 15 -128.833 45 -166.5s71.667 -56.5 125 -56.5s95.166 19 125.499 57zM220.999 928h160v-151h-160v151zM421.999 928h160v-151h-160v151z" />
    <glyph glyph-name="multiply" unicode="&#xd7;" horiz-adv-x="600" 
d="M536 441l-151 -150l151 -151l-85 -85l-151 151l-151 -151l-85 85l151 151l-151 150l85 86l151 -151l151 151z" />
    <glyph glyph-name="Oslash" unicode="&#xd8;" horiz-adv-x="805" 
d="M730 519c19.333 -48 29.002 -102.001 29.002 -162.001c0 -74 -14.333 -138.667 -43 -194s-69.834 -97.833 -123.501 -127.5s-116.834 -44.5 -189.501 -44.5c-44 0 -85 5.66699 -123 17l-50 -85l-118 71l47 80c-36.667 32 -64.834 72 -84.501 120s-29.5 102.333 -29.5 163
c0 74 14.667 138.333 44 193s70.833 96.834 124.5 126.501s116.834 44.5 189.501 44.5c42.667 0 83.667 -5.66699 123 -17l49 85l118 -71l-46 -79c36 -32 63.667 -72 83 -120zM253.002 235.999l195.999 337c-15.333 3.33301 -30.666 5 -45.999 5
c-53.333 0 -95 -18.667 -125 -56s-45 -92.333 -45 -165c0 -48 6.66699 -88.333 20 -121zM528.501 190.999c30.333 38 45.501 93.333 45.501 166c0 48.667 -7 89 -21 121l-197 -338c15.333 -4 31 -6 47 -6c53.333 0 95.166 19 125.499 57z" />
    <glyph glyph-name="Ugrave" unicode="&#xd9;" horiz-adv-x="752" 
d="M141 69.5c-53.333 52.333 -80 129.165 -80 230.498v412h183v-419c0 -51.333 11.5 -90.666 34.5 -117.999s55.833 -41 98.5 -41c42 0 74.333 13.833 97 41.5s34 66.834 34 117.501v419h185v-412c0 -100 -27.167 -176.5 -81.5 -229.5s-132.5 -79.5 -234.5 -79.5
c-104 0 -182.667 26.167 -236 78.5zM322 772.999l-157 158h162l104 -158h-109z" />
    <glyph glyph-name="Uacute" unicode="&#xda;" horiz-adv-x="752" 
d="M141 69.5c-53.333 52.333 -80 129.165 -80 230.498v412h183v-419c0 -51.333 11.5 -90.666 34.5 -117.999s55.833 -41 98.5 -41c42 0 74.333 13.833 97 41.5s34 66.834 34 117.501v419h185v-412c0 -100 -27.167 -176.5 -81.5 -229.5s-132.5 -79.5 -234.5 -79.5
c-104 0 -182.667 26.167 -236 78.5zM431 772.999h-109l104 158h162z" />
    <glyph glyph-name="Ucircumflex" unicode="&#xdb;" horiz-adv-x="752" 
d="M141 69.5c-53.333 52.333 -80 129.165 -80 230.498v412h183v-419c0 -51.333 11.5 -90.666 34.5 -117.999s55.833 -41 98.5 -41c42 0 74.333 13.833 97 41.5s34 66.834 34 117.501v419h185v-412c0 -100 -27.167 -176.5 -81.5 -229.5s-132.5 -79.5 -234.5 -79.5
c-104 0 -182.667 26.167 -236 78.5zM319 772.999h-131l139 158h99l139 -158h-131l-57 78z" />
    <glyph glyph-name="Udieresis" unicode="&#xdc;" horiz-adv-x="752" 
d="M141 69.5c-53.333 52.333 -80 129.165 -80 230.498v412h183v-419c0 -51.333 11.5 -90.666 34.5 -117.999s55.833 -41 98.5 -41c42 0 74.333 13.833 97 41.5s34 66.834 34 117.501v419h185v-412c0 -100 -27.167 -176.5 -81.5 -229.5s-132.5 -79.5 -234.5 -79.5
c-104 0 -182.667 26.167 -236 78.5zM196 927.999h160v-151h-160v151zM397 927.999h160v-151h-160v151z" />
    <glyph glyph-name="Yacute" unicode="&#xdd;" horiz-adv-x="657" 
d="M724 712l-301 -440v-272h-189v273l-299 439h212l180 -284l183 284h214zM382 773h-109l104 158h162z" />
    <glyph glyph-name="Thorn" unicode="&#xde;" horiz-adv-x="686" 
d="M592.5 518c44.333 -38 66.5 -90 66.5 -156s-22.333 -118 -67 -156s-106 -57 -184 -57h-160v-149h-184v712h184v-137h160c78.667 0 140.167 -19 184.5 -57zM458.5 307.5c17 11 25.499 29.167 25.499 54.5c0 24.667 -8.66699 42.5 -26 53.5s-44.666 16.5 -81.999 16.5h-128
v-141h128c38 0 65.5 5.5 82.5 16.5z" />
    <glyph glyph-name="germandbls" unicode="&#xdf;" horiz-adv-x="723" 
d="M654 298.5c34.667 -32.333 51.998 -75.8301 51.998 -130.497c0 -34.667 -9.33301 -65.334 -28 -92.001s-45 -47.334 -79 -62.001s-73.333 -22 -118 -22c-42.667 0 -82.167 5.16699 -118.5 15.5s-66.5 25.5 -90.5 45.5l47 128c22.667 -19.333 48.334 -34 77.001 -44
s57.667 -15 87 -15c20 0 34.833 5.33301 44.5 16s14.5 23.334 14.5 38.001c0 24.667 -17 47 -51 67s-90 39 -168 57v131c47.333 12.667 80.333 27.667 99 45s28 38.666 28 63.999c0 52 -30.667 78 -92 78c-39.333 0 -69.666 -11.833 -90.999 -35.5s-32 -59.5 -32 -107.5
v-475h-181v448c0 98 26 172.167 78 222.5s127.667 75.5 227 75.5c80.667 0 144.167 -17.333 190.5 -52s69.5 -83.334 69.5 -146.001c0 -36 -9.33301 -68 -28 -96s-52.667 -53 -102 -75c75.333 -20 130.333 -46.167 165 -78.5z" />
    <glyph glyph-name="agrave" unicode="&#xe0;" horiz-adv-x="643" 
d="M589 508v-508.002h-178v69c-14.667 -24 -36 -42.833 -64 -56.5s-58.667 -20.5 -92 -20.5c-43.333 0 -82 10.667 -116 32s-60.5 51.833 -79.5 91.5s-28.5 85.5 -28.5 137.5c0 52.667 9.66699 99.334 29 140.001s46 72.334 80 95.001s72.333 34 115 34
c33.333 0 63.833 -7.16699 91.5 -21.5s49.167 -33.5 64.5 -57.5v65h178zM385 159.998c17.333 22 26 53.668 26 95.001c0 42 -8.66699 74.167 -26 96.5s-42 33.5 -74 33.5c-31.333 0 -56 -11.5 -74 -34.5s-27 -55.5 -27 -97.5c0 -40.667 8.66699 -71.834 26 -93.501
s42.333 -32.5 75 -32.5c32 0 56.667 11 74 33zM266 572.999l-161 208h172l98 -208h-109z" />
    <glyph glyph-name="aacute" unicode="&#xe1;" horiz-adv-x="643" 
d="M589 508v-508.002h-178v69c-14.667 -24 -36 -42.833 -64 -56.5s-58.667 -20.5 -92 -20.5c-43.333 0 -82 10.667 -116 32s-60.5 51.833 -79.5 91.5s-28.5 85.5 -28.5 137.5c0 52.667 9.66699 99.334 29 140.001s46 72.334 80 95.001s72.333 34 115 34
c33.333 0 63.833 -7.16699 91.5 -21.5s49.167 -33.5 64.5 -57.5v65h178zM385 159.998c17.333 22 26 53.668 26 95.001c0 42 -8.66699 74.167 -26 96.5s-42 33.5 -74 33.5c-31.333 0 -56 -11.5 -74 -34.5s-27 -55.5 -27 -97.5c0 -40.667 8.66699 -71.834 26 -93.501
s42.333 -32.5 75 -32.5c32 0 56.667 11 74 33zM375 572.999h-109l98 208h172z" />
    <glyph glyph-name="acircumflex" unicode="&#xe2;" horiz-adv-x="643" 
d="M589 508v-508.002h-178v69c-14.667 -24 -36 -42.833 -64 -56.5s-58.667 -20.5 -92 -20.5c-43.333 0 -82 10.667 -116 32s-60.5 51.833 -79.5 91.5s-28.5 85.5 -28.5 137.5c0 52.667 9.66699 99.334 29 140.001s46 72.334 80 95.001s72.333 34 115 34
c33.333 0 63.833 -7.16699 91.5 -21.5s49.167 -33.5 64.5 -57.5v65h178zM385 159.998c17.333 22 26 53.668 26 95.001c0 42 -8.66699 74.167 -26 96.5s-42 33.5 -74 33.5c-31.333 0 -56 -11.5 -74 -34.5s-27 -55.5 -27 -97.5c0 -40.667 8.66699 -71.834 26 -93.501
s42.333 -32.5 75 -32.5c32 0 56.667 11 74 33zM268 572.999h-136l136 208h105l136 -208h-136l-52 106z" />
    <glyph glyph-name="atilde" unicode="&#xe3;" horiz-adv-x="643" 
d="M589 508v-508.002h-178v69c-14.667 -24 -36 -42.833 -64 -56.5s-58.667 -20.5 -92 -20.5c-43.333 0 -82 10.667 -116 32s-60.5 51.833 -79.5 91.5s-28.5 85.5 -28.5 137.5c0 52.667 9.66699 99.334 29 140.001s46 72.334 80 95.001s72.333 34 115 34
c33.333 0 63.833 -7.16699 91.5 -21.5s49.167 -33.5 64.5 -57.5v65h178zM385 159.998c17.333 22 26 53.668 26 95.001c0 42 -8.66699 74.167 -26 96.5s-42 33.5 -74 33.5c-31.333 0 -56 -11.5 -74 -34.5s-27 -55.5 -27 -97.5c0 -40.667 8.66699 -71.834 26 -93.501
s42.333 -32.5 75 -32.5c32 0 56.667 11 74 33zM173 719.499c22 26.333 50 39.5 84 39.5c11.333 0 22.333 -2.16699 33 -6.5s24 -11.166 40 -20.499c12.667 -7.33301 23.334 -13 32.001 -17s17 -6 25 -6c11.333 0 20.666 4 27.999 12s12 19.667 14 35h72
c0 -54 -11 -94.167 -33 -120.5s-50 -39.5 -84 -39.5c-11.333 0 -22.333 2.16699 -33 6.5s-24 11.166 -40 20.499c-12.667 7.33301 -23.334 13 -32.001 17s-17 6 -25 6c-11.333 0 -20.666 -4 -27.999 -12s-12 -19.667 -14 -35h-72c0 54 11 94.167 33 120.5z" />
    <glyph glyph-name="adieresis" unicode="&#xe4;" horiz-adv-x="643" 
d="M589 508v-508.002h-178v69c-14.667 -24 -36 -42.833 -64 -56.5s-58.667 -20.5 -92 -20.5c-43.333 0 -82 10.667 -116 32s-60.5 51.833 -79.5 91.5s-28.5 85.5 -28.5 137.5c0 52.667 9.66699 99.334 29 140.001s46 72.334 80 95.001s72.333 34 115 34
c33.333 0 63.833 -7.16699 91.5 -21.5s49.167 -33.5 64.5 -57.5v65h178zM385 159.998c17.333 22 26 53.668 26 95.001c0 42 -8.66699 74.167 -26 96.5s-42 33.5 -74 33.5c-31.333 0 -56 -11.5 -74 -34.5s-27 -55.5 -27 -97.5c0 -40.667 8.66699 -71.834 26 -93.501
s42.333 -32.5 75 -32.5c32 0 56.667 11 74 33zM140 750.999h160v-152h-160v152zM341 750.999h160v-152h-160v152z" />
    <glyph glyph-name="aring" unicode="&#xe5;" horiz-adv-x="643" 
d="M589 508v-508.002h-178v69c-14.667 -24 -36 -42.833 -64 -56.5s-58.667 -20.5 -92 -20.5c-43.333 0 -82 10.667 -116 32s-60.5 51.833 -79.5 91.5s-28.5 85.5 -28.5 137.5c0 52.667 9.66699 99.334 29 140.001s46 72.334 80 95.001s72.333 34 115 34
c33.333 0 63.833 -7.16699 91.5 -21.5s49.167 -33.5 64.5 -57.5v65h178zM385 159.998c17.333 22 26 53.668 26 95.001c0 42 -8.66699 74.167 -26 96.5s-42 33.5 -74 33.5c-31.333 0 -56 -11.5 -74 -34.5s-27 -55.5 -27 -97.5c0 -40.667 8.66699 -71.834 26 -93.501
s42.333 -32.5 75 -32.5c32 0 56.667 11 74 33zM239.5 597.999c-22.333 21.333 -33.499 48 -33.499 80c0 31.333 11.167 57.833 33.5 79.5s49.5 32.5 81.5 32.5c31.333 0 58.166 -11 80.499 -33s33.5 -48.333 33.5 -79c0 -32 -11 -58.667 -33 -80s-49 -32 -81 -32
s-59.167 10.667 -81.5 32zM350.501 645.999c7.66699 8.66699 11.5 19.334 11.5 32.001c0 12 -3.83301 22.167 -11.5 30.5s-17.5 12.5 -29.5 12.5s-22 -4.16699 -30 -12.5s-12 -18.5 -12 -30.5c0 -12.667 4 -23.334 12 -32.001s18 -13 30 -13s21.833 4.33301 29.5 13z" />
    <glyph glyph-name="ae" unicode="&#xe6;" horiz-adv-x="860" 
d="M829 236l-314 -0.000976562c4.66699 -74 44.334 -111 119.001 -111c22.667 0 46.5 4.16699 71.5 12.5s48.167 19.833 69.5 34.5l45 -120c-24 -18.667 -54 -33.334 -90 -44.001s-72.333 -16 -109 -16c-47.333 0 -88.5 7.83301 -123.5 23.5s-63.167 38.834 -84.5 69.501
c-16.667 -30 -39.834 -53 -69.501 -69s-63.834 -24 -102.501 -24c-40 0 -75.833 7.16699 -107.5 21.5s-56.5 34.333 -74.5 60s-27 55.167 -27 88.5c0 55.333 21.5 95.5 64.5 120.5s113.5 37.5 211.5 37.5h36c0 24 -5.5 41.333 -16.5 52s-29.5 16 -55.5 16
s-54.5 -4.66699 -85.5 -14s-60.5 -21.666 -88.5 -36.999l-45 121c30 18 66.833 33.167 110.5 45.5s83.834 18.5 120.501 18.5c74.667 0 129.334 -19.667 164.001 -59c42.667 39.333 96 59 160 59c43.333 0 81.666 -11 114.999 -33s59.333 -52.833 78 -92.5
s28 -85.167 28 -136.5v-24zM549.5 379.499c-13.667 -12.333 -23.168 -32.167 -28.501 -59.5h155c-7.33301 52 -31.666 78 -72.999 78c-22 0 -39.833 -6.16699 -53.5 -18.5zM324.499 139.998c13 17.333 19.5 40.001 19.5 68.001v30h-25c-75.333 0 -113 -23.333 -113 -70
c0 -16.667 5.5 -29.834 16.5 -39.501s25.5 -14.5 43.5 -14.5c26 0 45.5 8.66699 58.5 26z" />
    <glyph glyph-name="ccedilla" unicode="&#xe7;" horiz-adv-x="515" 
d="M433.5 11.5c-31.667 -10.333 -65.4961 -16.5029 -101.496 -18.5029l-5 -33h8c27.333 0 48.666 -6.33301 63.999 -19s23 -29.667 23 -51c0 -27.333 -12.333 -49.166 -37 -65.499s-60.334 -24.5 -107.001 -24.5c-14.667 0 -30.834 1.5 -48.501 4.5
s-33.834 7.16699 -48.501 12.5l11 65c36 -9.33301 62.667 -14 80 -14c28.667 0 43 7.33301 43 22c0 11.333 -10.667 17 -32 17c-8 0 -18.667 -1.66699 -32 -5l-20 22l10 73c-66.667 11.333 -118.334 39.333 -155.001 84s-55 102 -55 172c0 53.333 11.833 100.333 35.5 141
s56.834 72.167 99.501 94.5s92 33.5 148 33.5c37.333 0 74 -5.5 110 -16.5s64.667 -25.833 86 -44.5l-46 -125c-18 14.667 -39 26.334 -63 35.001s-47 13 -69 13c-37.333 0 -66 -10.667 -86 -32s-30 -53 -30 -95c0 -42.667 10 -74.834 30 -96.501s49 -32.5 87 -32.5
c22 0 44.833 4.33301 68.5 13s44.5 20.334 62.5 35.001l46 -123c-19.333 -17.333 -44.833 -31.166 -76.5 -41.499z" />
    <glyph glyph-name="egrave" unicode="&#xe8;" horiz-adv-x="553" 
d="M523 236l-318.995 0.00195312c3.33301 -39.333 14.666 -67.666 33.999 -84.999s47.666 -26 84.999 -26c25.333 0 50.666 4.16699 75.999 12.5s48.333 19.833 69 34.5l46 -120c-25.333 -18.667 -56 -33.334 -92 -44.001s-72 -16 -108 -16c-58 0 -108.333 10.667 -151 32
s-75.334 51.833 -98.001 91.5s-34 86.5 -34 140.5c0 51.333 10.833 97.166 32.5 137.499s51.667 71.833 90 94.5s82.166 34 131.499 34c48 0 90 -10.667 126 -32s63.667 -51.833 83 -91.5s29 -85.834 29 -138.501v-24zM206.005 320.002h162c-6.66699 52 -32.667 78 -78 78
c-44.667 0 -72.667 -26 -84 -78zM230.005 573.002l-161 208h172l98 -208h-109z" />
    <glyph glyph-name="eacute" unicode="&#xe9;" horiz-adv-x="553" 
d="M523 236l-318.995 0.00195312c3.33301 -39.333 14.666 -67.666 33.999 -84.999s47.666 -26 84.999 -26c25.333 0 50.666 4.16699 75.999 12.5s48.333 19.833 69 34.5l46 -120c-25.333 -18.667 -56 -33.334 -92 -44.001s-72 -16 -108 -16c-58 0 -108.333 10.667 -151 32
s-75.334 51.833 -98.001 91.5s-34 86.5 -34 140.5c0 51.333 10.833 97.166 32.5 137.499s51.667 71.833 90 94.5s82.166 34 131.499 34c48 0 90 -10.667 126 -32s63.667 -51.833 83 -91.5s29 -85.834 29 -138.501v-24zM206.005 320.002h162c-6.66699 52 -32.667 78 -78 78
c-44.667 0 -72.667 -26 -84 -78zM339.005 573.002h-109l98 208h172z" />
    <glyph glyph-name="ecircumflex" unicode="&#xea;" horiz-adv-x="553" 
d="M523 236l-318.995 0.00195312c3.33301 -39.333 14.666 -67.666 33.999 -84.999s47.666 -26 84.999 -26c25.333 0 50.666 4.16699 75.999 12.5s48.333 19.833 69 34.5l46 -120c-25.333 -18.667 -56 -33.334 -92 -44.001s-72 -16 -108 -16c-58 0 -108.333 10.667 -151 32
s-75.334 51.833 -98.001 91.5s-34 86.5 -34 140.5c0 51.333 10.833 97.166 32.5 137.499s51.667 71.833 90 94.5s82.166 34 131.499 34c48 0 90 -10.667 126 -32s63.667 -51.833 83 -91.5s29 -85.834 29 -138.501v-24zM206.005 320.002h162c-6.66699 52 -32.667 78 -78 78
c-44.667 0 -72.667 -26 -84 -78zM232.005 573.002h-136l136 208h105l136 -208h-136l-52 106z" />
    <glyph glyph-name="edieresis" unicode="&#xeb;" horiz-adv-x="553" 
d="M523 236l-318.995 0.00195312c3.33301 -39.333 14.666 -67.666 33.999 -84.999s47.666 -26 84.999 -26c25.333 0 50.666 4.16699 75.999 12.5s48.333 19.833 69 34.5l46 -120c-25.333 -18.667 -56 -33.334 -92 -44.001s-72 -16 -108 -16c-58 0 -108.333 10.667 -151 32
s-75.334 51.833 -98.001 91.5s-34 86.5 -34 140.5c0 51.333 10.833 97.166 32.5 137.499s51.667 71.833 90 94.5s82.166 34 131.499 34c48 0 90 -10.667 126 -32s63.667 -51.833 83 -91.5s29 -85.834 29 -138.501v-24zM206.005 320.002h162c-6.66699 52 -32.667 78 -78 78
c-44.667 0 -72.667 -26 -84 -78zM104.005 751.002h160v-152h-160v152zM305.005 751.002h160v-152h-160v152z" />
    <glyph glyph-name="igrave" unicode="&#xec;" horiz-adv-x="289" 
d="M54 0v508h181v-508h-181zM89 573l-161 208h172l98 -208h-109z" />
    <glyph glyph-name="iacute" unicode="&#xed;" horiz-adv-x="289" 
d="M54 0v508h181v-508h-181zM198 573h-109l98 208h172z" />
    <glyph glyph-name="icircumflex" unicode="&#xee;" horiz-adv-x="289" 
d="M54 0v508h181v-508h-181zM91 573h-136l136 208h105l136 -208h-136l-52 106z" />
    <glyph glyph-name="idieresis" unicode="&#xef;" horiz-adv-x="289" 
d="M54 0v508h181v-508h-181zM-37 751h160v-152h-160v152zM164 751h160v-152h-160v152z" />
    <glyph glyph-name="eth" unicode="&#xf0;" horiz-adv-x="627" 
d="M574.5 442.5c14.333 -44.333 21.5 -88.498 21.5 -132.498c0 -100.667 -25.667 -178.834 -77 -234.501s-123.666 -83.5 -216.999 -83.5c-52.667 0 -99.5 10 -140.5 30s-73 48.167 -96 84.5s-34.5 78.166 -34.5 125.499c0 46 10.833 87 32.5 123s51.667 64.167 90 84.5
s81.833 30.5 130.5 30.5c53.333 0 96.333 -12.667 129 -38c-12 35.333 -30.667 67.333 -56 96l-186 -47l-24 89l111 28c-36 16 -72.333 25.333 -109 28l39 123c97.333 -10.667 181.666 -46 252.999 -106l127 32l21 -89l-78 -19c28 -38.667 49.167 -80.167 63.5 -124.5z
M383 154.002c16.667 18 25 44 25 78c0 71.333 -32.667 107 -98 107c-66.667 0 -100 -35.667 -100 -107c0 -70 33.333 -105 100 -105c32 0 56.333 9 73 27z" />
    <glyph glyph-name="ntilde" unicode="&#xf1;" horiz-adv-x="624" 
d="M528.5 467.5c29.667 -36.333 44.501 -91.168 44.501 -164.501v-303h-181v295c0 31.333 -5.33301 53.833 -16 67.5s-27.334 20.5 -50.001 20.5c-27.333 0 -49.333 -9.16699 -66 -27.5s-25 -42.5 -25 -72.5v-283h-181v362c0 54.667 -2.66699 103.334 -8 146.001h170l9 -75
c19.333 28.667 43.333 50.667 72 66s61 23 97 23c60 0 104.833 -18.167 134.5 -54.5zM166.001 719.498c22 26.333 50 39.5 84 39.5c11.333 0 22.333 -2.16699 33 -6.5s24 -11.166 40 -20.499c12.667 -7.33301 23.334 -13 32.001 -17s17 -6 25 -6
c11.333 0 20.666 4 27.999 12s12 19.667 14 35h72c0 -54 -11 -94.167 -33 -120.5s-50 -39.5 -84 -39.5c-11.333 0 -22.333 2.16699 -33 6.5s-24 11.166 -40 20.499c-12.667 7.33301 -23.334 13 -32.001 17s-17 6 -25 6c-11.333 0 -20.666 -4 -27.999 -12
s-12 -19.667 -14 -35h-72c0 54 11 94.167 33 120.5z" />
    <glyph glyph-name="ograve" unicode="&#xf2;" horiz-adv-x="618" 
d="M162 24c-42 21.333 -74.333 52.002 -97 92.002s-34 87 -34 141s11.333 101 34 141s55 70.667 97 92s91.333 32 148 32c56 0 104.833 -10.833 146.5 -32.5s73.834 -52.334 96.501 -92.001s34 -86.5 34 -140.5s-11.333 -100.833 -34 -140.5
s-54.834 -70.334 -96.501 -92.001s-90.5 -32.5 -146.5 -32.5c-56.667 0 -106 10.667 -148 32zM408 257.002c0 44 -8.16699 76.5 -24.5 97.5s-40.833 31.5 -73.5 31.5c-33.333 0 -58.333 -10.5 -75 -31.5s-25 -53.5 -25 -97.5c0 -44.667 8.33301 -77.5 25 -98.5
s41.667 -31.5 75 -31.5c65.333 0 98 43.333 98 130zM255 573.002l-161 208h172l98 -208h-109z" />
    <glyph glyph-name="oacute" unicode="&#xf3;" horiz-adv-x="618" 
d="M162 24c-42 21.333 -74.333 52.002 -97 92.002s-34 87 -34 141s11.333 101 34 141s55 70.667 97 92s91.333 32 148 32c56 0 104.833 -10.833 146.5 -32.5s73.834 -52.334 96.501 -92.001s34 -86.5 34 -140.5s-11.333 -100.833 -34 -140.5
s-54.834 -70.334 -96.501 -92.001s-90.5 -32.5 -146.5 -32.5c-56.667 0 -106 10.667 -148 32zM408 257.002c0 44 -8.16699 76.5 -24.5 97.5s-40.833 31.5 -73.5 31.5c-33.333 0 -58.333 -10.5 -75 -31.5s-25 -53.5 -25 -97.5c0 -44.667 8.33301 -77.5 25 -98.5
s41.667 -31.5 75 -31.5c65.333 0 98 43.333 98 130zM364 573.002h-109l98 208h172z" />
    <glyph glyph-name="ocircumflex" unicode="&#xf4;" horiz-adv-x="618" 
d="M162 24c-42 21.333 -74.333 52.002 -97 92.002s-34 87 -34 141s11.333 101 34 141s55 70.667 97 92s91.333 32 148 32c56 0 104.833 -10.833 146.5 -32.5s73.834 -52.334 96.501 -92.001s34 -86.5 34 -140.5s-11.333 -100.833 -34 -140.5
s-54.834 -70.334 -96.501 -92.001s-90.5 -32.5 -146.5 -32.5c-56.667 0 -106 10.667 -148 32zM408 257.002c0 44 -8.16699 76.5 -24.5 97.5s-40.833 31.5 -73.5 31.5c-33.333 0 -58.333 -10.5 -75 -31.5s-25 -53.5 -25 -97.5c0 -44.667 8.33301 -77.5 25 -98.5
s41.667 -31.5 75 -31.5c65.333 0 98 43.333 98 130zM257 573.002h-136l136 208h105l136 -208h-136l-52 106z" />
    <glyph glyph-name="otilde" unicode="&#xf5;" horiz-adv-x="618" 
d="M162 24c-42 21.333 -74.333 52.002 -97 92.002s-34 87 -34 141s11.333 101 34 141s55 70.667 97 92s91.333 32 148 32c56 0 104.833 -10.833 146.5 -32.5s73.834 -52.334 96.501 -92.001s34 -86.5 34 -140.5s-11.333 -100.833 -34 -140.5
s-54.834 -70.334 -96.501 -92.001s-90.5 -32.5 -146.5 -32.5c-56.667 0 -106 10.667 -148 32zM408 257.002c0 44 -8.16699 76.5 -24.5 97.5s-40.833 31.5 -73.5 31.5c-33.333 0 -58.333 -10.5 -75 -31.5s-25 -53.5 -25 -97.5c0 -44.667 8.33301 -77.5 25 -98.5
s41.667 -31.5 75 -31.5c65.333 0 98 43.333 98 130zM162 719.502c22 26.333 50 39.5 84 39.5c11.333 0 22.333 -2.16699 33 -6.5s24 -11.166 40 -20.499c12.667 -7.33301 23.334 -13 32.001 -17s17 -6 25 -6c11.333 0 20.666 4 27.999 12s12 19.667 14 35h72
c0 -54 -11 -94.167 -33 -120.5s-50 -39.5 -84 -39.5c-11.333 0 -22.333 2.16699 -33 6.5s-24 11.166 -40 20.499c-12.667 7.33301 -23.334 13 -32.001 17s-17 6 -25 6c-11.333 0 -20.666 -4 -27.999 -12s-12 -19.667 -14 -35h-72c0 54 11 94.167 33 120.5z" />
    <glyph glyph-name="odieresis" unicode="&#xf6;" horiz-adv-x="618" 
d="M162 24c-42 21.333 -74.333 52.002 -97 92.002s-34 87 -34 141s11.333 101 34 141s55 70.667 97 92s91.333 32 148 32c56 0 104.833 -10.833 146.5 -32.5s73.834 -52.334 96.501 -92.001s34 -86.5 34 -140.5s-11.333 -100.833 -34 -140.5
s-54.834 -70.334 -96.501 -92.001s-90.5 -32.5 -146.5 -32.5c-56.667 0 -106 10.667 -148 32zM408 257.002c0 44 -8.16699 76.5 -24.5 97.5s-40.833 31.5 -73.5 31.5c-33.333 0 -58.333 -10.5 -75 -31.5s-25 -53.5 -25 -97.5c0 -44.667 8.33301 -77.5 25 -98.5
s41.667 -31.5 75 -31.5c65.333 0 98 43.333 98 130zM129 751.002h160v-152h-160v152zM330 751.002h160v-152h-160v152z" />
    <glyph glyph-name="divide" unicode="&#xf7;" horiz-adv-x="600" 
d="M229 414v130h130v-130h-130zM546 351v-121h-492v121h492zM229 29v131h130v-131h-130z" />
    <glyph glyph-name="oslash" unicode="&#xf8;" horiz-adv-x="618" 
d="M561.5 381c17 -36 25.501 -77.3311 25.501 -123.998c0 -54 -11.333 -100.833 -34 -140.5s-54.834 -70.334 -96.501 -92.001s-90.5 -32.5 -146.5 -32.5c-34 0 -65 4 -93 12l-44 -75l-81 48l39 66c-32 23.333 -56.667 53.166 -74 89.499s-26 77.833 -26 124.5
c0 54 11.333 101 34 141s55 70.667 97 92s91.333 32 148 32c33.333 0 64.333 -4 93 -12l42 73l82 -48l-38 -65c31.333 -23.333 55.5 -53 72.5 -89zM215.001 189.002l116 198c-4.66699 0.666992 -11.667 1 -21 1c-34.667 0 -60.667 -10.667 -78 -32s-26 -54.333 -26 -99
c0 -27.333 3 -50 9 -68zM386.501 157.502c17 21 25.5 54.167 25.5 99.5c0 26 -3 48 -9 66l-114 -196c4.66699 -0.666992 11.667 -1 21 -1c34 0 59.5 10.5 76.5 31.5z" />
    <glyph glyph-name="ugrave" unicode="&#xf9;" horiz-adv-x="619" 
d="M565 508l0.000976562 -508h-177v68c-32.667 -50.667 -81 -76 -145 -76c-64.667 0 -112.834 18 -144.501 54s-47.5 91 -47.5 165v297h181v-302c0 -50 21.667 -75 65 -75c25.333 0 45.833 9 61.5 27s23.5 42 23.5 72v278h183zM254.001 573l-161 208h172l98 -208h-109z" />
    <glyph glyph-name="uacute" unicode="&#xfa;" horiz-adv-x="619" 
d="M565 508l0.000976562 -508h-177v68c-32.667 -50.667 -81 -76 -145 -76c-64.667 0 -112.834 18 -144.501 54s-47.5 91 -47.5 165v297h181v-302c0 -50 21.667 -75 65 -75c25.333 0 45.833 9 61.5 27s23.5 42 23.5 72v278h183zM363.001 573h-109l98 208h172z" />
    <glyph glyph-name="ucircumflex" unicode="&#xfb;" horiz-adv-x="619" 
d="M565 508l0.000976562 -508h-177v68c-32.667 -50.667 -81 -76 -145 -76c-64.667 0 -112.834 18 -144.501 54s-47.5 91 -47.5 165v297h181v-302c0 -50 21.667 -75 65 -75c25.333 0 45.833 9 61.5 27s23.5 42 23.5 72v278h183zM256.001 573h-136l136 208h105l136 -208h-136
l-52 106z" />
    <glyph glyph-name="udieresis" unicode="&#xfc;" horiz-adv-x="619" 
d="M565 508l0.000976562 -508h-177v68c-32.667 -50.667 -81 -76 -145 -76c-64.667 0 -112.834 18 -144.501 54s-47.5 91 -47.5 165v297h181v-302c0 -50 21.667 -75 65 -75c25.333 0 45.833 9 61.5 27s23.5 42 23.5 72v278h183zM128.001 751h160v-152h-160v152zM329.001 751
h160v-152h-160v152z" />
    <glyph glyph-name="yacute" unicode="&#xfd;" horiz-adv-x="559" 
d="M579 508l-233 -525.999c-30.667 -68.667 -69.167 -118.834 -115.5 -150.501s-103.5 -51.5 -171.5 -59.5l-42 138c46.667 9.33301 81.667 21.333 105 36s41 35 53 61l13 28l-207 473h188l114 -293l118 293h178zM333 573.001h-109l98 208h172z" />
    <glyph glyph-name="thorn" unicode="&#xfe;" horiz-adv-x="645" 
d="M505.5 487.5c34.333 -23 61.001 -54.832 80.001 -95.499s28.5 -87 28.5 -139c0 -51.333 -9.5 -96.833 -28.5 -136.5s-45.5 -70.334 -79.5 -92.001s-73 -32.5 -117 -32.5c-33.333 0 -63.666 6.5 -90.999 19.5s-48.333 31.167 -63 54.5v-282h-181v952h181v-290
c14.667 23.333 35.667 41.833 63 55.5s57.666 20.5 90.999 20.5c43.333 0 82.166 -11.5 116.499 -34.5zM407.501 159.001c17 21.333 25.499 52.666 25.499 93.999c0 42.667 -8.66699 75.334 -26 98.001s-41.666 34 -72.999 34c-32.667 0 -57.667 -11 -75 -33
s-26 -54.333 -26 -97c0 -41.333 8.66699 -73 26 -95s42.333 -33 75 -33c32 0 56.5 10.667 73.5 32z" />
    <glyph glyph-name="ydieresis" unicode="&#xff;" horiz-adv-x="559" 
d="M579 508l-233 -525.999c-30.667 -68.667 -69.167 -118.834 -115.5 -150.501s-103.5 -51.5 -171.5 -59.5l-42 138c46.667 9.33301 81.667 21.333 105 36s41 35 53 61l13 28l-207 473h188l114 -293l118 293h178zM98 751.001h160v-152h-160v152zM299 751.001h160v-152h-160
v152z" />
    <glyph glyph-name="Amacron" unicode="&#x100;" horiz-adv-x="769" 
d="M607 0l-63 147h-316l-63 -147h-188l333 712h148l334 -712h-185zM289 288h194l-97 225zM223 798v108h321v-108h-321z" />
    <glyph glyph-name="amacron" unicode="&#x101;" horiz-adv-x="643" 
d="M589 508v-508.002h-178v69c-14.667 -24 -36 -42.833 -64 -56.5s-58.667 -20.5 -92 -20.5c-43.333 0 -82 10.667 -116 32s-60.5 51.833 -79.5 91.5s-28.5 85.5 -28.5 137.5c0 52.667 9.66699 99.334 29 140.001s46 72.334 80 95.001s72.333 34 115 34
c33.333 0 63.833 -7.16699 91.5 -21.5s49.167 -33.5 64.5 -57.5v65h178zM385 159.998c17.333 22 26 53.668 26 95.001c0 42 -8.66699 74.167 -26 96.5s-42 33.5 -74 33.5c-31.333 0 -56 -11.5 -74 -34.5s-27 -55.5 -27 -97.5c0 -40.667 8.66699 -71.834 26 -93.501
s42.333 -32.5 75 -32.5c32 0 56.667 11 74 33zM160 620.999v108h321v-108h-321z" />
    <glyph glyph-name="Abreve" unicode="&#x102;" horiz-adv-x="769" 
d="M607 0l-63 147h-316l-63 -147h-188l333 712h148l334 -712h-185zM289 288h194l-97 225zM265 810c-32.667 19.333 -54.999 46.666 -66.999 81.999l77 33c20 -27.333 56.333 -41 109 -41c52 0 88 13.667 108 41l77 -33c-12 -35.333 -34.333 -62.666 -67 -81.999
s-72 -29 -118 -29c-46.667 0 -86.334 9.66699 -119.001 29z" />
    <glyph glyph-name="abreve" unicode="&#x103;" horiz-adv-x="643" 
d="M589 508v-508.002h-178v69c-14.667 -24 -36 -42.833 -64 -56.5s-58.667 -20.5 -92 -20.5c-43.333 0 -82 10.667 -116 32s-60.5 51.833 -79.5 91.5s-28.5 85.5 -28.5 137.5c0 52.667 9.66699 99.334 29 140.001s46 72.334 80 95.001s72.333 34 115 34
c33.333 0 63.833 -7.16699 91.5 -21.5s49.167 -33.5 64.5 -57.5v65h178zM385 159.998c17.333 22 26 53.668 26 95.001c0 42 -8.66699 74.167 -26 96.5s-42 33.5 -74 33.5c-31.333 0 -56 -11.5 -74 -34.5s-27 -55.5 -27 -97.5c0 -40.667 8.66699 -71.834 26 -93.501
s42.333 -32.5 75 -32.5c32 0 56.667 11 74 33zM196 632.499c-36.667 26.333 -60.3311 64.166 -70.998 113.499l77 34c30 -51.333 69.667 -77 119 -77c48.667 0 88 25.667 118 77l77 -34c-10.667 -49.333 -34.334 -87.166 -71.001 -113.499s-78 -39.5 -124 -39.5
c-46.667 0 -88.334 13.167 -125.001 39.5z" />
    <glyph glyph-name="Aogonek" unicode="&#x104;" horiz-adv-x="769" 
d="M768 -100l18 -81c-33.333 -12.667 -69.333 -19 -108 -19c-38 0 -69.667 10.167 -95 30.5s-38 47.5 -38 81.5c0 20.667 4.83301 40 14.5 58s23.167 33.667 40.5 47l-56 130h-316l-63 -147h-188l333 712h148l334 -712h-65c-20.667 -0 -37.667 -5.66699 -51 -17
s-20 -26 -20 -44c0 -16.667 5 -29.167 15 -37.5s24.333 -12.5 43 -12.5c16 0 34 3.66699 54 11zM289 288h194l-97 225z" />
    <glyph glyph-name="aogonek" unicode="&#x105;" horiz-adv-x="643" 
d="M627 -185c-35.333 -14 -71.999 -20.999 -109.999 -20.999c-38.667 0 -70.667 11.167 -96 33.5s-38 50.833 -38 85.5c0 34 12 63 36 87h-8v69c-14.667 -24 -36 -42.833 -64 -56.5s-58.667 -20.5 -92 -20.5c-44 0 -83 10.833 -117 32.5s-60.333 52.167 -79 91.5
s-28 85 -28 137s9.5 98.333 28.5 139s45.5 72.5 79.5 95.5s72.667 34.5 116 34.5c33.333 0 63.833 -7.16699 91.5 -21.5s49.167 -33.5 64.5 -57.5v65h178v-508h-10c-25.333 0 -45.833 -5.83301 -61.5 -17.5s-23.5 -26.834 -23.5 -45.501c0 -16.667 5.16699 -29.5 15.5 -38.5
s25.166 -13.5 44.499 -13.5c16.667 0 35 4 55 12zM385.001 160.001c17.333 22 26 53.668 26 95.001c0 42 -8.66699 74.167 -26 96.5s-42 33.5 -74 33.5c-31.333 0 -56 -11.5 -74 -34.5s-27 -55.5 -27 -97.5c0 -40.667 8.66699 -71.834 26 -93.501s42.333 -32.5 75 -32.5
c32 0 56.667 11 74 33z" />
    <glyph glyph-name="Cacute" unicode="&#x106;" horiz-adv-x="685" 
d="M216.5 36.5c-55 30.333 -97.333 73.166 -127 128.499s-44.5 119.333 -44.5 192c0 72 14.833 135.5 44.5 190.5s72 97.667 127 128s119.5 45.5 193.5 45.5c46.667 0 91.834 -7 135.501 -21s78.834 -33 105.501 -57l-57 -133c-58 42 -118 63 -180 63
c-57.333 0 -101.333 -18.167 -132 -54.5s-46 -90.166 -46 -161.499c0 -72 15.333 -126.333 46 -163s74.667 -55 132 -55c62 0 122 21 180 63l57 -133c-26.667 -24 -61.834 -43 -105.501 -57s-88.834 -21 -135.501 -21c-74 0 -138.5 15.167 -193.5 45.5zM456 773h-109
l104 158h162z" />
    <glyph glyph-name="cacute" unicode="&#x107;" horiz-adv-x="515" 
d="M104 62c-48.667 46.667 -73.002 110.332 -73.002 190.999c0 53.333 11.833 100.333 35.5 141s56.834 72.167 99.501 94.5s92 33.5 148 33.5c37.333 0 74 -5.5 110 -16.5s64.667 -25.833 86 -44.5l-46 -125c-18 14.667 -39 26.334 -63 35.001s-47 13 -69 13
c-37.333 0 -66 -10.667 -86 -32s-30 -53 -30 -95c0 -42.667 10 -74.834 30 -96.501s49 -32.5 87 -32.5c22 0 44.833 4.33301 68.5 13s44.5 20.334 62.5 35.001l46 -123c-22 -19.333 -51.167 -34.333 -87.5 -45s-75.166 -16 -116.499 -16c-86 0 -153.333 23.333 -202 70z
M362.998 572.998h-109l98 208h172z" />
    <glyph glyph-name="Ccircumflex" unicode="&#x108;" horiz-adv-x="685" 
d="M216.5 36.5c-55 30.333 -97.333 73.166 -127 128.499s-44.5 119.333 -44.5 192c0 72 14.833 135.5 44.5 190.5s72 97.667 127 128s119.5 45.5 193.5 45.5c46.667 0 91.834 -7 135.501 -21s78.834 -33 105.501 -57l-57 -133c-58 42 -118 63 -180 63
c-57.333 0 -101.333 -18.167 -132 -54.5s-46 -90.166 -46 -161.499c0 -72 15.333 -126.333 46 -163s74.667 -55 132 -55c62 0 122 21 180 63l57 -133c-26.667 -24 -61.834 -43 -105.501 -57s-88.834 -21 -135.501 -21c-74 0 -138.5 15.167 -193.5 45.5zM344 773h-131
l139 158h99l139 -158h-131l-57 78z" />
    <glyph glyph-name="ccircumflex" unicode="&#x109;" horiz-adv-x="515" 
d="M104 62c-48.667 46.667 -73.002 110.332 -73.002 190.999c0 53.333 11.833 100.333 35.5 141s56.834 72.167 99.501 94.5s92 33.5 148 33.5c37.333 0 74 -5.5 110 -16.5s64.667 -25.833 86 -44.5l-46 -125c-18 14.667 -39 26.334 -63 35.001s-47 13 -69 13
c-37.333 0 -66 -10.667 -86 -32s-30 -53 -30 -95c0 -42.667 10 -74.834 30 -96.501s49 -32.5 87 -32.5c22 0 44.833 4.33301 68.5 13s44.5 20.334 62.5 35.001l46 -123c-22 -19.333 -51.167 -34.333 -87.5 -45s-75.166 -16 -116.499 -16c-86 0 -153.333 23.333 -202 70z
M255.998 572.998h-136l136 208h105l136 -208h-136l-52 106z" />
    <glyph glyph-name="Cdotaccent" unicode="&#x10a;" horiz-adv-x="685" 
d="M216.5 36.5c-55 30.333 -97.333 73.166 -127 128.499s-44.5 119.333 -44.5 192c0 72 14.833 135.5 44.5 190.5s72 97.667 127 128s119.5 45.5 193.5 45.5c46.667 0 91.834 -7 135.501 -21s78.834 -33 105.501 -57l-57 -133c-58 42 -118 63 -180 63
c-57.333 0 -101.333 -18.167 -132 -54.5s-46 -90.166 -46 -161.499c0 -72 15.333 -126.333 46 -163s74.667 -55 132 -55c62 0 122 21 180 63l57 -133c-26.667 -24 -61.834 -43 -105.501 -57s-88.834 -21 -135.501 -21c-74 0 -138.5 15.167 -193.5 45.5zM307 934h189v-163
h-189v163z" />
    <glyph glyph-name="cdotaccent" unicode="&#x10b;" horiz-adv-x="515" 
d="M104 62c-48.667 46.667 -73.002 110.332 -73.002 190.999c0 53.333 11.833 100.333 35.5 141s56.834 72.167 99.501 94.5s92 33.5 148 33.5c37.333 0 74 -5.5 110 -16.5s64.667 -25.833 86 -44.5l-46 -125c-18 14.667 -39 26.334 -63 35.001s-47 13 -69 13
c-37.333 0 -66 -10.667 -86 -32s-30 -53 -30 -95c0 -42.667 10 -74.834 30 -96.501s49 -32.5 87 -32.5c22 0 44.833 4.33301 68.5 13s44.5 20.334 62.5 35.001l46 -123c-22 -19.333 -51.167 -34.333 -87.5 -45s-75.166 -16 -116.499 -16c-86 0 -153.333 23.333 -202 70z
M213.998 756.998h189v-163h-189v163z" />
    <glyph glyph-name="Ccaron" unicode="&#x10c;" horiz-adv-x="685" 
d="M216.5 36.5c-55 30.333 -97.333 73.166 -127 128.499s-44.5 119.333 -44.5 192c0 72 14.833 135.5 44.5 190.5s72 97.667 127 128s119.5 45.5 193.5 45.5c46.667 0 91.834 -7 135.501 -21s78.834 -33 105.501 -57l-57 -133c-58 42 -118 63 -180 63
c-57.333 0 -101.333 -18.167 -132 -54.5s-46 -90.166 -46 -161.499c0 -72 15.333 -126.333 46 -163s74.667 -55 132 -55c62 0 122 21 180 63l57 -133c-26.667 -24 -61.834 -43 -105.501 -57s-88.834 -21 -135.501 -21c-74 0 -138.5 15.167 -193.5 45.5zM459 931h131
l-139 -158h-99l-139 158h131l58 -79z" />
    <glyph glyph-name="ccaron" unicode="&#x10d;" horiz-adv-x="515" 
d="M104 62c-48.667 46.667 -73.002 110.332 -73.002 190.999c0 53.333 11.833 100.333 35.5 141s56.834 72.167 99.501 94.5s92 33.5 148 33.5c37.333 0 74 -5.5 110 -16.5s64.667 -25.833 86 -44.5l-46 -125c-18 14.667 -39 26.334 -63 35.001s-47 13 -69 13
c-37.333 0 -66 -10.667 -86 -32s-30 -53 -30 -95c0 -42.667 10 -74.834 30 -96.501s49 -32.5 87 -32.5c22 0 44.833 4.33301 68.5 13s44.5 20.334 62.5 35.001l46 -123c-22 -19.333 -51.167 -34.333 -87.5 -45s-75.166 -16 -116.499 -16c-86 0 -153.333 23.333 -202 70z
M360.998 780.998h136l-136 -208h-105l-136 208h136l53 -107z" />
    <glyph glyph-name="Dcaron" unicode="&#x10e;" horiz-adv-x="781" 
d="M64 712l291 -0.00195312c78.667 0 146.5 -14.167 203.5 -42.5s100.667 -69.166 131 -122.499s45.5 -116.666 45.5 -189.999c0 -74 -15 -137.833 -45 -191.5s-73.5 -94.667 -130.5 -123s-125.167 -42.5 -204.5 -42.5h-291v712zM342 149.998
c69.333 0 121.167 17.168 155.5 51.501s51.5 86.166 51.5 155.499c0 136.667 -69 205 -207 205h-90v-412h90zM447.001 930.999h131l-139 -158h-99l-139 158h131l58 -79z" />
    <glyph glyph-name="dcaron" unicode="&#x10f;" horiz-adv-x="643" 
d="M408 736l181 0.000976562v-736h-178v69c-14.667 -24 -36 -42.833 -64 -56.5s-58.667 -20.5 -92 -20.5c-43.333 0 -82 11.167 -116 33.5s-60.5 53.666 -79.5 93.999s-28.5 86.833 -28.5 139.5c0 52 9.5 98 28.5 138s45.5 70.833 79.5 92.5s72.667 32.5 116 32.5
c32 0 61.5 -6.66699 88.5 -20s48.5 -31.333 64.5 -54v288zM614 736.001h86l-27 -201h-59v201zM385 160.501c17.333 22.333 26 54.501 26 96.501c0 40.667 -8.83301 72.167 -26.5 94.5s-42.167 33.5 -73.5 33.5c-32.667 0 -57.667 -10.833 -75 -32.5s-26 -52.834 -26 -93.501
c0 -42 8.83301 -74.5 26.5 -97.5s42.5 -34.5 74.5 -34.5s56.667 11.167 74 33.5z" />
    <glyph glyph-name="Dcroat" unicode="&#x110;" horiz-adv-x="818" 
d="M596 669.5c56.667 -28.333 100.166 -69.168 130.499 -122.501s45.5 -116.666 45.5 -189.999c0 -74 -15 -137.833 -45 -191.5s-73.5 -94.667 -130.5 -123s-124.833 -42.5 -203.5 -42.5h-292v289h-84v140h84v283h292c78.667 0 146.334 -14.167 203.001 -42.5z
M533.999 201.498c34 34.333 51 86.167 51 155.5c0 136.667 -68.667 205 -206 205h-90v-133h184v-140h-184v-139h90c69.333 0 121 17.167 155 51.5z" />
    <glyph glyph-name="dcroat" unicode="&#x111;" horiz-adv-x="643" 
d="M676 550l-87 0.000976562v-550h-178v69c-14.667 -24 -36 -42.833 -64 -56.5s-58.667 -20.5 -92 -20.5c-43.333 0 -82 11.167 -116 33.5s-60.5 53.666 -79.5 93.999s-28.5 86.833 -28.5 139.5c0 52 9.5 98 28.5 138s45.5 70.833 79.5 92.5s72.667 32.5 116 32.5
c32 0 61.5 -6.66699 88.5 -20s48.5 -31.333 64.5 -54v102h-188v124h188v62h181v-62h87v-124zM385 160.501c17.333 22.333 26 54.501 26 96.501c0 40.667 -8.83301 72.167 -26.5 94.5s-42.167 33.5 -73.5 33.5c-32.667 0 -57.667 -10.833 -75 -32.5s-26 -52.834 -26 -93.501
c0 -42 8.83301 -74.5 26.5 -97.5s42.5 -34.5 74.5 -34.5s56.667 11.167 74 33.5z" />
    <glyph glyph-name="Emacron" unicode="&#x112;" horiz-adv-x="604" 
d="M64 0v712h508v-144h-325v-134h304v-144h-304v-146h325v-144h-508zM175 798v108h321v-108h-321z" />
    <glyph glyph-name="emacron" unicode="&#x113;" horiz-adv-x="553" 
d="M523 236l-318.995 0.00195312c3.33301 -39.333 14.666 -67.666 33.999 -84.999s47.666 -26 84.999 -26c25.333 0 50.666 4.16699 75.999 12.5s48.333 19.833 69 34.5l46 -120c-25.333 -18.667 -56 -33.334 -92 -44.001s-72 -16 -108 -16c-58 0 -108.333 10.667 -151 32
s-75.334 51.833 -98.001 91.5s-34 86.5 -34 140.5c0 51.333 10.833 97.166 32.5 137.499s51.667 71.833 90 94.5s82.166 34 131.499 34c48 0 90 -10.667 126 -32s63.667 -51.833 83 -91.5s29 -85.834 29 -138.501v-24zM206.005 320.002h162c-6.66699 52 -32.667 78 -78 78
c-44.667 0 -72.667 -26 -84 -78zM124.005 621.002v108h321v-108h-321z" />
    <glyph glyph-name="Ebreve" unicode="&#x114;" horiz-adv-x="604" 
d="M64 0v712h508v-144h-325v-134h304v-144h-304v-146h325v-144h-508zM217 810c-32.667 19.333 -54.999 46.666 -66.999 81.999l77 33c20 -27.333 56.333 -41 109 -41c52 0 88 13.667 108 41l77 -33c-12 -35.333 -34.333 -62.666 -67 -81.999s-72 -29 -118 -29
c-46.667 0 -86.334 9.66699 -119.001 29z" />
    <glyph glyph-name="ebreve" unicode="&#x115;" horiz-adv-x="553" 
d="M523 236l-318.995 0.00195312c3.33301 -39.333 14.666 -67.666 33.999 -84.999s47.666 -26 84.999 -26c25.333 0 50.666 4.16699 75.999 12.5s48.333 19.833 69 34.5l46 -120c-25.333 -18.667 -56 -33.334 -92 -44.001s-72 -16 -108 -16c-58 0 -108.333 10.667 -151 32
s-75.334 51.833 -98.001 91.5s-34 86.5 -34 140.5c0 51.333 10.833 97.166 32.5 137.499s51.667 71.833 90 94.5s82.166 34 131.499 34c48 0 90 -10.667 126 -32s63.667 -51.833 83 -91.5s29 -85.834 29 -138.501v-24zM206.005 320.002h162c-6.66699 52 -32.667 78 -78 78
c-44.667 0 -72.667 -26 -84 -78zM160.005 632.502c-36.667 26.333 -60.3311 64.166 -70.998 113.499l77 34c30 -51.333 69.667 -77 119 -77c48.667 0 88 25.667 118 77l77 -34c-10.667 -49.333 -34.334 -87.166 -71.001 -113.499s-78 -39.5 -124 -39.5
c-46.667 0 -88.334 13.167 -125.001 39.5z" />
    <glyph glyph-name="Edotaccent" unicode="&#x116;" horiz-adv-x="604" 
d="M64 0v712h508v-144h-325v-134h304v-144h-304v-146h325v-144h-508zM241 934h189v-163h-189v163z" />
    <glyph glyph-name="edotaccent" unicode="&#x117;" horiz-adv-x="553" 
d="M523 236l-318.995 0.00195312c3.33301 -39.333 14.666 -67.666 33.999 -84.999s47.666 -26 84.999 -26c25.333 0 50.666 4.16699 75.999 12.5s48.333 19.833 69 34.5l46 -120c-25.333 -18.667 -56 -33.334 -92 -44.001s-72 -16 -108 -16c-58 0 -108.333 10.667 -151 32
s-75.334 51.833 -98.001 91.5s-34 86.5 -34 140.5c0 51.333 10.833 97.166 32.5 137.499s51.667 71.833 90 94.5s82.166 34 131.499 34c48 0 90 -10.667 126 -32s63.667 -51.833 83 -91.5s29 -85.834 29 -138.501v-24zM206.005 320.002h162c-6.66699 52 -32.667 78 -78 78
c-44.667 0 -72.667 -26 -84 -78zM190.005 757.002h189v-163h-189v163z" />
    <glyph glyph-name="Eogonek" unicode="&#x118;" horiz-adv-x="604" 
d="M613 -181c-32 -12.667 -67.667 -18.999 -107 -18.999s-71.333 10.5 -96 31.5s-37 47.833 -37 80.5c0 35.333 12.667 64.666 38 87.999h-347v712h508v-144h-325v-134h304v-144h-304v-146h325v-144h-25c-18.667 0 -33.667 -5.33301 -45 -16s-17 -25.667 -17 -45
c0 -33.333 18.667 -50 56 -50c16.667 0 35 3.66699 55 11z" />
    <glyph glyph-name="eogonek" unicode="&#x119;" horiz-adv-x="553" 
d="M523 236h-318.996c3.33301 -39.333 14.666 -67.666 33.999 -84.999s47.666 -26 84.999 -26c25.333 0 50.666 4.16699 75.999 12.5s48.333 19.833 69 34.5l46 -120c-9.33301 -8 -30 -19 -62 -33c-25.333 -12.667 -43.333 -25.167 -54 -37.5s-16 -27.166 -16 -44.499
c0 -34.667 19.667 -52 59 -52c17.333 0 35.333 4 54 12l17 -82c-35.333 -14 -71.333 -21 -108 -21c-39.333 0 -71.666 11 -96.999 33s-38 49.667 -38 83c0 32.667 11.667 60 35 82c-84.667 2 -151.334 26.5 -200.001 73.5s-73 110.5 -73 190.5
c0 51.333 10.833 97.166 32.5 137.499s51.667 71.833 90 94.5s82.166 34 131.499 34c48 0 90 -10.667 126 -32s63.667 -51.833 83 -91.5s29 -85.834 29 -138.501v-24zM236.004 378c-14 -13.333 -23.667 -32.667 -29 -58h161c-6.66699 52 -32.667 78 -78 78
c-22 0 -40 -6.66699 -54 -20z" />
    <glyph glyph-name="Ecaron" unicode="&#x11a;" horiz-adv-x="604" 
d="M64 0v712h508v-144h-325v-134h304v-144h-304v-146h325v-144h-508zM393 931h131l-139 -158h-99l-139 158h131l58 -79z" />
    <glyph glyph-name="ecaron" unicode="&#x11b;" horiz-adv-x="553" 
d="M523 236l-318.995 0.00195312c3.33301 -39.333 14.666 -67.666 33.999 -84.999s47.666 -26 84.999 -26c25.333 0 50.666 4.16699 75.999 12.5s48.333 19.833 69 34.5l46 -120c-25.333 -18.667 -56 -33.334 -92 -44.001s-72 -16 -108 -16c-58 0 -108.333 10.667 -151 32
s-75.334 51.833 -98.001 91.5s-34 86.5 -34 140.5c0 51.333 10.833 97.166 32.5 137.499s51.667 71.833 90 94.5s82.166 34 131.499 34c48 0 90 -10.667 126 -32s63.667 -51.833 83 -91.5s29 -85.834 29 -138.501v-24zM206.005 320.002h162c-6.66699 52 -32.667 78 -78 78
c-44.667 0 -72.667 -26 -84 -78zM337.005 781.002h136l-136 -208h-105l-136 208h136l53 -107z" />
    <glyph glyph-name="Gcircumflex" unicode="&#x11c;" horiz-adv-x="751" 
d="M696 402l0.000976562 -357.002c-38 -17.333 -80.5 -30.666 -127.5 -39.999s-95.167 -14 -144.5 -14c-77.333 0 -144.5 14.667 -201.5 44s-100.833 71.5 -131.5 126.5s-46 120.167 -46 195.5c0 73.333 15.333 137.5 46 192.5s74 97.333 130 127s121.333 44.5 196 44.5
c51.333 0 99.833 -6.66699 145.5 -20s82.834 -31.666 111.501 -54.999l-59 -133c-32.667 21.333 -64.167 36.833 -94.5 46.5s-62.833 14.5 -97.5 14.5c-63.333 0 -110.5 -17.833 -141.5 -53.5s-46.5 -90.167 -46.5 -163.5c0 -76 16.167 -132.333 48.5 -169
s82.166 -55 149.499 -55c31.333 0 62.666 3.33301 93.999 10v132h-124v127h293zM359.001 772.998h-131l139 158h99l139 -158h-131l-57 78z" />
    <glyph glyph-name="gcircumflex" unicode="&#x11d;" horiz-adv-x="647" 
d="M595 508l0.000976562 -475.999c0 -83.333 -25 -146.833 -75 -190.5s-123.333 -65.5 -220 -65.5c-82.667 0 -154.334 14.667 -215.001 44l27 132c30 -13.333 60.833 -23.833 92.5 -31.5s61.5 -11.5 89.5 -11.5c41.333 0 71.833 8.83301 91.5 26.5s29.5 45.167 29.5 82.5
v75c-16.667 -22 -39.167 -40.667 -67.5 -56s-58.5 -23 -90.5 -23c-43.333 0 -82.166 10.5 -116.499 31.5s-61.166 50.667 -80.499 89s-29 82.833 -29 133.5c0 50 9.66699 94.167 29 132.5s46.166 68.166 80.499 89.499s73.166 32 116.499 32c34 0 65 -7 93 -21
s49.667 -33 65 -57v64h180zM388.001 180.501c18 21 27 50.168 27 87.501c0 36 -9 64.5 -27 85.5s-43 31.5 -75 31.5s-57.167 -10.333 -75.5 -31s-27.5 -49.334 -27.5 -86.001s9.33301 -65.667 28 -87s43.667 -32 75 -32c32 0 57 10.5 75 31.5zM271.001 573.002h-136l136 208
h105l136 -208h-136l-52 106z" />
    <glyph glyph-name="Gbreve" unicode="&#x11e;" horiz-adv-x="751" 
d="M696 402l0.000976562 -357.002c-38 -17.333 -80.5 -30.666 -127.5 -39.999s-95.167 -14 -144.5 -14c-77.333 0 -144.5 14.667 -201.5 44s-100.833 71.5 -131.5 126.5s-46 120.167 -46 195.5c0 73.333 15.333 137.5 46 192.5s74 97.333 130 127s121.333 44.5 196 44.5
c51.333 0 99.833 -6.66699 145.5 -20s82.834 -31.666 111.501 -54.999l-59 -133c-32.667 21.333 -64.167 36.833 -94.5 46.5s-62.833 14.5 -97.5 14.5c-63.333 0 -110.5 -17.833 -141.5 -53.5s-46.5 -90.167 -46.5 -163.5c0 -76 16.167 -132.333 48.5 -169
s82.166 -55 149.499 -55c31.333 0 62.666 3.33301 93.999 10v132h-124v127h293zM298.001 809.998c-32.667 19.333 -54.999 46.666 -66.999 81.999l77 33c20 -27.333 56.333 -41 109 -41c52 0 88 13.667 108 41l77 -33c-12 -35.333 -34.333 -62.666 -67 -81.999
s-72 -29 -118 -29c-46.667 0 -86.334 9.66699 -119.001 29z" />
    <glyph glyph-name="gbreve" unicode="&#x11f;" horiz-adv-x="647" 
d="M595 508l0.000976562 -475.999c0 -83.333 -25 -146.833 -75 -190.5s-123.333 -65.5 -220 -65.5c-82.667 0 -154.334 14.667 -215.001 44l27 132c30 -13.333 60.833 -23.833 92.5 -31.5s61.5 -11.5 89.5 -11.5c41.333 0 71.833 8.83301 91.5 26.5s29.5 45.167 29.5 82.5
v75c-16.667 -22 -39.167 -40.667 -67.5 -56s-58.5 -23 -90.5 -23c-43.333 0 -82.166 10.5 -116.499 31.5s-61.166 50.667 -80.499 89s-29 82.833 -29 133.5c0 50 9.66699 94.167 29 132.5s46.166 68.166 80.499 89.499s73.166 32 116.499 32c34 0 65 -7 93 -21
s49.667 -33 65 -57v64h180zM388.001 180.501c18 21 27 50.168 27 87.501c0 36 -9 64.5 -27 85.5s-43 31.5 -75 31.5s-57.167 -10.333 -75.5 -31s-27.5 -49.334 -27.5 -86.001s9.33301 -65.667 28 -87s43.667 -32 75 -32c32 0 57 10.5 75 31.5zM199.001 632.502
c-36.667 26.333 -60.3311 64.166 -70.998 113.499l77 34c30 -51.333 69.667 -77 119 -77c48.667 0 88 25.667 118 77l77 -34c-10.667 -49.333 -34.334 -87.166 -71.001 -113.499s-78 -39.5 -124 -39.5c-46.667 0 -88.334 13.167 -125.001 39.5z" />
    <glyph glyph-name="Gdotaccent" unicode="&#x120;" horiz-adv-x="751" 
d="M696 402l0.000976562 -357.002c-38 -17.333 -80.5 -30.666 -127.5 -39.999s-95.167 -14 -144.5 -14c-77.333 0 -144.5 14.667 -201.5 44s-100.833 71.5 -131.5 126.5s-46 120.167 -46 195.5c0 73.333 15.333 137.5 46 192.5s74 97.333 130 127s121.333 44.5 196 44.5
c51.333 0 99.833 -6.66699 145.5 -20s82.834 -31.666 111.501 -54.999l-59 -133c-32.667 21.333 -64.167 36.833 -94.5 46.5s-62.833 14.5 -97.5 14.5c-63.333 0 -110.5 -17.833 -141.5 -53.5s-46.5 -90.167 -46.5 -163.5c0 -76 16.167 -132.333 48.5 -169
s82.166 -55 149.499 -55c31.333 0 62.666 3.33301 93.999 10v132h-124v127h293zM322.001 933.998h189v-163h-189v163z" />
    <glyph glyph-name="gdotaccent" unicode="&#x121;" horiz-adv-x="647" 
d="M595 508l0.000976562 -475.999c0 -83.333 -25 -146.833 -75 -190.5s-123.333 -65.5 -220 -65.5c-82.667 0 -154.334 14.667 -215.001 44l27 132c30 -13.333 60.833 -23.833 92.5 -31.5s61.5 -11.5 89.5 -11.5c41.333 0 71.833 8.83301 91.5 26.5s29.5 45.167 29.5 82.5
v75c-16.667 -22 -39.167 -40.667 -67.5 -56s-58.5 -23 -90.5 -23c-43.333 0 -82.166 10.5 -116.499 31.5s-61.166 50.667 -80.499 89s-29 82.833 -29 133.5c0 50 9.66699 94.167 29 132.5s46.166 68.166 80.499 89.499s73.166 32 116.499 32c34 0 65 -7 93 -21
s49.667 -33 65 -57v64h180zM388.001 180.501c18 21 27 50.168 27 87.501c0 36 -9 64.5 -27 85.5s-43 31.5 -75 31.5s-57.167 -10.333 -75.5 -31s-27.5 -49.334 -27.5 -86.001s9.33301 -65.667 28 -87s43.667 -32 75 -32c32 0 57 10.5 75 31.5zM229.001 757.002h189v-163
h-189v163z" />
    <glyph glyph-name="Gcommaaccent" unicode="&#x122;" horiz-adv-x="751" 
d="M696 402l0.000976562 -357.002c-38 -17.333 -80.5 -30.666 -127.5 -39.999s-95.167 -14 -144.5 -14c-77.333 0 -144.5 14.667 -201.5 44s-100.833 71.5 -131.5 126.5s-46 120.167 -46 195.5c0 73.333 15.333 137.5 46 192.5s74 97.333 130 127s121.333 44.5 196 44.5
c51.333 0 99.833 -6.66699 145.5 -20s82.834 -31.666 111.501 -54.999l-59 -133c-32.667 21.333 -64.167 36.833 -94.5 46.5s-62.833 14.5 -97.5 14.5c-63.333 0 -110.5 -17.833 -141.5 -53.5s-46.5 -90.167 -46.5 -163.5c0 -76 16.167 -132.333 48.5 -169
s82.166 -55 149.499 -55c31.333 0 62.666 3.33301 93.999 10v132h-124v127h293zM509.001 -64.002v-67c0 -33.333 -4.83301 -62 -14.5 -86s-26.167 -46.333 -49.5 -67l-62 42c18 16 29 32.667 33 50h-79v128h172z" />
    <glyph glyph-name="gcommaaccent" unicode="&#x123;" horiz-adv-x="647" 
d="M595 508l0.000976562 -475.999c0 -83.333 -25 -146.833 -75 -190.5s-123.333 -65.5 -220 -65.5c-82.667 0 -154.334 14.667 -215.001 44l27 132c30 -13.333 60.833 -23.833 92.5 -31.5s61.5 -11.5 89.5 -11.5c41.333 0 71.833 8.83301 91.5 26.5s29.5 45.167 29.5 82.5
v75c-16.667 -22 -39.167 -40.667 -67.5 -56s-58.5 -23 -90.5 -23c-43.333 0 -82.166 10.5 -116.499 31.5s-61.166 50.667 -80.499 89s-29 82.833 -29 133.5c0 50 9.66699 94.167 29 132.5s46.166 68.166 80.499 89.499s73.166 32 116.499 32c34 0 65 -7 93 -21
s49.667 -33 65 -57v64h180zM388.001 180.501c18 21 27 50.168 27 87.501c0 36 -9 64.5 -27 85.5s-43 31.5 -75 31.5s-57.167 -10.333 -75.5 -31s-27.5 -49.334 -27.5 -86.001s9.33301 -65.667 28 -87s43.667 -32 75 -32c32 0 57 10.5 75 31.5zM409.001 730.002v-128.001
h-172v67c0 33.333 4.83301 62.333 14.5 87s26.167 47 49.5 67l62 -41c-18 -17.333 -29 -34.666 -33 -51.999h79z" />
    <glyph glyph-name="Hcircumflex" unicode="&#x124;" horiz-adv-x="784" 
d="M536 712h184v-712h-184v288h-288v-288h-184v712h184v-277h288v277zM334 773h-131l139 158h99l139 -158h-131l-57 78z" />
    <glyph glyph-name="hcircumflex" unicode="&#x125;" horiz-adv-x="624" 
d="M528.5 467.5c29.667 -36.333 44.501 -91.167 44.501 -164.5v-303h-181v295c0 31.333 -5.33301 53.833 -16 67.5s-27.334 20.5 -50.001 20.5c-27.333 0 -49.333 -9.16699 -66 -27.5s-25 -42.5 -25 -72.5v-283h-181v736h181v-290c39.333 50.667 92.333 76 159 76
c60 0 104.833 -18.167 134.5 -54.5zM90.001 796.999h-131l139 158h99l139 -158h-131l-57 78z" />
    <glyph glyph-name="Hbar" unicode="&#x126;" horiz-adv-x="858" 
d="M840 644v-136h-83v-508h-184v288h-288v-288h-184v508h-84v136h84v68h184v-68h288v68h184v-68h83zM573 435v73h-288v-73h288z" />
    <glyph glyph-name="hbar" unicode="&#x127;" horiz-adv-x="624" 
d="M528.5 467.5c29.667 -36.333 44.501 -91.167 44.501 -164.5v-303h-181v295c0 31.333 -5.33301 53.833 -16 67.5s-27.334 20.5 -50.001 20.5c-27.333 0 -49.333 -9.16699 -66 -27.5s-25 -42.5 -25 -72.5v-283h-181v550h-85v124h85v62h181v-62h189v-124h-189v-104
c39.333 50.667 92.333 76 159 76c60 0 104.833 -18.167 134.5 -54.5z" />
    <glyph glyph-name="Itilde" unicode="&#x128;" horiz-adv-x="316" 
d="M64 0v712h188v-712h-188zM9 894.5c22 26.333 50 39.5 84 39.5c11.333 0 22.333 -2.16699 33 -6.5s24 -11.166 40 -20.499c12.667 -7.33301 23.334 -13 32.001 -17s17 -6 25 -6c11.333 0 20.666 4 27.999 12s12 19.667 14 35h72c0 -54 -11 -94.167 -33 -120.5
s-50 -39.5 -84 -39.5c-11.333 0 -22.333 2.16699 -33 6.5s-24 11.166 -40 20.499c-12.667 7.33301 -23.334 13 -32.001 17s-17 6 -25 6c-11.333 0 -20.666 -4 -27.999 -12s-12 -19.667 -14 -35h-72c0 54 11 94.167 33 120.5z" />
    <glyph glyph-name="itilde" unicode="&#x129;" horiz-adv-x="289" 
d="M54 0v508h181v-508h-181zM-4 719.5c22 26.333 50 39.5 84 39.5c11.333 0 22.333 -2.16699 33 -6.5s24 -11.166 40 -20.499c12.667 -7.33301 23.334 -13 32.001 -17s17 -6 25 -6c11.333 0 20.666 4 27.999 12s12 19.667 14 35h72c0 -54 -11 -94.167 -33 -120.5
s-50 -39.5 -84 -39.5c-11.333 0 -22.333 2.16699 -33 6.5s-24 11.166 -40 20.499c-12.667 7.33301 -23.334 13 -32.001 17s-17 6 -25 6c-11.333 0 -20.666 -4 -27.999 -12s-12 -19.667 -14 -35h-72c0 54 11 94.167 33 120.5z" />
    <glyph glyph-name="Imacron" unicode="&#x12a;" horiz-adv-x="316" 
d="M64 0v712h188v-712h-188zM-4 798v108h321v-108h-321z" />
    <glyph glyph-name="imacron" unicode="&#x12b;" horiz-adv-x="289" 
d="M54 0v508h181v-508h-181zM-17 621v108h321v-108h-321z" />
    <glyph glyph-name="Ibreve" unicode="&#x12c;" horiz-adv-x="316" 
d="M64 0v712h188v-712h-188zM38 810c-32.667 19.333 -54.999 46.666 -66.999 81.999l77 33c20 -27.333 56.333 -41 109 -41c52 0 88 13.667 108 41l77 -33c-12 -35.333 -34.333 -62.666 -67 -81.999s-72 -29 -118 -29c-46.667 0 -86.334 9.66699 -119.001 29z" />
    <glyph glyph-name="ibreve" unicode="&#x12d;" horiz-adv-x="289" 
d="M54 0v508h181v-508h-181zM19 632.5c-36.667 26.333 -60.3311 64.166 -70.998 113.499l77 34c30 -51.333 69.667 -77 119 -77c48.667 0 88 25.667 118 77l77 -34c-10.667 -49.333 -34.334 -87.166 -71.001 -113.499s-78 -39.5 -124 -39.5
c-46.667 0 -88.334 13.167 -125.001 39.5z" />
    <glyph glyph-name="Iogonek" unicode="&#x12e;" horiz-adv-x="316" 
d="M281 -181c-33.333 -12.667 -69 -19 -107 -19c-38.667 0 -70.667 10.333 -96 31s-38 48.667 -38 84c0 32.667 11.667 61 35 85h-11v712h188v-712h-18c-24.667 0 -44.5 -5.5 -59.5 -16.5s-22.5 -25.833 -22.5 -44.5c0 -33.333 19.333 -50 58 -50c15.333 0 33 3.66699 53 11
z" />
    <glyph glyph-name="iogonek" unicode="&#x12f;" horiz-adv-x="289" 
d="M239 761v-164h-188v164h188zM271 -185c-35.333 -14 -71.333 -21.001 -108 -21.001c-38.667 0 -70.834 10.833 -96.501 32.5s-38.5 50.5 -38.5 86.5c0 34 12 63 36 87h-10v508h181v-508h-11c-25.333 0 -45.666 -5.66699 -60.999 -17s-23 -26.666 -23 -45.999
c0 -34.667 19.667 -52 59 -52c17.333 0 35.333 4 54 12z" />
    <glyph glyph-name="Idotaccent" unicode="&#x130;" horiz-adv-x="316" 
d="M64 0v712h188v-712h-188zM62 934h189v-163h-189v163z" />
    <glyph glyph-name="dotlessi" unicode="&#x131;" horiz-adv-x="289" 
d="M54 0v508h181v-508h-181z" />
    <glyph glyph-name="Jcircumflex" unicode="&#x134;" horiz-adv-x="403" 
d="M2 -29c33.333 -3.33301 57.668 -5 73.001 -5c30 0 50 6 60 18s15 35 15 69v659h188v-656c0 -84 -17 -145.667 -51 -185s-92.333 -59 -175 -59c-32.667 0 -69.334 3 -110.001 9v150zM185.002 773h-131l139 158h99l139 -158h-131l-57 78z" />
    <glyph glyph-name="jcircumflex" unicode="&#x135;" horiz-adv-x="289" 
d="M-20 -79c21.333 0 39.002 6.16895 53.002 18.502s21 31.166 21 56.499v512h181v-514c0 -68.667 -17.833 -122.334 -53.5 -161.001s-87.834 -58 -156.501 -58c-38.667 0 -70 4.66699 -94 14v139c19.333 -4.66699 35.666 -7 48.999 -7zM90.002 573.002h-136l136 208h105
l136 -208h-136l-52 106z" />
    <glyph glyph-name="Kcommaaccent" unicode="&#x136;" horiz-adv-x="706" 
d="M760 0h-223l-285 323v-323h-188v712h188v-306l277 306h220l-315 -338zM440 -64v-67c0 -33.333 -4.83301 -62 -14.5 -86s-26.167 -46.333 -49.5 -67l-62 42c18 16 29 32.667 33 50h-79v128h172z" />
    <glyph glyph-name="kcommaaccent" unicode="&#x137;" horiz-adv-x="598" 
d="M627 0h-219l-173 219v-219h-181v736h181v-440l170 211h214l-200 -243zM383 -64v-67c0 -33.333 -4.83301 -62 -14.5 -86s-26.167 -46.333 -49.5 -67l-62 42c18 16 29 32.667 33 50h-79v128h172z" />
    <glyph glyph-name="kgreenlandic" unicode="&#x138;" horiz-adv-x="598" 
d="M627 0h-219l-173 219v-219h-181v508h181v-212l170 211h214l-200 -243z" />
    <glyph glyph-name="Lacute" unicode="&#x139;" horiz-adv-x="579" 
d="M64 0v712h188v-560h301v-152h-489zM211 773h-109l104 158h162z" />
    <glyph glyph-name="lacute" unicode="&#x13a;" horiz-adv-x="289" 
d="M54 0v736h181v-736h-181zM198 797h-109l104 158h162z" />
    <glyph glyph-name="Lcommaaccent" unicode="&#x13b;" horiz-adv-x="579" 
d="M64 0v712h188v-560h301v-152h-489zM402 -64v-67c0 -33.333 -4.83301 -62 -14.5 -86s-26.167 -46.333 -49.5 -67l-62 42c18 16 29 32.667 33 50h-79v128h172z" />
    <glyph glyph-name="lcommaaccent" unicode="&#x13c;" horiz-adv-x="289" 
d="M54 0v736h181v-736h-181zM229 -64v-67c0 -33.333 -4.83301 -62 -14.5 -86s-26.167 -46.333 -49.5 -67l-62 42c18 16 29 32.667 33 50h-79v128h172z" />
    <glyph glyph-name="Lcaron" unicode="&#x13d;" horiz-adv-x="579" 
d="M64 0v712h188v-560h301v-152h-489zM424 515h-82v197h108z" />
    <glyph glyph-name="lcaron" unicode="&#x13e;" horiz-adv-x="289" 
d="M54 0v736h181v-736h-181zM318 535h-59v201h85z" />
    <glyph glyph-name="Ldot" unicode="&#x13f;" horiz-adv-x="579" 
d="M64 0v712h188v-560h301v-152h-489zM318 437h187v-161h-187v161z" />
    <glyph glyph-name="ldot" unicode="&#x140;" horiz-adv-x="427" 
d="M54 0v736h181v-736h-181zM262 438h187v-161h-187v161z" />
    <glyph glyph-name="Lslash" unicode="&#x141;" horiz-adv-x="617" 
d="M289 152h302v-152h-490v226l-91 -52v157l91 53v328h188v-220l183 106v-159l-183 -105v-182z" />
    <glyph glyph-name="lslash" unicode="&#x142;" horiz-adv-x="388" 
d="M408 409l-124 -71v-338h-181v234l-57 -33l-66 119l123 72v344h181v-239l57 33z" />
    <glyph glyph-name="Nacute" unicode="&#x143;" horiz-adv-x="766" 
d="M524 712h177v-712h-139l-323 404v-404h-175v712h137l323 -402v402zM436 773h-109l104 158h162z" />
    <glyph glyph-name="nacute" unicode="&#x144;" horiz-adv-x="624" 
d="M528.5 467.5c29.667 -36.333 44.501 -91.168 44.501 -164.501v-303h-181v295c0 31.333 -5.33301 53.833 -16 67.5s-27.334 20.5 -50.001 20.5c-27.333 0 -49.333 -9.16699 -66 -27.5s-25 -42.5 -25 -72.5v-283h-181v362c0 54.667 -2.66699 103.334 -8 146.001h170l9 -75
c19.333 28.667 43.333 50.667 72 66s61 23 97 23c60 0 104.833 -18.167 134.5 -54.5zM368.001 572.998h-109l98 208h172z" />
    <glyph glyph-name="Ncommaaccent" unicode="&#x145;" horiz-adv-x="766" 
d="M524 712h177v-712h-139l-323 404v-404h-175v712h137l323 -402v402zM468 -64v-67c0 -33.333 -4.83301 -62 -14.5 -86s-26.167 -46.333 -49.5 -67l-62 42c18 16 29 32.667 33 50h-79v128h172z" />
    <glyph glyph-name="ncommaaccent" unicode="&#x146;" horiz-adv-x="624" 
d="M528.5 467.5c29.667 -36.333 44.501 -91.168 44.501 -164.501v-303h-181v295c0 31.333 -5.33301 53.833 -16 67.5s-27.334 20.5 -50.001 20.5c-27.333 0 -49.333 -9.16699 -66 -27.5s-25 -42.5 -25 -72.5v-283h-181v362c0 54.667 -2.66699 103.334 -8 146.001h170l9 -75
c19.333 28.667 43.333 50.667 72 66s61 23 97 23c60 0 104.833 -18.167 134.5 -54.5zM399.001 -64.002v-67c0 -33.333 -4.83301 -62 -14.5 -86s-26.167 -46.333 -49.5 -67l-62 42c18 16 29 32.667 33 50h-79v128h172z" />
    <glyph glyph-name="Ncaron" unicode="&#x147;" horiz-adv-x="766" 
d="M524 712h177v-712h-139l-323 404v-404h-175v712h137l323 -402v402zM439 931h131l-139 -158h-99l-139 158h131l58 -79z" />
    <glyph glyph-name="ncaron" unicode="&#x148;" horiz-adv-x="624" 
d="M528.5 467.5c29.667 -36.333 44.501 -91.168 44.501 -164.501v-303h-181v295c0 31.333 -5.33301 53.833 -16 67.5s-27.334 20.5 -50.001 20.5c-27.333 0 -49.333 -9.16699 -66 -27.5s-25 -42.5 -25 -72.5v-283h-181v362c0 54.667 -2.66699 103.334 -8 146.001h170l9 -75
c19.333 28.667 43.333 50.667 72 66s61 23 97 23c60 0 104.833 -18.167 134.5 -54.5zM366.001 780.998h136l-136 -208h-105l-136 208h136l53 -107z" />
    <glyph glyph-name="napostrophe" unicode="&#x149;" horiz-adv-x="624" 
d="M235 770v-68.001c0 -33.333 -4.83301 -62.166 -14.5 -86.499s-26.167 -46.833 -49.5 -67.5l-62 43c16.667 15.333 27.667 32 33 50h-79v129h172zM528.5 467.499c29.667 -36.333 44.501 -91.168 44.501 -164.501v-303h-181v295c0 31.333 -5.33301 53.833 -16 67.5
s-27.334 20.5 -50.001 20.5c-27.333 0 -49.333 -9.16699 -66 -27.5s-25 -42.5 -25 -72.5v-283h-181v362c0 54.667 -2.66699 103.334 -8 146.001h170l9 -75c19.333 28.667 43.333 50.667 72 66s61 23 97 23c60 0 104.833 -18.167 134.5 -54.5z" />
    <glyph glyph-name="Eng" unicode="&#x14a;" horiz-adv-x="766" 
d="M701 712l0.000976562 -673.002c0 -141.333 -75 -216 -225 -224l-104 -5l-12 139l82 5c25.333 0.666992 45.166 8.33398 59.499 23.001s21.5 33.334 21.5 56.001v17l-284 354v-404h-175v712h137l323 -402v402h177z" />
    <glyph glyph-name="eng" unicode="&#x14b;" horiz-adv-x="624" 
d="M528.5 467.5c29.667 -36.333 44.5 -91.168 44.5 -164.501v-288c0 -78 -17.333 -137.5 -52 -178.5s-86.667 -61.5 -156 -61.5c-35.333 0 -67.666 3.33301 -96.999 10v143c18.667 -4.66699 35 -7 49 -7c50 0 75 31.667 75 95v279c0 31.333 -5.33301 53.833 -16 67.5
s-27.334 20.5 -50.001 20.5c-27.333 0 -49.333 -9.16699 -66 -27.5s-25 -42.5 -25 -72.5v-283h-181v362c0 54.667 -2.66699 103.334 -8 146.001h170l9 -75c19.333 28.667 43.333 50.667 72 66s61 23 97 23c60 0 104.833 -18.167 134.5 -54.5z" />
    <glyph glyph-name="Omacron" unicode="&#x14c;" horiz-adv-x="805" 
d="M213 35.5c-54 29.667 -95.501 72.167 -124.501 127.5s-43.5 120 -43.5 194s14.667 138.333 44 193s70.833 96.834 124.5 126.501s116.834 44.5 189.501 44.5s135.834 -14.833 189.501 -44.5s94.834 -71.834 123.501 -126.501s43 -119 43 -193s-14.333 -138.667 -43 -194
s-69.834 -97.833 -123.501 -127.5s-116.834 -44.5 -189.501 -44.5s-136 14.833 -190 44.5zM528.499 191c30.333 38 45.5 93.333 45.5 166c0 72 -15.167 126.833 -45.5 164.5s-72.166 56.5 -125.499 56.5s-95 -18.667 -125 -56s-45 -92.333 -45 -165
c0 -73.333 15 -128.833 45 -166.5s71.667 -56.5 125 -56.5s95.166 19 125.499 57zM240.999 798v108h321v-108h-321z" />
    <glyph glyph-name="omacron" unicode="&#x14d;" horiz-adv-x="618" 
d="M162 24c-42 21.333 -74.333 52.002 -97 92.002s-34 87 -34 141s11.333 101 34 141s55 70.667 97 92s91.333 32 148 32c56 0 104.833 -10.833 146.5 -32.5s73.834 -52.334 96.501 -92.001s34 -86.5 34 -140.5s-11.333 -100.833 -34 -140.5
s-54.834 -70.334 -96.501 -92.001s-90.5 -32.5 -146.5 -32.5c-56.667 0 -106 10.667 -148 32zM408 257.002c0 44 -8.16699 76.5 -24.5 97.5s-40.833 31.5 -73.5 31.5c-33.333 0 -58.333 -10.5 -75 -31.5s-25 -53.5 -25 -97.5c0 -44.667 8.33301 -77.5 25 -98.5
s41.667 -31.5 75 -31.5c65.333 0 98 43.333 98 130zM149 621.002v108h321v-108h-321z" />
    <glyph glyph-name="Obreve" unicode="&#x14e;" horiz-adv-x="805" 
d="M213 35.5c-54 29.667 -95.501 72.167 -124.501 127.5s-43.5 120 -43.5 194s14.667 138.333 44 193s70.833 96.834 124.5 126.501s116.834 44.5 189.501 44.5s135.834 -14.833 189.501 -44.5s94.834 -71.834 123.501 -126.501s43 -119 43 -193s-14.333 -138.667 -43 -194
s-69.834 -97.833 -123.501 -127.5s-116.834 -44.5 -189.501 -44.5s-136 14.833 -190 44.5zM528.499 191c30.333 38 45.5 93.333 45.5 166c0 72 -15.167 126.833 -45.5 164.5s-72.166 56.5 -125.499 56.5s-95 -18.667 -125 -56s-45 -92.333 -45 -165
c0 -73.333 15 -128.833 45 -166.5s71.667 -56.5 125 -56.5s95.166 19 125.499 57zM282.999 810c-32.667 19.333 -54.999 46.666 -66.999 81.999l77 33c20 -27.333 56.333 -41 109 -41c52 0 88 13.667 108 41l77 -33c-12 -35.333 -34.333 -62.666 -67 -81.999
s-72 -29 -118 -29c-46.667 0 -86.334 9.66699 -119.001 29z" />
    <glyph glyph-name="obreve" unicode="&#x14f;" horiz-adv-x="618" 
d="M162 24c-42 21.333 -74.333 52.002 -97 92.002s-34 87 -34 141s11.333 101 34 141s55 70.667 97 92s91.333 32 148 32c56 0 104.833 -10.833 146.5 -32.5s73.834 -52.334 96.501 -92.001s34 -86.5 34 -140.5s-11.333 -100.833 -34 -140.5
s-54.834 -70.334 -96.501 -92.001s-90.5 -32.5 -146.5 -32.5c-56.667 0 -106 10.667 -148 32zM408 257.002c0 44 -8.16699 76.5 -24.5 97.5s-40.833 31.5 -73.5 31.5c-33.333 0 -58.333 -10.5 -75 -31.5s-25 -53.5 -25 -97.5c0 -44.667 8.33301 -77.5 25 -98.5
s41.667 -31.5 75 -31.5c65.333 0 98 43.333 98 130zM185 632.502c-36.667 26.333 -60.3311 64.166 -70.998 113.499l77 34c30 -51.333 69.667 -77 119 -77c48.667 0 88 25.667 118 77l77 -34c-10.667 -49.333 -34.334 -87.166 -71.001 -113.499s-78 -39.5 -124 -39.5
c-46.667 0 -88.334 13.167 -125.001 39.5z" />
    <glyph glyph-name="Ohungarumlaut" unicode="&#x150;" horiz-adv-x="805" 
d="M213 35.5c-54 29.667 -95.501 72.167 -124.501 127.5s-43.5 120 -43.5 194s14.667 138.333 44 193s70.833 96.834 124.5 126.501s116.834 44.5 189.501 44.5s135.834 -14.833 189.501 -44.5s94.834 -71.834 123.501 -126.501s43 -119 43 -193s-14.333 -138.667 -43 -194
s-69.834 -97.833 -123.501 -127.5s-116.834 -44.5 -189.501 -44.5s-136 14.833 -190 44.5zM528.499 191c30.333 38 45.5 93.333 45.5 166c0 72 -15.167 126.833 -45.5 164.5s-72.166 56.5 -125.499 56.5s-95 -18.667 -125 -56s-45 -92.333 -45 -165
c0 -73.333 15 -128.833 45 -166.5s71.667 -56.5 125 -56.5s95.166 19 125.499 57zM282.999 773l75 158h115l-102 -158h-88zM431.999 773l75 158h114l-101 -158h-88z" />
    <glyph glyph-name="ohungarumlaut" unicode="&#x151;" horiz-adv-x="618" 
d="M162 24c-42 21.333 -74.333 52.002 -97 92.002s-34 87 -34 141s11.333 101 34 141s55 70.667 97 92s91.333 32 148 32c56 0 104.833 -10.833 146.5 -32.5s73.834 -52.334 96.501 -92.001s34 -86.5 34 -140.5s-11.333 -100.833 -34 -140.5
s-54.834 -70.334 -96.501 -92.001s-90.5 -32.5 -146.5 -32.5c-56.667 0 -106 10.667 -148 32zM408 257.002c0 44 -8.16699 76.5 -24.5 97.5s-40.833 31.5 -73.5 31.5c-33.333 0 -58.333 -10.5 -75 -31.5s-25 -53.5 -25 -97.5c0 -44.667 8.33301 -77.5 25 -98.5
s41.667 -31.5 75 -31.5c65.333 0 98 43.333 98 130zM273 573.002h-75l30 208h124zM421 573.002h-75l29 208h124z" />
    <glyph glyph-name="OE" unicode="&#x152;" horiz-adv-x="1053" 
d="M697 568v-133.997h305v-144h-305v-146h325v-144h-496v32c-34.667 -27.333 -83.667 -41 -147 -41c-64 0 -121.333 15.667 -172 47s-90.334 74.666 -119.001 129.999s-43 118.333 -43 189c0 69.333 14.333 131.666 43 186.999s68.334 98.666 119.001 129.999s108 47 172 47
s113 -13 147 -39v30h496v-144h-325zM277 191.503c29.333 -38.333 71.333 -57.5 126 -57.5c46 0 83 9 111 27v390c-28 18 -65 27 -111 27c-54.667 0 -96.667 -19 -126 -57s-44 -92.667 -44 -164c0 -72 14.667 -127.167 44 -165.5z" />
    <glyph glyph-name="oe" unicode="&#x153;" horiz-adv-x="928" 
d="M897 219l-311.003 0.00195312c4.66699 -33.333 15.334 -57.333 32.001 -72s40.667 -22 72 -22c27.333 0 54 4 80 12s49.667 19.667 71 35l47 -120c-25.333 -18.667 -55.833 -33.334 -91.5 -44.001s-71.834 -16 -108.501 -16c-85.333 0 -149.666 25.333 -192.999 76
c-21.333 -24.667 -48.333 -43.5 -81 -56.5s-69 -19.5 -109 -19.5c-55.333 0 -103.666 10.833 -144.999 32.5s-73.166 52.5 -95.499 92.5s-33.5 86.667 -33.5 140s11.167 100 33.5 140s54.166 70.833 95.499 92.5s89.666 32.5 144.999 32.5
c40.667 0 77.334 -6.66699 110.001 -20s60 -32.666 82 -57.999c21.333 25.333 47 44.666 77 57.999s63.667 20 101 20c42.667 0 80.834 -11.167 114.501 -33.5s60 -53.333 79 -93s28.5 -84.834 28.5 -135.501v-41zM611.497 374.502
c-14.333 -15.667 -23.167 -38.833 -26.5 -69.5h159c-2 30 -9.33301 53 -22 69s-30 24 -52 24c-24.667 0 -44.167 -7.83301 -58.5 -23.5zM378.996 158.503c16 21 24 53.832 24 98.499s-8 77.334 -24 98.001s-40 31 -72 31c-64.667 0 -97 -43 -97 -129
c0 -86.667 32.333 -130 97 -130c32 0 56 10.5 72 31.5z" />
    <glyph glyph-name="Racute" unicode="&#x154;" horiz-adv-x="714" 
d="M683 0l-198.999 0.000976562l-92 237c-10.667 26.667 -35.667 40 -75 40h-68v-277h-185v712h331c86 0 150.667 -18.5 194 -55.5s65 -89.833 65 -158.5c0 -48 -12.833 -89.5 -38.5 -124.5s-61.834 -59.833 -108.501 -74.5c20 -4 38 -13.333 54 -28
s28.667 -34.334 38 -59.001zM452.001 435.501c18 12.333 27.001 31.5 27.001 57.5c0 27.333 -8.83301 47 -26.5 59s-46.834 18 -87.501 18h-118v-153h118c40 0 69 6.16699 87 18.5zM415.002 773.001h-109l104 158h162z" />
    <glyph glyph-name="racute" unicode="&#x155;" horiz-adv-x="430" 
d="M432 509l0.000976562 -165.001c-28.667 13.333 -56.334 20 -83.001 20c-76 0 -114 -36.333 -114 -109v-255h-181v362c0 54.667 -2.66699 103.334 -8 146.001h170l11 -85c12 31.333 31.333 55.333 58 72s56.667 25 90 25c24.667 0 43.667 -3.66699 57 -11z
M303.001 572.999h-109l98 208h172z" />
    <glyph glyph-name="Rcommaaccent" unicode="&#x156;" horiz-adv-x="714" 
d="M683 0l-198.999 0.000976562l-92 237c-10.667 26.667 -35.667 40 -75 40h-68v-277h-185v712h331c86 0 150.667 -18.5 194 -55.5s65 -89.833 65 -158.5c0 -48 -12.833 -89.5 -38.5 -124.5s-61.834 -59.833 -108.501 -74.5c20 -4 38 -13.333 54 -28
s28.667 -34.334 38 -59.001zM452.001 435.501c18 12.333 27.001 31.5 27.001 57.5c0 27.333 -8.83301 47 -26.5 59s-46.834 18 -87.501 18h-118v-153h118c40 0 69 6.16699 87 18.5zM447.002 -63.999v-67c0 -33.333 -4.83301 -62 -14.5 -86s-26.167 -46.333 -49.5 -67l-62 42
c18 16 29 32.667 33 50h-79v128h172z" />
    <glyph glyph-name="rcommaaccent" unicode="&#x157;" horiz-adv-x="430" 
d="M432 509l0.000976562 -165.001c-28.667 13.333 -56.334 20 -83.001 20c-76 0 -114 -36.333 -114 -109v-255h-181v362c0 54.667 -2.66699 103.334 -8 146.001h170l11 -85c12 31.333 31.333 55.333 58 72s56.667 25 90 25c24.667 0 43.667 -3.66699 57 -11z
M229.001 -64.001v-67c0 -33.333 -4.83301 -62 -14.5 -86s-26.167 -46.333 -49.5 -67l-62 42c18 16 29 32.667 33 50h-79v128h172z" />
    <glyph glyph-name="Rcaron" unicode="&#x158;" horiz-adv-x="714" 
d="M683 0l-198.999 0.000976562l-92 237c-10.667 26.667 -35.667 40 -75 40h-68v-277h-185v712h331c86 0 150.667 -18.5 194 -55.5s65 -89.833 65 -158.5c0 -48 -12.833 -89.5 -38.5 -124.5s-61.834 -59.833 -108.501 -74.5c20 -4 38 -13.333 54 -28
s28.667 -34.334 38 -59.001zM452.001 435.501c18 12.333 27.001 31.5 27.001 57.5c0 27.333 -8.83301 47 -26.5 59s-46.834 18 -87.501 18h-118v-153h118c40 0 69 6.16699 87 18.5zM418.002 931.001h131l-139 -158h-99l-139 158h131l58 -79z" />
    <glyph glyph-name="rcaron" unicode="&#x159;" horiz-adv-x="430" 
d="M432 509l0.000976562 -165.001c-28.667 13.333 -56.334 20 -83.001 20c-76 0 -114 -36.333 -114 -109v-255h-181v362c0 54.667 -2.66699 103.334 -8 146.001h170l11 -85c12 31.333 31.333 55.333 58 72s56.667 25 90 25c24.667 0 43.667 -3.66699 57 -11z
M301.001 780.999h136l-136 -208h-105l-136 208h136l53 -107z" />
    <glyph glyph-name="Sacute" unicode="&#x15a;" horiz-adv-x="672" 
d="M164 12c-52 14 -94.333 32.999 -127 56.999l59 133c34.667 -22 71.5 -38.833 110.5 -50.5s78.167 -17.5 117.5 -17.5c40 0 70.667 5.5 92 16.5s32 26.5 32 46.5c0 18 -9.66699 32.833 -29 44.5s-55.666 23.167 -108.999 34.5
c-67.333 13.333 -119.666 29.833 -156.999 49.5s-63.5 42.834 -78.5 69.501s-22.5 59 -22.5 97c0 43.333 12.333 82.5 37 117.5s59.334 62.333 104.001 82s95.667 29.5 153 29.5c51.333 0 101.166 -7.16699 149.499 -21.5s86.166 -33.166 113.499 -56.499l-58 -133
c-31.333 22 -64.333 38.833 -99 50.5s-69.334 17.5 -104.001 17.5c-34 0 -61.333 -6.5 -82 -19.5s-31 -30.5 -31 -52.5c0 -12 3.66699 -22 11 -30s21 -15.833 41 -23.5s50 -15.834 90 -24.501c64.667 -14 115.5 -30.833 152.5 -50.5s63.167 -42.667 78.5 -69
s23 -57.833 23 -94.5c0 -69.333 -27 -123.833 -81 -163.5s-130 -59.5 -228 -59.5c-53.333 0 -106 7 -158 21zM394 772.999h-109l104 158h162z" />
    <glyph glyph-name="sacute" unicode="&#x15b;" horiz-adv-x="507" 
d="M19 53l45.999 123c27.333 -18.667 58.333 -33.167 93 -43.5s68.667 -15.5 102 -15.5c20.667 0 36.667 3 48 9s17 14.333 17 25c0 9.33301 -4.16699 16.833 -12.5 22.5s-24.166 10.834 -47.499 15.501l-82 19c-52 10.667 -89.5 27.5 -112.5 50.5s-34.5 54.833 -34.5 95.5
c0 32.667 9.66699 61.667 29 87s46.166 45.166 80.499 59.499s73.833 21.5 118.5 21.5c36.667 0 72.667 -5.33301 108 -16s68.333 -25.667 99 -45l-48 -120c-26.667 17.333 -54 30.666 -82 39.999s-54.333 14 -79 14c-20 0 -35.667 -3.16699 -47 -9.5s-17 -15.5 -17 -27.5
c0 -7.33301 3.33301 -13.166 10 -17.499s19.334 -8.83301 38.001 -13.5l85 -19c54 -12.667 92.833 -31.167 116.5 -55.5s35.5 -57.5 35.5 -99.5c0 -50 -19.833 -89.333 -59.5 -118s-94.5 -43 -164.5 -43c-101.333 0 -181.333 20.333 -240 61zM315.999 573h-109l98 208h172z
" />
    <glyph glyph-name="Scircumflex" unicode="&#x15c;" horiz-adv-x="672" 
d="M164 12c-52 14 -94.333 32.999 -127 56.999l59 133c34.667 -22 71.5 -38.833 110.5 -50.5s78.167 -17.5 117.5 -17.5c40 0 70.667 5.5 92 16.5s32 26.5 32 46.5c0 18 -9.66699 32.833 -29 44.5s-55.666 23.167 -108.999 34.5
c-67.333 13.333 -119.666 29.833 -156.999 49.5s-63.5 42.834 -78.5 69.501s-22.5 59 -22.5 97c0 43.333 12.333 82.5 37 117.5s59.334 62.333 104.001 82s95.667 29.5 153 29.5c51.333 0 101.166 -7.16699 149.499 -21.5s86.166 -33.166 113.499 -56.499l-58 -133
c-31.333 22 -64.333 38.833 -99 50.5s-69.334 17.5 -104.001 17.5c-34 0 -61.333 -6.5 -82 -19.5s-31 -30.5 -31 -52.5c0 -12 3.66699 -22 11 -30s21 -15.833 41 -23.5s50 -15.834 90 -24.501c64.667 -14 115.5 -30.833 152.5 -50.5s63.167 -42.667 78.5 -69
s23 -57.833 23 -94.5c0 -69.333 -27 -123.833 -81 -163.5s-130 -59.5 -228 -59.5c-53.333 0 -106 7 -158 21zM282 772.999h-131l139 158h99l139 -158h-131l-57 78z" />
    <glyph glyph-name="scircumflex" unicode="&#x15d;" horiz-adv-x="507" 
d="M19 53l45.999 123c27.333 -18.667 58.333 -33.167 93 -43.5s68.667 -15.5 102 -15.5c20.667 0 36.667 3 48 9s17 14.333 17 25c0 9.33301 -4.16699 16.833 -12.5 22.5s-24.166 10.834 -47.499 15.501l-82 19c-52 10.667 -89.5 27.5 -112.5 50.5s-34.5 54.833 -34.5 95.5
c0 32.667 9.66699 61.667 29 87s46.166 45.166 80.499 59.499s73.833 21.5 118.5 21.5c36.667 0 72.667 -5.33301 108 -16s68.333 -25.667 99 -45l-48 -120c-26.667 17.333 -54 30.666 -82 39.999s-54.333 14 -79 14c-20 0 -35.667 -3.16699 -47 -9.5s-17 -15.5 -17 -27.5
c0 -7.33301 3.33301 -13.166 10 -17.499s19.334 -8.83301 38.001 -13.5l85 -19c54 -12.667 92.833 -31.167 116.5 -55.5s35.5 -57.5 35.5 -99.5c0 -50 -19.833 -89.333 -59.5 -118s-94.5 -43 -164.5 -43c-101.333 0 -181.333 20.333 -240 61zM208.999 573h-136l136 208h105
l136 -208h-136l-52 106z" />
    <glyph glyph-name="Scedilla" unicode="&#x15e;" horiz-adv-x="672" 
d="M561.5 59.5c-46.333 -39 -111.496 -61.502 -195.496 -67.502l-5 -32h8c27.333 0 48.666 -6.33301 63.999 -19s23 -29.667 23 -51c0 -27.333 -12.333 -49.166 -37 -65.499s-60.334 -24.5 -107.001 -24.5c-14.667 0 -30.834 1.5 -48.501 4.5s-33.834 7.16699 -48.501 12.5
l11 65c36 -9.33301 62.667 -14 80 -14c28.667 0 43 7.33301 43 22c0 11.333 -10.667 17 -32 17c-8 0 -18.667 -1.66699 -32 -5l-20 22l9 69c-45.333 3.33301 -89.333 11.833 -132 25.5s-77.667 30.5 -105 50.5l59 133c34.667 -22 71.5 -38.833 110.5 -50.5
s78.167 -17.5 117.5 -17.5c40 0 70.667 5.5 92 16.5s32 26.5 32 46.5c0 18 -9.66699 32.833 -29 44.5s-55.666 23.167 -108.999 34.5c-67.333 13.333 -119.666 29.833 -156.999 49.5s-63.5 42.834 -78.5 69.501s-22.5 59 -22.5 97c0 43.333 12.333 82.5 37 117.5
s59.334 62.333 104.001 82s95.667 29.5 153 29.5c51.333 0 101.166 -7.16699 149.499 -21.5s86.166 -33.166 113.499 -56.499l-58 -133c-31.333 22 -64.333 38.833 -99 50.5s-69.334 17.5 -104.001 17.5c-34 0 -61.333 -6.5 -82 -19.5s-31 -30.5 -31 -52.5
c0 -12 3.66699 -22 11 -30s21 -15.833 41 -23.5s50 -15.834 90 -24.501c64.667 -14 115.5 -30.833 152.5 -50.5s63.167 -42.667 78.5 -69s23 -57.833 23 -94.5c0 -64 -23.167 -115.5 -69.5 -154.5z" />
    <glyph glyph-name="scedilla" unicode="&#x15f;" horiz-adv-x="507" 
d="M431.5 41c-34.333 -28 -82.1641 -44 -143.497 -48l-5 -33h8c27.333 0 48.666 -6.33301 63.999 -19s23 -29.667 23 -51c0 -27.333 -12.333 -49.166 -37 -65.499s-60.334 -24.5 -107.001 -24.5c-14.667 0 -30.834 1.5 -48.501 4.5s-33.834 7.16699 -48.501 12.5l11 65
c36 -9.33301 62.667 -14 80 -14c28.667 0 43 7.33301 43 22c0 11.333 -10.667 17 -32 17c-8 0 -18.667 -1.66699 -32 -5l-20 22l10 71c-72.667 7.33301 -132 26.666 -178 57.999l46 123c27.333 -18.667 58.333 -33.167 93 -43.5s68.667 -15.5 102 -15.5
c20.667 0 36.667 3 48 9s17 14.333 17 25c0 9.33301 -4.16699 16.833 -12.5 22.5s-24.166 10.834 -47.499 15.501l-82 19c-52 10.667 -89.5 27.5 -112.5 50.5s-34.5 54.833 -34.5 95.5c0 32.667 9.66699 61.667 29 87s46.166 45.166 80.499 59.499s73.833 21.5 118.5 21.5
c36.667 0 72.667 -5.33301 108 -16s68.333 -25.667 99 -45l-48 -120c-26.667 17.333 -54 30.666 -82 39.999s-54.333 14 -79 14c-20 0 -35.667 -3.16699 -47 -9.5s-17 -15.5 -17 -27.5c0 -7.33301 3.33301 -13.166 10 -17.499s19.334 -8.83301 38.001 -13.5l85 -19
c54 -12.667 92.833 -31.167 116.5 -55.5s35.5 -57.5 35.5 -99.5c0 -46.667 -17.167 -84 -51.5 -112z" />
    <glyph glyph-name="Scaron" unicode="&#x160;" horiz-adv-x="672" 
d="M164 12c-52 14 -94.333 32.999 -127 56.999l59 133c34.667 -22 71.5 -38.833 110.5 -50.5s78.167 -17.5 117.5 -17.5c40 0 70.667 5.5 92 16.5s32 26.5 32 46.5c0 18 -9.66699 32.833 -29 44.5s-55.666 23.167 -108.999 34.5
c-67.333 13.333 -119.666 29.833 -156.999 49.5s-63.5 42.834 -78.5 69.501s-22.5 59 -22.5 97c0 43.333 12.333 82.5 37 117.5s59.334 62.333 104.001 82s95.667 29.5 153 29.5c51.333 0 101.166 -7.16699 149.499 -21.5s86.166 -33.166 113.499 -56.499l-58 -133
c-31.333 22 -64.333 38.833 -99 50.5s-69.334 17.5 -104.001 17.5c-34 0 -61.333 -6.5 -82 -19.5s-31 -30.5 -31 -52.5c0 -12 3.66699 -22 11 -30s21 -15.833 41 -23.5s50 -15.834 90 -24.501c64.667 -14 115.5 -30.833 152.5 -50.5s63.167 -42.667 78.5 -69
s23 -57.833 23 -94.5c0 -69.333 -27 -123.833 -81 -163.5s-130 -59.5 -228 -59.5c-53.333 0 -106 7 -158 21zM397 930.999h131l-139 -158h-99l-139 158h131l58 -79z" />
    <glyph glyph-name="scaron" unicode="&#x161;" horiz-adv-x="507" 
d="M19 53l45.999 123c27.333 -18.667 58.333 -33.167 93 -43.5s68.667 -15.5 102 -15.5c20.667 0 36.667 3 48 9s17 14.333 17 25c0 9.33301 -4.16699 16.833 -12.5 22.5s-24.166 10.834 -47.499 15.501l-82 19c-52 10.667 -89.5 27.5 -112.5 50.5s-34.5 54.833 -34.5 95.5
c0 32.667 9.66699 61.667 29 87s46.166 45.166 80.499 59.499s73.833 21.5 118.5 21.5c36.667 0 72.667 -5.33301 108 -16s68.333 -25.667 99 -45l-48 -120c-26.667 17.333 -54 30.666 -82 39.999s-54.333 14 -79 14c-20 0 -35.667 -3.16699 -47 -9.5s-17 -15.5 -17 -27.5
c0 -7.33301 3.33301 -13.166 10 -17.499s19.334 -8.83301 38.001 -13.5l85 -19c54 -12.667 92.833 -31.167 116.5 -55.5s35.5 -57.5 35.5 -99.5c0 -50 -19.833 -89.333 -59.5 -118s-94.5 -43 -164.5 -43c-101.333 0 -181.333 20.333 -240 61zM313.999 781h136l-136 -208
h-105l-136 208h136l53 -107z" />
    <glyph glyph-name="uni0162" unicode="&#x162;" horiz-adv-x="638" 
d="M354 0l-5.99609 -40.001h8c27.333 0 48.666 -6.33301 63.999 -19s23 -29.667 23 -51c0 -27.333 -12.333 -49.166 -37 -65.499s-60.334 -24.5 -107.001 -24.5c-14.667 0 -30.834 1.5 -48.501 4.5s-33.834 7.16699 -48.501 12.5l11 65c36 -9.33301 62.667 -14 80 -14
c28.667 0 43 7.33301 43 22c0 11.333 -10.667 17 -32 17c-8 0 -18.667 -1.66699 -32 -5l-20 22l10 76h-38v560h-212v152h614v-152h-212v-560h-60z" />
    <glyph glyph-name="uni0163" unicode="&#x163;" horiz-adv-x="416" 
d="M295 -8l-4.99512 -32.001h8c27.333 0 48.666 -6.33301 63.999 -19s23 -29.667 23 -51c0 -27.333 -12.333 -49.166 -37 -65.499s-60.334 -24.5 -107.001 -24.5c-14.667 0 -30.834 1.5 -48.501 4.5s-33.834 7.16699 -48.501 12.5l11 65c36 -9.33301 62.667 -14 80 -14
c28.667 0 43 7.33301 43 22c0 11.333 -10.667 17 -32 17c-8 0 -18.667 -1.66699 -32 -5l-20 22l12 87c-36 16.667 -63 42 -81 76s-27 75.333 -27 124v164h-95v133h95v115l181 58v-173h122v-133h-122v-164c0 -24 7.16699 -42.167 21.5 -54.5s32.166 -18.5 53.499 -18.5
c12 0 28 2 48 6v-137c-24.667 -10 -56 -15 -94 -15h-13z" />
    <glyph glyph-name="Tcaron" unicode="&#x164;" horiz-adv-x="638" 
d="M224 0v560h-212v152h614v-152h-212v-560h-190zM376 931h131l-139 -158h-99l-139 158h131l58 -79z" />
    <glyph glyph-name="tcaron" unicode="&#x165;" horiz-adv-x="416" 
d="M314 714h134l-32 -178h-102v178zM300.5 156.5c14.333 -12.333 32.168 -18.501 53.501 -18.501c12 0 28 2 48 6v-137c-24.667 -10 -56 -15 -94 -15c-68.667 0 -120.834 19.333 -156.501 58s-53.5 92.334 -53.5 161.001v164h-95v133h95v115l181 58v-173h122v-133h-122v-164
c0 -24 7.16699 -42.167 21.5 -54.5z" />
    <glyph glyph-name="Tbar" unicode="&#x166;" horiz-adv-x="638" 
d="M626 560h-212v-131h133v-140h-133v-289h-190v289h-133v140h133v131h-212v152h614v-152z" />
    <glyph glyph-name="tbar" unicode="&#x167;" horiz-adv-x="427" 
d="M408 144l0.00195312 -137.001c-24.667 -10 -56.334 -15 -95.001 -15c-68.667 0 -120.834 19.333 -156.501 58s-53.5 92.334 -53.5 161.001v13h-74v125h74v26h-95v133h95v115l183 58v-173h121v-133h-121v-26h100v-125h-100v-13c0 -24 6.83301 -42.167 20.5 -54.5
s31.167 -18.5 52.5 -18.5c12 0 28.333 2 49 6z" />
    <glyph glyph-name="Utilde" unicode="&#x168;" horiz-adv-x="752" 
d="M141 69.5c-53.333 52.333 -80 129.165 -80 230.498v412h183v-419c0 -51.333 11.5 -90.666 34.5 -117.999s55.833 -41 98.5 -41c42 0 74.333 13.833 97 41.5s34 66.834 34 117.501v419h185v-412c0 -100 -27.167 -176.5 -81.5 -229.5s-132.5 -79.5 -234.5 -79.5
c-104 0 -182.667 26.167 -236 78.5zM229 894.499c22 26.333 50 39.5 84 39.5c11.333 0 22.333 -2.16699 33 -6.5s24 -11.166 40 -20.499c12.667 -7.33301 23.334 -13 32.001 -17s17 -6 25 -6c11.333 0 20.666 4 27.999 12s12 19.667 14 35h72c0 -54 -11 -94.167 -33 -120.5
s-50 -39.5 -84 -39.5c-11.333 0 -22.333 2.16699 -33 6.5s-24 11.166 -40 20.499c-12.667 7.33301 -23.334 13 -32.001 17s-17 6 -25 6c-11.333 0 -20.666 -4 -27.999 -12s-12 -19.667 -14 -35h-72c0 54 11 94.167 33 120.5z" />
    <glyph glyph-name="utilde" unicode="&#x169;" horiz-adv-x="619" 
d="M565 508l0.000976562 -508h-177v68c-32.667 -50.667 -81 -76 -145 -76c-64.667 0 -112.834 18 -144.501 54s-47.5 91 -47.5 165v297h181v-302c0 -50 21.667 -75 65 -75c25.333 0 45.833 9 61.5 27s23.5 42 23.5 72v278h183zM161.001 719.5c22 26.333 50 39.5 84 39.5
c11.333 0 22.333 -2.16699 33 -6.5s24 -11.166 40 -20.499c12.667 -7.33301 23.334 -13 32.001 -17s17 -6 25 -6c11.333 0 20.666 4 27.999 12s12 19.667 14 35h72c0 -54 -11 -94.167 -33 -120.5s-50 -39.5 -84 -39.5c-11.333 0 -22.333 2.16699 -33 6.5
s-24 11.166 -40 20.499c-12.667 7.33301 -23.334 13 -32.001 17s-17 6 -25 6c-11.333 0 -20.666 -4 -27.999 -12s-12 -19.667 -14 -35h-72c0 54 11 94.167 33 120.5z" />
    <glyph glyph-name="Umacron" unicode="&#x16a;" horiz-adv-x="752" 
d="M141 69.5c-53.333 52.333 -80 129.165 -80 230.498v412h183v-419c0 -51.333 11.5 -90.666 34.5 -117.999s55.833 -41 98.5 -41c42 0 74.333 13.833 97 41.5s34 66.834 34 117.501v419h185v-412c0 -100 -27.167 -176.5 -81.5 -229.5s-132.5 -79.5 -234.5 -79.5
c-104 0 -182.667 26.167 -236 78.5zM216 797.999v108h321v-108h-321z" />
    <glyph glyph-name="umacron" unicode="&#x16b;" horiz-adv-x="619" 
d="M565 508l0.000976562 -508h-177v68c-32.667 -50.667 -81 -76 -145 -76c-64.667 0 -112.834 18 -144.501 54s-47.5 91 -47.5 165v297h181v-302c0 -50 21.667 -75 65 -75c25.333 0 45.833 9 61.5 27s23.5 42 23.5 72v278h183zM148.001 621v108h321v-108h-321z" />
    <glyph glyph-name="Ubreve" unicode="&#x16c;" horiz-adv-x="752" 
d="M141 69.5c-53.333 52.333 -80 129.165 -80 230.498v412h183v-419c0 -51.333 11.5 -90.666 34.5 -117.999s55.833 -41 98.5 -41c42 0 74.333 13.833 97 41.5s34 66.834 34 117.501v419h185v-412c0 -100 -27.167 -176.5 -81.5 -229.5s-132.5 -79.5 -234.5 -79.5
c-104 0 -182.667 26.167 -236 78.5zM258 809.999c-32.667 19.333 -54.999 46.666 -66.999 81.999l77 33c20 -27.333 56.333 -41 109 -41c52 0 88 13.667 108 41l77 -33c-12 -35.333 -34.333 -62.666 -67 -81.999s-72 -29 -118 -29c-46.667 0 -86.334 9.66699 -119.001 29z
" />
    <glyph glyph-name="ubreve" unicode="&#x16d;" horiz-adv-x="619" 
d="M565 508l0.000976562 -508h-177v68c-32.667 -50.667 -81 -76 -145 -76c-64.667 0 -112.834 18 -144.501 54s-47.5 91 -47.5 165v297h181v-302c0 -50 21.667 -75 65 -75c25.333 0 45.833 9 61.5 27s23.5 42 23.5 72v278h183zM184.001 632.5
c-36.667 26.333 -60.3311 64.166 -70.998 113.499l77 34c30 -51.333 69.667 -77 119 -77c48.667 0 88 25.667 118 77l77 -34c-10.667 -49.333 -34.334 -87.166 -71.001 -113.499s-78 -39.5 -124 -39.5c-46.667 0 -88.334 13.167 -125.001 39.5z" />
    <glyph glyph-name="Uring" unicode="&#x16e;" horiz-adv-x="752" 
d="M141 69.5c-53.333 52.333 -80 129.165 -80 230.498v412h183v-419c0 -51.333 11.5 -90.666 34.5 -117.999s55.833 -41 98.5 -41c42 0 74.333 13.833 97 41.5s34 66.834 34 117.501v419h185v-412c0 -100 -27.167 -176.5 -81.5 -229.5s-132.5 -79.5 -234.5 -79.5
c-104 0 -182.667 26.167 -236 78.5zM295.5 799.999c-22.333 21.333 -33.499 48 -33.499 80c0 31.333 11.167 57.833 33.5 79.5s49.5 32.5 81.5 32.5c31.333 0 58.166 -11 80.499 -33s33.5 -48.333 33.5 -79c0 -32 -11 -58.667 -33 -80s-49 -32 -81 -32
s-59.167 10.667 -81.5 32zM406.501 847.999c7.66699 8.66699 11.5 19.334 11.5 32.001c0 12 -3.83301 22.167 -11.5 30.5s-17.5 12.5 -29.5 12.5s-22 -4.16699 -30 -12.5s-12 -18.5 -12 -30.5c0 -12.667 4 -23.334 12 -32.001s18 -13 30 -13s21.833 4.33301 29.5 13z" />
    <glyph glyph-name="uring" unicode="&#x16f;" horiz-adv-x="619" 
d="M565 508l0.000976562 -508h-177v68c-32.667 -50.667 -81 -76 -145 -76c-64.667 0 -112.834 18 -144.501 54s-47.5 91 -47.5 165v297h181v-302c0 -50 21.667 -75 65 -75c25.333 0 45.833 9 61.5 27s23.5 42 23.5 72v278h183zM227.501 598
c-22.333 21.333 -33.499 48 -33.499 80c0 31.333 11.167 57.833 33.5 79.5s49.5 32.5 81.5 32.5c31.333 0 58.166 -11 80.499 -33s33.5 -48.333 33.5 -79c0 -32 -11 -58.667 -33 -80s-49 -32 -81 -32s-59.167 10.667 -81.5 32zM338.502 646
c7.66699 8.66699 11.5 19.334 11.5 32.001c0 12 -3.83301 22.167 -11.5 30.5s-17.5 12.5 -29.5 12.5s-22 -4.16699 -30 -12.5s-12 -18.5 -12 -30.5c0 -12.667 4 -23.334 12 -32.001s18 -13 30 -13s21.833 4.33301 29.5 13z" />
    <glyph glyph-name="Uhungarumlaut" unicode="&#x170;" horiz-adv-x="752" 
d="M141 69.5c-53.333 52.333 -80 129.165 -80 230.498v412h183v-419c0 -51.333 11.5 -90.666 34.5 -117.999s55.833 -41 98.5 -41c42 0 74.333 13.833 97 41.5s34 66.834 34 117.501v419h185v-412c0 -100 -27.167 -176.5 -81.5 -229.5s-132.5 -79.5 -234.5 -79.5
c-104 0 -182.667 26.167 -236 78.5zM258 772.999l75 158h115l-102 -158h-88zM407 772.999l75 158h114l-101 -158h-88z" />
    <glyph glyph-name="uhungarumlaut" unicode="&#x171;" horiz-adv-x="619" 
d="M565 508l0.000976562 -508h-177v68c-32.667 -50.667 -81 -76 -145 -76c-64.667 0 -112.834 18 -144.501 54s-47.5 91 -47.5 165v297h181v-302c0 -50 21.667 -75 65 -75c25.333 0 45.833 9 61.5 27s23.5 42 23.5 72v278h183zM272.001 573h-75l30 208h124zM420.001 573h-75
l29 208h124z" />
    <glyph glyph-name="Uogonek" unicode="&#x172;" horiz-adv-x="752" 
d="M693 712v-412.002c0 -79.333 -17 -144 -51 -194s-84 -83.667 -150 -101c-17.333 -4.66699 -30.833 -12.834 -40.5 -24.501s-14.5 -25.5 -14.5 -41.5c0 -33.333 19.333 -50 58 -50c15.333 0 33 3.66699 53 11l18 -81c-32 -12.667 -67.333 -19 -106 -19
c-39.333 0 -71.5 10.333 -96.5 31s-37.5 47.667 -37.5 81c0 14.667 2.66699 28.834 8 42.501s13.333 25.834 24 36.501c-98 3.33301 -172 31.166 -222 83.499s-75 127.5 -75 225.5v412h183v-419c0 -51.333 11.5 -90.666 34.5 -117.999s55.833 -41 98.5 -41
c42 0 74.333 13.833 97 41.5s34 66.834 34 117.501v419h185z" />
    <glyph glyph-name="uogonek" unicode="&#x173;" horiz-adv-x="619" 
d="M602 -185c-36.667 -14 -72.666 -20.999 -107.999 -20.999c-40 0 -72.833 11.167 -98.5 33.5s-38.5 50.833 -38.5 85.5c0 34 12 63 36 87h-5v68c-32.667 -50.667 -81 -76 -145 -76c-64.667 0 -112.834 18 -144.501 54s-47.5 91 -47.5 165v297h181v-302
c0 -50 21.667 -75 65 -75c25.333 0 45.833 9 61.5 27s23.5 42 23.5 72v278h183v-508h-12c-25.333 0 -45.5 -5.83301 -60.5 -17.5s-22.5 -26.834 -22.5 -45.501c0 -34.667 19.667 -52 59 -52c18 0 36 4 54 12z" />
    <glyph glyph-name="Wcircumflex" unicode="&#x174;" horiz-adv-x="1132" 
d="M942 712h178l-255 -712h-149l-149 423l-152 -423h-149l-254 712h191l146 -449l159 449h128l153 -457zM509 773h-131l139 158h99l139 -158h-131l-57 78z" />
    <glyph glyph-name="wcircumflex" unicode="&#x175;" horiz-adv-x="900" 
d="M736 508h174l-212 -508h-149l-102 252l-96 -252h-150l-212 508h184l113 -293l110 293h116l113 -299zM396 573h-136l136 208h105l136 -208h-136l-52 106z" />
    <glyph glyph-name="Ycircumflex" unicode="&#x176;" horiz-adv-x="657" 
d="M724 712l-301 -440v-272h-189v273l-299 439h212l180 -284l183 284h214zM270 773h-131l139 158h99l139 -158h-131l-57 78z" />
    <glyph glyph-name="ycircumflex" unicode="&#x177;" horiz-adv-x="559" 
d="M579 508l-233 -525.999c-30.667 -68.667 -69.167 -118.834 -115.5 -150.501s-103.5 -51.5 -171.5 -59.5l-42 138c46.667 9.33301 81.667 21.333 105 36s41 35 53 61l13 28l-207 473h188l114 -293l118 293h178zM226 573.001h-136l136 208h105l136 -208h-136l-52 106z" />
    <glyph glyph-name="Ydieresis" unicode="&#x178;" horiz-adv-x="657" 
d="M724 712l-301 -440v-272h-189v273l-299 439h212l180 -284l183 284h214zM147 928h160v-151h-160v151zM348 928h160v-151h-160v151z" />
    <glyph glyph-name="Zacute" unicode="&#x179;" horiz-adv-x="624" 
d="M260 147h329v-147h-536v137l314 428h-314v147h525v-135zM368 773h-109l104 158h162z" />
    <glyph glyph-name="zacute" unicode="&#x17a;" horiz-adv-x="535" 
d="M258 134h246v-134h-457v127l230 248h-229v133h446v-119zM331 573h-109l98 208h172z" />
    <glyph glyph-name="Zdotaccent" unicode="&#x17b;" horiz-adv-x="624" 
d="M260 147h329v-147h-536v137l314 428h-314v147h525v-135zM219 934h189v-163h-189v163z" />
    <glyph glyph-name="zdotaccent" unicode="&#x17c;" horiz-adv-x="535" 
d="M258 134h246v-134h-457v127l230 248h-229v133h446v-119zM182 757h189v-163h-189v163z" />
    <glyph glyph-name="Zcaron" unicode="&#x17d;" horiz-adv-x="624" 
d="M260 147h329v-147h-536v137l314 428h-314v147h525v-135zM371 931h131l-139 -158h-99l-139 158h131l58 -79z" />
    <glyph glyph-name="zcaron" unicode="&#x17e;" horiz-adv-x="535" 
d="M258 134h246v-134h-457v127l230 248h-229v133h446v-119zM329 781h136l-136 -208h-105l-136 208h136l53 -107z" />
    <glyph glyph-name="uni018F" unicode="&#x18f;" horiz-adv-x="786" 
d="M564.5 676.5c55.667 -29.667 98.667 -72 129 -127s45.5 -119.167 45.5 -192.5c0 -70 -14 -132.833 -42 -188.5s-67.333 -99.167 -118 -130.5s-108.334 -47 -173.001 -47c-113.333 0 -201.833 32 -265.5 96s-95.5 155.667 -95.5 275v68h502c-20 96 -81.667 144 -185 144
c-75.333 0 -142.666 -21.333 -201.999 -64l-59 133c31.333 24 71.666 43 120.999 57s98.333 21 147 21c74.667 0 139.834 -14.833 195.501 -44.5zM550 289h-314.001c6.66699 -51.333 23.834 -90 51.501 -116s65.167 -39 112.5 -39c86 0 136 51.667 150 155z" />
    <glyph glyph-name="florin" unicode="&#x192;" horiz-adv-x="600" 
d="M462.5 557c-11 -12 -18.165 -28.999 -21.498 -50.999v-2h102v-102h-124l-82 -383c-14.667 -73.333 -44.167 -126 -88.5 -158s-93.166 -48 -146.499 -48h-84v141h80c15.333 0 28.666 6.16699 39.999 18.5s18.666 29.166 21.999 50.499l80 379h-104v102h126l1 6
c14.667 74 44.167 127 88.5 159s93.166 48 146.499 48h84v-142h-80c-15.333 0 -28.5 -6 -39.5 -18z" />
    <glyph glyph-name="Ohorn" unicode="&#x1a0;" horiz-adv-x="805" 
d="M729 690.5c-20 -28.333 -46.3311 -47.1689 -78.998 -56.502c72.667 -64 109 -156.333 109 -277c0 -74 -14.333 -138.667 -43 -194s-69.834 -97.833 -123.501 -127.5s-116.834 -44.5 -189.501 -44.5s-136 14.833 -190 44.5s-95.5 72.167 -124.5 127.5s-43.5 120 -43.5 194
s14.667 138.333 44 193s71 96.834 125 126.501s117.667 44.5 191 44.5c20 0 40.667 -1.66699 62 -5c24 -2.66699 43.333 -4 58 -4c29.333 0 49.833 7.33301 61.5 22s17.5 40.334 17.5 77.001v22h155v-43c0 -38 -10 -71.167 -30 -99.5zM528.502 190.997
c30.333 38 45.5 93.333 45.5 166c0 72 -15.167 126.833 -45.5 164.5s-72.166 56.5 -125.499 56.5s-95 -18.667 -125 -56s-45 -92.333 -45 -165c0 -73.333 15 -128.833 45 -166.5s71.667 -56.5 125 -56.5s95.166 19 125.499 57z" />
    <glyph glyph-name="ohorn" unicode="&#x1a1;" horiz-adv-x="618" 
d="M594.5 496.5c-17.667 -27.667 -41.8311 -47.166 -72.498 -58.499c43.333 -44 65 -105 65 -183c0 -53.333 -11.333 -99.833 -34 -139.5s-54.834 -70.167 -96.501 -91.5s-90.5 -32 -146.5 -32c-56.667 0 -106 10.667 -148 32s-74.333 51.833 -97 91.5s-34 86.167 -34 139.5
c0 54.667 11.333 102 34 142s54.667 70.833 96 92.5s89.666 32.5 144.999 32.5c14 0 36.667 -2.33301 68 -7c10 -2 17.333 -3 22 -3c20.667 0 37.667 7 51 21s20 41 20 81v22h154v-43c0 -36.667 -8.83301 -68.834 -26.5 -96.501zM408.003 257.001
c0 44 -8.16699 76.5 -24.5 97.5s-40.833 31.5 -73.5 31.5c-33.333 0 -58.333 -10.5 -75 -31.5s-25 -53.5 -25 -97.5c0 -44.667 8.33301 -77.5 25 -98.5s41.667 -31.5 75 -31.5c65.333 0 98 43.333 98 130z" />
    <glyph glyph-name="Uhorn" unicode="&#x1af;" horiz-adv-x="752" 
d="M804 833l-0.00195312 -43.002c0 -37.333 -10.167 -70.166 -30.5 -98.499s-47.166 -47.166 -80.499 -56.499v-335c0 -100 -27.167 -176.5 -81.5 -229.5s-132.5 -79.5 -234.5 -79.5c-104 0 -182.667 26.167 -236 78.5s-80 129.166 -80 230.499v412h183v-419
c0 -51.333 11.5 -90.666 34.5 -117.999s55.833 -41 98.5 -41c42 0 74.333 13.833 97 41.5s34 66.834 34 117.501v419h54c32.667 0 55.334 7.16699 68.001 21.5s19 40.166 19 77.499v22h155z" />
    <glyph glyph-name="uhorn" unicode="&#x1b0;" horiz-adv-x="648" 
d="M679 636l0.00195312 -43c0 -38.667 -10.5 -72.5 -31.5 -101.5s-48.5 -48.167 -82.5 -57.5v-434h-177v68c-32.667 -50.667 -81 -76 -145 -76c-64.667 0 -112.834 18 -144.501 54s-47.5 91 -47.5 165v297h181v-302c0 -50 21.667 -75 65 -75c25.333 0 45.833 9 61.5 27
s23.5 42 23.5 72v278h52c33.333 0 56.666 8 69.999 24s20 43.333 20 82v22h155z" />
    <glyph glyph-name="uni01C4" unicode="&#x1c4;" horiz-adv-x="1390" 
d="M64 712l291 -0.00195312c78.667 0 146.5 -14.167 203.5 -42.5s100.667 -69.166 131 -122.499s45.5 -116.666 45.5 -189.999c0 -74 -15 -137.833 -45 -191.5s-73.5 -94.667 -130.5 -123s-125.167 -42.5 -204.5 -42.5h-291v712zM342 149.998
c69.333 0 121.167 17.168 155.5 51.501s51.5 86.166 51.5 155.499c0 136.667 -69 205 -207 205h-90v-412h90zM1026 146.999h329v-147h-536v137l314 428h-314v147h525v-135zM1137 930.999h131l-139 -158h-99l-139 158h131l58 -79z" />
    <glyph glyph-name="uni01C5" unicode="&#x1c5;" horiz-adv-x="1316" 
d="M64 712l291 -0.00195312c78.667 0 146.5 -14.167 203.5 -42.5s100.667 -69.166 131 -122.499s45.5 -116.666 45.5 -189.999c0 -74 -15 -137.833 -45 -191.5s-73.5 -94.667 -130.5 -123s-125.167 -42.5 -204.5 -42.5h-291v712zM342 149.998
c69.333 0 121.167 17.168 155.5 51.501s51.5 86.166 51.5 155.499c0 136.667 -69 205 -207 205h-90v-412h90zM1039 133.999h246v-134h-457v127l230 248h-229v133h446v-119zM1110 780.999h136l-136 -208h-105l-136 208h136l53 -107z" />
    <glyph glyph-name="uni01C6" unicode="&#x1c6;" horiz-adv-x="1178" 
d="M589 736v-735.999h-178v69c-14.667 -24 -36 -42.833 -64 -56.5s-58.667 -20.5 -92 -20.5c-43.333 0 -82 11.167 -116 33.5s-60.5 53.666 -79.5 93.999s-28.5 86.833 -28.5 139.5c0 52 9.5 98 28.5 138s45.5 70.833 79.5 92.5s72.667 32.5 116 32.5
c32 0 61.5 -6.66699 88.5 -20s48.5 -31.333 64.5 -54v288h181zM385 160.501c17.333 22.333 26 54.501 26 96.501c0 40.667 -8.83301 72.167 -26.5 94.5s-42.167 33.5 -73.5 33.5c-32.667 0 -57.667 -10.833 -75 -32.5s-26 -52.834 -26 -93.501
c0 -42 8.83301 -74.5 26.5 -97.5s42.5 -34.5 74.5 -34.5s56.667 11.167 74 33.5zM901 134.002h246v-134h-457v127l230 248h-229v133h446v-119zM972 781.002h136l-136 -208h-105l-136 208h136l53 -107z" />
    <glyph glyph-name="uni01C7" unicode="&#x1c7;" horiz-adv-x="944" 
d="M64 0v712h188v-560h271v-152h-459zM543 -29c33.333 -3.33301 58 -5 74 -5c30 0 50 6 60 18s15 35 15 69v659h188v-656c0 -84 -17 -145.667 -51 -185s-92.667 -59 -176 -59c-32 0 -68.667 3 -110 9v150z" />
    <glyph glyph-name="uni01C8" unicode="&#x1c8;" horiz-adv-x="868" 
d="M64 0v712h188v-560h301v-152h-489zM559 -79c21.333 0 39.002 6.16895 53.002 18.502s21 31.166 21 56.499v512h181v-514c0 -68.667 -17.833 -122.334 -53.5 -161.001s-87.834 -58 -156.501 -58c-38.667 0 -70 4.66699 -94 14v139c19.333 -4.66699 35.666 -7 48.999 -7z
M627.002 757.002h189v-163h-189v163z" />
    <glyph glyph-name="uni01C9" unicode="&#x1c9;" horiz-adv-x="578" 
d="M54 0v736h181v-736h-181zM269 -79c21.333 0 39.002 6.16895 53.002 18.502s21 31.166 21 56.499v512h181v-514c0 -68.667 -17.833 -122.334 -53.5 -161.001s-87.834 -58 -156.501 -58c-38.667 0 -70 4.66699 -94 14v139c19.333 -4.66699 35.666 -7 48.999 -7z
M337.002 757.002h189v-163h-189v163z" />
    <glyph glyph-name="uni01CA" unicode="&#x1ca;" horiz-adv-x="1169" 
d="M524 712h177v-712h-139l-323 404v-404h-175v712h137l323 -402v402zM768 -29c33.333 -3.33301 57.668 -5 73.001 -5c30 0 50 6 60 18s15 35 15 69v659h188v-656c0 -84 -17 -145.667 -51 -185s-92.333 -59 -175 -59c-32.667 0 -69.334 3 -110.001 9v150z" />
    <glyph glyph-name="uni01CB" unicode="&#x1cb;" horiz-adv-x="1055" 
d="M524 712h177v-712h-139l-323 404v-404h-175v712h137l323 -402v402zM746 -79c21.333 0 39.002 6.16895 53.002 18.502s21 31.166 21 56.499v512h181v-514c0 -68.667 -17.833 -122.334 -53.5 -161.001s-87.834 -58 -156.501 -58c-38.667 0 -70 4.66699 -94 14v139
c19.333 -4.66699 35.666 -7 48.999 -7zM814.002 757.002h189v-163h-189v163z" />
    <glyph glyph-name="uni01CC" unicode="&#x1cc;" horiz-adv-x="913" 
d="M528.5 467.5c29.667 -36.333 44.501 -91.168 44.501 -164.501v-303h-181v295c0 31.333 -5.33301 53.833 -16 67.5s-27.334 20.5 -50.001 20.5c-27.333 0 -49.333 -9.16699 -66 -27.5s-25 -42.5 -25 -72.5v-283h-181v362c0 54.667 -2.66699 103.334 -8 146.001h170l9 -75
c19.333 28.667 43.333 50.667 72 66s61 23 97 23c60 0 104.833 -18.167 134.5 -54.5zM604.001 -79.002c21.333 0 39.002 6.16895 53.002 18.502s21 31.166 21 56.499v512h181v-514c0 -68.667 -17.833 -122.334 -53.5 -161.001s-87.834 -58 -156.501 -58
c-38.667 0 -70 4.66699 -94 14v139c19.333 -4.66699 35.666 -7 48.999 -7zM672.003 757h189v-163h-189v163z" />
    <glyph glyph-name="uni01CE" unicode="&#x1ce;" horiz-adv-x="643" 
d="M589 508v-508.002h-178v69c-14.667 -24 -36 -42.833 -64 -56.5s-58.667 -20.5 -92 -20.5c-43.333 0 -82 10.667 -116 32s-60.5 51.833 -79.5 91.5s-28.5 85.5 -28.5 137.5c0 52.667 9.66699 99.334 29 140.001s46 72.334 80 95.001s72.333 34 115 34
c33.333 0 63.833 -7.16699 91.5 -21.5s49.167 -33.5 64.5 -57.5v65h178zM385 159.998c17.333 22 26 53.668 26 95.001c0 42 -8.66699 74.167 -26 96.5s-42 33.5 -74 33.5c-31.333 0 -56 -11.5 -74 -34.5s-27 -55.5 -27 -97.5c0 -40.667 8.66699 -71.834 26 -93.501
s42.333 -32.5 75 -32.5c32 0 56.667 11 74 33zM373 780.999h136l-136 -208h-105l-136 208h136l53 -107z" />
    <glyph glyph-name="Gcaron" unicode="&#x1e6;" horiz-adv-x="751" 
d="M696 402l0.000976562 -357.002c-38 -17.333 -80.5 -30.666 -127.5 -39.999s-95.167 -14 -144.5 -14c-77.333 0 -144.5 14.667 -201.5 44s-100.833 71.5 -131.5 126.5s-46 120.167 -46 195.5c0 73.333 15.333 137.5 46 192.5s74 97.333 130 127s121.333 44.5 196 44.5
c51.333 0 99.833 -6.66699 145.5 -20s82.834 -31.666 111.501 -54.999l-59 -133c-32.667 21.333 -64.167 36.833 -94.5 46.5s-62.833 14.5 -97.5 14.5c-63.333 0 -110.5 -17.833 -141.5 -53.5s-46.5 -90.167 -46.5 -163.5c0 -76 16.167 -132.333 48.5 -169
s82.166 -55 149.499 -55c31.333 0 62.666 3.33301 93.999 10v132h-124v127h293zM474.001 930.998h131l-139 -158h-99l-139 158h131l58 -79z" />
    <glyph glyph-name="gcaron" unicode="&#x1e7;" horiz-adv-x="647" 
d="M595 508l0.000976562 -475.999c0 -83.333 -25 -146.833 -75 -190.5s-123.333 -65.5 -220 -65.5c-82.667 0 -154.334 14.667 -215.001 44l27 132c30 -13.333 60.833 -23.833 92.5 -31.5s61.5 -11.5 89.5 -11.5c41.333 0 71.833 8.83301 91.5 26.5s29.5 45.167 29.5 82.5
v75c-16.667 -22 -39.167 -40.667 -67.5 -56s-58.5 -23 -90.5 -23c-43.333 0 -82.166 10.5 -116.499 31.5s-61.166 50.667 -80.499 89s-29 82.833 -29 133.5c0 50 9.66699 94.167 29 132.5s46.166 68.166 80.499 89.499s73.166 32 116.499 32c34 0 65 -7 93 -21
s49.667 -33 65 -57v64h180zM388.001 180.501c18 21 27 50.168 27 87.501c0 36 -9 64.5 -27 85.5s-43 31.5 -75 31.5s-57.167 -10.333 -75.5 -31s-27.5 -49.334 -27.5 -86.001s9.33301 -65.667 28 -87s43.667 -32 75 -32c32 0 57 10.5 75 31.5zM376.001 781.002h136
l-136 -208h-105l-136 208h136l53 -107z" />
    <glyph glyph-name="uni01EA" unicode="&#x1ea;" horiz-adv-x="805" 
d="M461 -61c0 -16 4.99609 -28.334 14.9961 -37.001s24 -13 42 -13c16 0 34.333 3.66699 55 11l17 -81c-33.333 -12.667 -69 -19 -107 -19c-39.333 0 -71.5 10.5 -96.5 31.5s-37.5 47.833 -37.5 80.5c0 30.667 10 57 30 79c-68 3.33301 -127.167 20.333 -177.5 51
s-89 73 -116 127s-40.5 116.667 -40.5 188c0 74 14.667 138.333 44 193s70.833 96.834 124.5 126.501s116.834 44.5 189.501 44.5s135.834 -14.833 189.501 -44.5s94.834 -71.834 123.501 -126.501s43 -119 43 -193c0 -89.333 -20.667 -164.666 -62 -225.999
s-99.666 -103.333 -174.999 -126c-40.667 -12 -61 -34 -61 -66zM528.496 190.999c30.333 38 45.5 93.333 45.5 166c0 72 -15.167 126.833 -45.5 164.5s-72.166 56.5 -125.499 56.5s-95 -18.667 -125 -56s-45 -92.333 -45 -165c0 -73.333 15 -128.833 45 -166.5
s71.667 -56.5 125 -56.5s95.166 19 125.499 57z" />
    <glyph glyph-name="uni01EB" unicode="&#x1eb;" horiz-adv-x="618" 
d="M367.5 -20c-11 -12 -16.501 -26.3291 -16.501 -42.9961s5.33301 -29.5 16 -38.5s25.667 -13.5 45 -13.5c17.333 0 35.333 4 54 12l18 -82c-36.667 -14 -72.667 -21 -108 -21c-40 0 -72.667 11 -98 33s-38 49.667 -38 83c0 32 12 60 36 84
c-76.667 7.33301 -136.667 34.166 -180 80.499s-65 107.166 -65 182.499c0 54 11.333 101 34 141s55 70.667 97 92s91.333 32 148 32c56 0 104.833 -10.833 146.5 -32.5s73.834 -52.334 96.501 -92.001s34 -86.5 34 -140.5c0 -62.667 -15.5 -116.334 -46.5 -161.001
s-73.5 -74.667 -127.5 -90c-19.333 -5.33301 -34.5 -14 -45.5 -26zM407.999 257.004c0 44 -8.16699 76.5 -24.5 97.5s-40.833 31.5 -73.5 31.5c-33.333 0 -58.333 -10.5 -75 -31.5s-25 -53.5 -25 -97.5c0 -44.667 8.33301 -77.5 25 -98.5s41.667 -31.5 75 -31.5
c65.333 0 98 43.333 98 130z" />
    <glyph glyph-name="Aringacute" unicode="&#x1fa;" horiz-adv-x="769" 
d="M544 147h-316l-63 -147h-188l330 706c-11.333 10 -20.166 22.167 -26.499 36.5s-9.5 29.5 -9.5 45.5c0 30.667 11.167 56.834 33.5 78.501s49.166 32.5 80.499 32.5c14.667 0 29 -2.66699 43 -8l60 66h160l-156 -130c4.66699 -14 7 -27 7 -39
c0 -16.667 -3.33301 -32.334 -10 -47.001s-15.667 -27 -27 -37l330 -704h-185zM355 818.5c-8 -8.33301 -12 -18.5 -12 -30.5s4 -22.5 12 -31.5s18 -13.5 30 -13.5s22 4.5 30 13.5s12 19.5 12 31.5s-4 22.167 -12 30.5s-18 12.5 -30 12.5s-22 -4.16699 -30 -12.5zM289 288
h194l-97 225z" />
    <glyph glyph-name="aringacute" unicode="&#x1fb;" horiz-adv-x="643" 
d="M239 600c-22 22 -32.999 49.334 -32.999 82.001c0 31.333 11 57.833 33 79.5s49.333 32.5 82 32.5c16 0 29.667 -2.33301 41 -7l70 96l152 -7l-155 -150c6 -12.667 9 -27.334 9 -44.001c0 -32.667 -11.333 -60 -34 -82s-50.334 -33 -83.001 -33s-60 11 -82 33z
M290.501 713.501c-7.66699 -8.33301 -11.499 -18.833 -11.499 -31.5s4 -23.667 12 -33s18 -14 30 -14s22.167 4.66699 30.5 14s12.5 20.333 12.5 33s-4 23.167 -12 31.5s-18.333 12.5 -31 12.5s-22.834 -4.16699 -30.501 -12.5zM589.002 508.001v-508.002h-178v69
c-14.667 -24 -36 -42.833 -64 -56.5s-58.667 -20.5 -92 -20.5c-43.333 0 -82 10.667 -116 32s-60.5 51.833 -79.5 91.5s-28.5 85.5 -28.5 137.5c0 52.667 9.66699 99.334 29 140.001s46 72.334 80 95.001s72.333 34 115 34c33.333 0 63.833 -7.16699 91.5 -21.5
s49.167 -33.5 64.5 -57.5v65h178zM385.002 159.999c17.333 22 26 53.668 26 95.001c0 42 -8.66699 74.167 -26 96.5s-42 33.5 -74 33.5c-31.333 0 -56 -11.5 -74 -34.5s-27 -55.5 -27 -97.5c0 -40.667 8.66699 -71.834 26 -93.501s42.333 -32.5 75 -32.5
c32 0 56.667 11 74 33z" />
    <glyph glyph-name="AEacute" unicode="&#x1fc;" horiz-adv-x="1014" 
d="M982 568h-303l8 -134h274v-144h-264l9 -146h276v-144h-437l-9 147h-289l-87 -147h-203l454 712h571v-144zM528 288l-17 280h-13l-167 -280h197zM566 773h-109l104 158h162z" />
    <glyph glyph-name="aeacute" unicode="&#x1fd;" horiz-adv-x="860" 
d="M829 236l-314 -0.000976562c4.66699 -74 44.334 -111 119.001 -111c22.667 0 46.5 4.16699 71.5 12.5s48.167 19.833 69.5 34.5l45 -120c-24 -18.667 -54 -33.334 -90 -44.001s-72.333 -16 -109 -16c-47.333 0 -88.5 7.83301 -123.5 23.5s-63.167 38.834 -84.5 69.501
c-16.667 -30 -39.834 -53 -69.501 -69s-63.834 -24 -102.501 -24c-40 0 -75.833 7.16699 -107.5 21.5s-56.5 34.333 -74.5 60s-27 55.167 -27 88.5c0 55.333 21.5 95.5 64.5 120.5s113.5 37.5 211.5 37.5h36c0 24 -5.5 41.333 -16.5 52s-29.5 16 -55.5 16
s-54.5 -4.66699 -85.5 -14s-60.5 -21.666 -88.5 -36.999l-45 121c30 18 66.833 33.167 110.5 45.5s83.834 18.5 120.501 18.5c74.667 0 129.334 -19.667 164.001 -59c42.667 39.333 96 59 160 59c43.333 0 81.666 -11 114.999 -33s59.333 -52.833 78 -92.5
s28 -85.167 28 -136.5v-24zM549.5 379.499c-13.667 -12.333 -23.168 -32.167 -28.501 -59.5h155c-7.33301 52 -31.666 78 -72.999 78c-22 0 -39.833 -6.16699 -53.5 -18.5zM324.499 139.998c13 17.333 19.5 40.001 19.5 68.001v30h-25c-75.333 0 -113 -23.333 -113 -70
c0 -16.667 5.5 -29.834 16.5 -39.501s25.5 -14.5 43.5 -14.5c26 0 45.5 8.66699 58.5 26zM483.999 572.999h-109l98 208h172z" />
    <glyph glyph-name="Oslashacute" unicode="&#x1fe;" horiz-adv-x="805" 
d="M730 519c19.333 -48 29.002 -102.001 29.002 -162.001c0 -74 -14.333 -138.667 -43 -194s-69.834 -97.833 -123.501 -127.5s-116.834 -44.5 -189.501 -44.5c-44 0 -85 5.66699 -123 17l-50 -85l-118 71l47 80c-36.667 32 -64.834 72 -84.501 120s-29.5 102.333 -29.5 163
c0 74 14.667 138.333 44 193s70.833 96.834 124.5 126.501s116.834 44.5 189.501 44.5c42.667 0 83.667 -5.66699 123 -17l49 85l118 -71l-46 -79c36 -32 63.667 -72 83 -120zM253.002 235.999l195.999 337c-15.333 3.33301 -30.666 5 -45.999 5
c-53.333 0 -95 -18.667 -125 -56s-45 -92.333 -45 -165c0 -48 6.66699 -88.333 20 -121zM528.501 190.999c30.333 38 45.501 93.333 45.501 166c0 48.667 -7 89 -21 121l-197 -338c15.333 -4 31 -6 47 -6c53.333 0 95.166 19 125.499 57zM456.002 772.999h-109l104 158h162z
" />
    <glyph glyph-name="oslashacute" unicode="&#x1ff;" horiz-adv-x="618" 
d="M561.5 381c17 -36 25.501 -77.3311 25.501 -123.998c0 -54 -11.333 -100.833 -34 -140.5s-54.834 -70.334 -96.501 -92.001s-90.5 -32.5 -146.5 -32.5c-34 0 -65 4 -93 12l-44 -75l-81 48l39 66c-32 23.333 -56.667 53.166 -74 89.499s-26 77.833 -26 124.5
c0 54 11.333 101 34 141s55 70.667 97 92s91.333 32 148 32c33.333 0 64.333 -4 93 -12l42 73l82 -48l-38 -65c31.333 -23.333 55.5 -53 72.5 -89zM215.001 189.002l116 198c-4.66699 0.666992 -11.667 1 -21 1c-34.667 0 -60.667 -10.667 -78 -32s-26 -54.333 -26 -99
c0 -27.333 3 -50 9 -68zM386.501 157.502c17 21 25.5 54.167 25.5 99.5c0 26 -3 48 -9 66l-114 -196c4.66699 -0.666992 11.667 -1 21 -1c34 0 59.5 10.5 76.5 31.5zM364.001 573.002h-109l98 208h172z" />
    <glyph glyph-name="uni0200" unicode="&#x200;" horiz-adv-x="769" 
d="M607 0l-63 147h-316l-63 -147h-188l333 712h148l334 -712h-185zM289 288h194l-97 225zM265 773l-101 158h114l75 -158h-88zM414 773l-102 158h115l75 -158h-88z" />
    <glyph glyph-name="uni0201" unicode="&#x201;" horiz-adv-x="643" 
d="M589 508v-508.002h-178v69c-14.667 -24 -36 -42.833 -64 -56.5s-58.667 -20.5 -92 -20.5c-43.333 0 -82 10.667 -116 32s-60.5 51.833 -79.5 91.5s-28.5 85.5 -28.5 137.5c0 52.667 9.66699 99.334 29 140.001s46 72.334 80 95.001s72.333 34 115 34
c33.333 0 63.833 -7.16699 91.5 -21.5s49.167 -33.5 64.5 -57.5v65h178zM385 159.998c17.333 22 26 53.668 26 95.001c0 42 -8.66699 74.167 -26 96.5s-42 33.5 -74 33.5c-31.333 0 -56 -11.5 -74 -34.5s-27 -55.5 -27 -97.5c0 -40.667 8.66699 -71.834 26 -93.501
s42.333 -32.5 75 -32.5c32 0 56.667 11 74 33zM209 572.999l-78 208h124l29 -208h-75zM357 572.999l-79 208h124l30 -208h-75z" />
    <glyph glyph-name="uni0202" unicode="&#x202;" horiz-adv-x="769" 
d="M607 0l-63 147h-316l-63 -147h-188l333 712h148l334 -712h-185zM289 288h194l-97 225zM502 895c32.667 -19.333 54.999 -46.666 66.999 -81.999l-77 -32c-20 27.333 -56 41 -108 41c-52.667 0 -89 -13.667 -109 -41l-77 32c12 35.333 34.333 62.666 67 81.999
s72.334 29 119.001 29c46 0 85.333 -9.66699 118 -29z" />
    <glyph glyph-name="uni0203" unicode="&#x203;" horiz-adv-x="643" 
d="M589 508v-508.002h-178v69c-14.667 -24 -36 -42.833 -64 -56.5s-58.667 -20.5 -92 -20.5c-43.333 0 -82 10.667 -116 32s-60.5 51.833 -79.5 91.5s-28.5 85.5 -28.5 137.5c0 52.667 9.66699 99.334 29 140.001s46 72.334 80 95.001s72.333 34 115 34
c33.333 0 63.833 -7.16699 91.5 -21.5s49.167 -33.5 64.5 -57.5v65h178zM385 159.998c17.333 22 26 53.668 26 95.001c0 42 -8.66699 74.167 -26 96.5s-42 33.5 -74 33.5c-31.333 0 -56 -11.5 -74 -34.5s-27 -55.5 -27 -97.5c0 -40.667 8.66699 -71.834 26 -93.501
s42.333 -32.5 75 -32.5c32 0 56.667 11 74 33zM445 733.999c36.667 -26.667 60.333 -64.668 71 -114.001l-77 -32c-31.333 51.333 -70.666 77 -117.999 77c-48 0 -87.667 -25.667 -119 -77l-77 33c11.333 48.667 35.166 86.334 71.499 113.001s77.833 40 124.5 40
c46 0 87.333 -13.333 124 -40z" />
    <glyph glyph-name="uni0204" unicode="&#x204;" horiz-adv-x="604" 
d="M64 0v712h508v-144h-325v-134h304v-144h-304v-146h325v-144h-508zM217 773l-101 158h114l75 -158h-88zM366 773l-102 158h115l75 -158h-88z" />
    <glyph glyph-name="uni0205" unicode="&#x205;" horiz-adv-x="553" 
d="M523 236l-318.995 0.00195312c3.33301 -39.333 14.666 -67.666 33.999 -84.999s47.666 -26 84.999 -26c25.333 0 50.666 4.16699 75.999 12.5s48.333 19.833 69 34.5l46 -120c-25.333 -18.667 -56 -33.334 -92 -44.001s-72 -16 -108 -16c-58 0 -108.333 10.667 -151 32
s-75.334 51.833 -98.001 91.5s-34 86.5 -34 140.5c0 51.333 10.833 97.166 32.5 137.499s51.667 71.833 90 94.5s82.166 34 131.499 34c48 0 90 -10.667 126 -32s63.667 -51.833 83 -91.5s29 -85.834 29 -138.501v-24zM206.005 320.002h162c-6.66699 52 -32.667 78 -78 78
c-44.667 0 -72.667 -26 -84 -78zM173.005 573.002l-78 208h124l29 -208h-75zM321.005 573.002l-79 208h124l30 -208h-75z" />
    <glyph glyph-name="uni0206" unicode="&#x206;" horiz-adv-x="604" 
d="M64 0v712h508v-144h-325v-134h304v-144h-304v-146h325v-144h-508zM454 895c32.667 -19.333 54.999 -46.666 66.999 -81.999l-77 -32c-20 27.333 -56 41 -108 41c-52.667 0 -89 -13.667 -109 -41l-77 32c12 35.333 34.333 62.666 67 81.999s72.334 29 119.001 29
c46 0 85.333 -9.66699 118 -29z" />
    <glyph glyph-name="uni0207" unicode="&#x207;" horiz-adv-x="553" 
d="M523 236l-318.995 0.00195312c3.33301 -39.333 14.666 -67.666 33.999 -84.999s47.666 -26 84.999 -26c25.333 0 50.666 4.16699 75.999 12.5s48.333 19.833 69 34.5l46 -120c-25.333 -18.667 -56 -33.334 -92 -44.001s-72 -16 -108 -16c-58 0 -108.333 10.667 -151 32
s-75.334 51.833 -98.001 91.5s-34 86.5 -34 140.5c0 51.333 10.833 97.166 32.5 137.499s51.667 71.833 90 94.5s82.166 34 131.499 34c48 0 90 -10.667 126 -32s63.667 -51.833 83 -91.5s29 -85.834 29 -138.501v-24zM206.005 320.002h162c-6.66699 52 -32.667 78 -78 78
c-44.667 0 -72.667 -26 -84 -78zM409.005 734.002c36.667 -26.667 60.333 -64.668 71 -114.001l-77 -32c-31.333 51.333 -70.666 77 -117.999 77c-48 0 -87.667 -25.667 -119 -77l-77 33c11.333 48.667 35.166 86.334 71.499 113.001s77.833 40 124.5 40
c46 0 87.333 -13.333 124 -40z" />
    <glyph glyph-name="uni0208" unicode="&#x208;" horiz-adv-x="316" 
d="M64 0v712h188v-712h-188zM38 773l-101 158h114l75 -158h-88zM187 773l-102 158h115l75 -158h-88z" />
    <glyph glyph-name="uni0209" unicode="&#x209;" horiz-adv-x="289" 
d="M54 0v508h181v-508h-181zM32 573l-78 208h124l29 -208h-75zM180 573l-79 208h124l30 -208h-75z" />
    <glyph glyph-name="uni020A" unicode="&#x20a;" horiz-adv-x="316" 
d="M64 0v712h188v-712h-188zM275 895c32.667 -19.333 54.999 -46.666 66.999 -81.999l-77 -32c-20 27.333 -56 41 -108 41c-52.667 0 -89 -13.667 -109 -41l-77 32c12 35.333 34.333 62.666 67 81.999s72.334 29 119.001 29c46 0 85.333 -9.66699 118 -29z" />
    <glyph glyph-name="uni020B" unicode="&#x20b;" horiz-adv-x="289" 
d="M54 0v508h181v-508h-181zM268 734c36.667 -26.667 60.333 -64.668 71 -114.001l-77 -32c-31.333 51.333 -70.666 77 -117.999 77c-48 0 -87.667 -25.667 -119 -77l-77 33c11.333 48.667 35.166 86.334 71.499 113.001s77.833 40 124.5 40c46 0 87.333 -13.333 124 -40z
" />
    <glyph glyph-name="uni020C" unicode="&#x20c;" horiz-adv-x="805" 
d="M213 35.5c-54 29.667 -95.501 72.167 -124.501 127.5s-43.5 120 -43.5 194s14.667 138.333 44 193s70.833 96.834 124.5 126.501s116.834 44.5 189.501 44.5s135.834 -14.833 189.501 -44.5s94.834 -71.834 123.501 -126.501s43 -119 43 -193s-14.333 -138.667 -43 -194
s-69.834 -97.833 -123.501 -127.5s-116.834 -44.5 -189.501 -44.5s-136 14.833 -190 44.5zM528.499 191c30.333 38 45.5 93.333 45.5 166c0 72 -15.167 126.833 -45.5 164.5s-72.166 56.5 -125.499 56.5s-95 -18.667 -125 -56s-45 -92.333 -45 -165
c0 -73.333 15 -128.833 45 -166.5s71.667 -56.5 125 -56.5s95.166 19 125.499 57zM282.999 773l-101 158h114l75 -158h-88zM431.999 773l-102 158h115l75 -158h-88z" />
    <glyph glyph-name="uni020D" unicode="&#x20d;" horiz-adv-x="618" 
d="M162 24c-42 21.333 -74.333 52.002 -97 92.002s-34 87 -34 141s11.333 101 34 141s55 70.667 97 92s91.333 32 148 32c56 0 104.833 -10.833 146.5 -32.5s73.834 -52.334 96.501 -92.001s34 -86.5 34 -140.5s-11.333 -100.833 -34 -140.5
s-54.834 -70.334 -96.501 -92.001s-90.5 -32.5 -146.5 -32.5c-56.667 0 -106 10.667 -148 32zM408 257.002c0 44 -8.16699 76.5 -24.5 97.5s-40.833 31.5 -73.5 31.5c-33.333 0 -58.333 -10.5 -75 -31.5s-25 -53.5 -25 -97.5c0 -44.667 8.33301 -77.5 25 -98.5
s41.667 -31.5 75 -31.5c65.333 0 98 43.333 98 130zM198 573.002l-78 208h124l29 -208h-75zM346 573.002l-79 208h124l30 -208h-75z" />
    <glyph glyph-name="uni020E" unicode="&#x20e;" horiz-adv-x="805" 
d="M213 35.5c-54 29.667 -95.501 72.167 -124.501 127.5s-43.5 120 -43.5 194s14.667 138.333 44 193s70.833 96.834 124.5 126.501s116.834 44.5 189.501 44.5s135.834 -14.833 189.501 -44.5s94.834 -71.834 123.501 -126.501s43 -119 43 -193s-14.333 -138.667 -43 -194
s-69.834 -97.833 -123.501 -127.5s-116.834 -44.5 -189.501 -44.5s-136 14.833 -190 44.5zM528.499 191c30.333 38 45.5 93.333 45.5 166c0 72 -15.167 126.833 -45.5 164.5s-72.166 56.5 -125.499 56.5s-95 -18.667 -125 -56s-45 -92.333 -45 -165
c0 -73.333 15 -128.833 45 -166.5s71.667 -56.5 125 -56.5s95.166 19 125.499 57zM519.999 895c32.667 -19.333 54.999 -46.666 66.999 -81.999l-77 -32c-20 27.333 -56 41 -108 41c-52.667 0 -89 -13.667 -109 -41l-77 32c12 35.333 34.333 62.666 67 81.999
s72.334 29 119.001 29c46 0 85.333 -9.66699 118 -29z" />
    <glyph glyph-name="uni020F" unicode="&#x20f;" horiz-adv-x="618" 
d="M162 24c-42 21.333 -74.333 52.002 -97 92.002s-34 87 -34 141s11.333 101 34 141s55 70.667 97 92s91.333 32 148 32c56 0 104.833 -10.833 146.5 -32.5s73.834 -52.334 96.501 -92.001s34 -86.5 34 -140.5s-11.333 -100.833 -34 -140.5
s-54.834 -70.334 -96.501 -92.001s-90.5 -32.5 -146.5 -32.5c-56.667 0 -106 10.667 -148 32zM408 257.002c0 44 -8.16699 76.5 -24.5 97.5s-40.833 31.5 -73.5 31.5c-33.333 0 -58.333 -10.5 -75 -31.5s-25 -53.5 -25 -97.5c0 -44.667 8.33301 -77.5 25 -98.5
s41.667 -31.5 75 -31.5c65.333 0 98 43.333 98 130zM434 734.002c36.667 -26.667 60.333 -64.668 71 -114.001l-77 -32c-31.333 51.333 -70.666 77 -117.999 77c-48 0 -87.667 -25.667 -119 -77l-77 33c11.333 48.667 35.166 86.334 71.499 113.001s77.833 40 124.5 40
c46 0 87.333 -13.333 124 -40z" />
    <glyph glyph-name="uni0210" unicode="&#x210;" horiz-adv-x="714" 
d="M683 0l-198.999 0.000976562l-92 237c-10.667 26.667 -35.667 40 -75 40h-68v-277h-185v712h331c86 0 150.667 -18.5 194 -55.5s65 -89.833 65 -158.5c0 -48 -12.833 -89.5 -38.5 -124.5s-61.834 -59.833 -108.501 -74.5c20 -4 38 -13.333 54 -28
s28.667 -34.334 38 -59.001zM452.001 435.501c18 12.333 27.001 31.5 27.001 57.5c0 27.333 -8.83301 47 -26.5 59s-46.834 18 -87.501 18h-118v-153h118c40 0 69 6.16699 87 18.5zM242.002 773.001l-101 158h114l75 -158h-88zM391.002 773.001l-102 158h115l75 -158h-88z
" />
    <glyph glyph-name="uni0211" unicode="&#x211;" horiz-adv-x="430" 
d="M432 509l0.000976562 -165.001c-28.667 13.333 -56.334 20 -83.001 20c-76 0 -114 -36.333 -114 -109v-255h-181v362c0 54.667 -2.66699 103.334 -8 146.001h170l11 -85c12 31.333 31.333 55.333 58 72s56.667 25 90 25c24.667 0 43.667 -3.66699 57 -11z
M137.001 572.999l-78 208h124l29 -208h-75zM285.001 572.999l-79 208h124l30 -208h-75z" />
    <glyph glyph-name="uni0212" unicode="&#x212;" horiz-adv-x="714" 
d="M683 0l-198.999 0.000976562l-92 237c-10.667 26.667 -35.667 40 -75 40h-68v-277h-185v712h331c86 0 150.667 -18.5 194 -55.5s65 -89.833 65 -158.5c0 -48 -12.833 -89.5 -38.5 -124.5s-61.834 -59.833 -108.501 -74.5c20 -4 38 -13.333 54 -28
s28.667 -34.334 38 -59.001zM452.001 435.501c18 12.333 27.001 31.5 27.001 57.5c0 27.333 -8.83301 47 -26.5 59s-46.834 18 -87.501 18h-118v-153h118c40 0 69 6.16699 87 18.5zM479.002 895.001c32.667 -19.333 54.999 -46.666 66.999 -81.999l-77 -32
c-20 27.333 -56 41 -108 41c-52.667 0 -89 -13.667 -109 -41l-77 32c12 35.333 34.333 62.666 67 81.999s72.334 29 119.001 29c46 0 85.333 -9.66699 118 -29z" />
    <glyph glyph-name="uni0213" unicode="&#x213;" horiz-adv-x="430" 
d="M432 509l0.000976562 -165.001c-28.667 13.333 -56.334 20 -83.001 20c-76 0 -114 -36.333 -114 -109v-255h-181v362c0 54.667 -2.66699 103.334 -8 146.001h170l11 -85c12 31.333 31.333 55.333 58 72s56.667 25 90 25c24.667 0 43.667 -3.66699 57 -11z
M373.001 733.999c36.667 -26.667 60.333 -64.668 71 -114.001l-77 -32c-31.333 51.333 -70.666 77 -117.999 77c-48 0 -87.667 -25.667 -119 -77l-77 33c11.333 48.667 35.166 86.334 71.499 113.001s77.833 40 124.5 40c46 0 87.333 -13.333 124 -40z" />
    <glyph glyph-name="uni0214" unicode="&#x214;" horiz-adv-x="752" 
d="M141 69.5c-53.333 52.333 -80 129.165 -80 230.498v412h183v-419c0 -51.333 11.5 -90.666 34.5 -117.999s55.833 -41 98.5 -41c42 0 74.333 13.833 97 41.5s34 66.834 34 117.501v419h185v-412c0 -100 -27.167 -176.5 -81.5 -229.5s-132.5 -79.5 -234.5 -79.5
c-104 0 -182.667 26.167 -236 78.5zM258 772.999l-101 158h114l75 -158h-88zM407 772.999l-102 158h115l75 -158h-88z" />
    <glyph glyph-name="uni0215" unicode="&#x215;" horiz-adv-x="619" 
d="M565 508l0.000976562 -508h-177v68c-32.667 -50.667 -81 -76 -145 -76c-64.667 0 -112.834 18 -144.501 54s-47.5 91 -47.5 165v297h181v-302c0 -50 21.667 -75 65 -75c25.333 0 45.833 9 61.5 27s23.5 42 23.5 72v278h183zM197.001 573l-78 208h124l29 -208h-75z
M345.001 573l-79 208h124l30 -208h-75z" />
    <glyph glyph-name="uni0216" unicode="&#x216;" horiz-adv-x="752" 
d="M141 69.5c-53.333 52.333 -80 129.165 -80 230.498v412h183v-419c0 -51.333 11.5 -90.666 34.5 -117.999s55.833 -41 98.5 -41c42 0 74.333 13.833 97 41.5s34 66.834 34 117.501v419h185v-412c0 -100 -27.167 -176.5 -81.5 -229.5s-132.5 -79.5 -234.5 -79.5
c-104 0 -182.667 26.167 -236 78.5zM495 894.999c32.667 -19.333 54.999 -46.666 66.999 -81.999l-77 -32c-20 27.333 -56 41 -108 41c-52.667 0 -89 -13.667 -109 -41l-77 32c12 35.333 34.333 62.666 67 81.999s72.334 29 119.001 29c46 0 85.333 -9.66699 118 -29z" />
    <glyph glyph-name="uni0217" unicode="&#x217;" horiz-adv-x="619" 
d="M565 508l0.000976562 -508h-177v68c-32.667 -50.667 -81 -76 -145 -76c-64.667 0 -112.834 18 -144.501 54s-47.5 91 -47.5 165v297h181v-302c0 -50 21.667 -75 65 -75c25.333 0 45.833 9 61.5 27s23.5 42 23.5 72v278h183zM433.001 734
c36.667 -26.667 60.333 -64.668 71 -114.001l-77 -32c-31.333 51.333 -70.666 77 -117.999 77c-48 0 -87.667 -25.667 -119 -77l-77 33c11.333 48.667 35.166 86.334 71.499 113.001s77.833 40 124.5 40c46 0 87.333 -13.333 124 -40z" />
    <glyph glyph-name="Scommaaccent" unicode="&#x218;" horiz-adv-x="672" 
d="M164 12c-52 14 -94.333 32.999 -127 56.999l59 133c34.667 -22 71.5 -38.833 110.5 -50.5s78.167 -17.5 117.5 -17.5c40 0 70.667 5.5 92 16.5s32 26.5 32 46.5c0 18 -9.66699 32.833 -29 44.5s-55.666 23.167 -108.999 34.5
c-67.333 13.333 -119.666 29.833 -156.999 49.5s-63.5 42.834 -78.5 69.501s-22.5 59 -22.5 97c0 43.333 12.333 82.5 37 117.5s59.334 62.333 104.001 82s95.667 29.5 153 29.5c51.333 0 101.166 -7.16699 149.499 -21.5s86.166 -33.166 113.499 -56.499l-58 -133
c-31.333 22 -64.333 38.833 -99 50.5s-69.334 17.5 -104.001 17.5c-34 0 -61.333 -6.5 -82 -19.5s-31 -30.5 -31 -52.5c0 -12 3.66699 -22 11 -30s21 -15.833 41 -23.5s50 -15.834 90 -24.501c64.667 -14 115.5 -30.833 152.5 -50.5s63.167 -42.667 78.5 -69
s23 -57.833 23 -94.5c0 -69.333 -27 -123.833 -81 -163.5s-130 -59.5 -228 -59.5c-53.333 0 -106 7 -158 21zM417 -64.001v-67c0 -33.333 -4.83301 -62 -14.5 -86s-26.167 -46.333 -49.5 -67l-62 42c18 16 29 32.667 33 50h-79v128h172z" />
    <glyph glyph-name="scommaaccent" unicode="&#x219;" horiz-adv-x="507" 
d="M19 53l45.999 123c27.333 -18.667 58.333 -33.167 93 -43.5s68.667 -15.5 102 -15.5c20.667 0 36.667 3 48 9s17 14.333 17 25c0 9.33301 -4.16699 16.833 -12.5 22.5s-24.166 10.834 -47.499 15.501l-82 19c-52 10.667 -89.5 27.5 -112.5 50.5s-34.5 54.833 -34.5 95.5
c0 32.667 9.66699 61.667 29 87s46.166 45.166 80.499 59.499s73.833 21.5 118.5 21.5c36.667 0 72.667 -5.33301 108 -16s68.333 -25.667 99 -45l-48 -120c-26.667 17.333 -54 30.666 -82 39.999s-54.333 14 -79 14c-20 0 -35.667 -3.16699 -47 -9.5s-17 -15.5 -17 -27.5
c0 -7.33301 3.33301 -13.166 10 -17.499s19.334 -8.83301 38.001 -13.5l85 -19c54 -12.667 92.833 -31.167 116.5 -55.5s35.5 -57.5 35.5 -99.5c0 -50 -19.833 -89.333 -59.5 -118s-94.5 -43 -164.5 -43c-101.333 0 -181.333 20.333 -240 61zM338.999 -64v-67
c0 -33.333 -4.83301 -62 -14.5 -86s-26.167 -46.333 -49.5 -67l-62 42c18 16 29 32.667 33 50h-79v128h172z" />
    <glyph glyph-name="uni021A" unicode="&#x21a;" horiz-adv-x="638" 
d="M224 0v560h-212v152h614v-152h-212v-560h-190zM404 -64v-67c0 -33.333 -4.83301 -62 -14.5 -86s-26.167 -46.333 -49.5 -67l-62 42c18 16 29 32.667 33 50h-79v128h172z" />
    <glyph glyph-name="uni021B" unicode="&#x21b;" horiz-adv-x="416" 
d="M402 144l0.00195312 -137.001c-24.667 -10 -56 -15 -94 -15c-68.667 0 -120.834 19.333 -156.501 58s-53.5 92.334 -53.5 161.001v164h-95v133h95v115l181 58v-173h122v-133h-122v-164c0 -24 7.16699 -42.167 21.5 -54.5s32.166 -18.5 53.499 -18.5c12 0 28 2 48 6z
M346.002 -64.001v-67c0 -33.333 -4.83301 -62 -14.5 -86s-26.167 -46.333 -49.5 -67l-62 42c18 16 29 32.667 33 50h-79v128h172z" />
    <glyph glyph-name="uni0227" unicode="&#x227;" horiz-adv-x="643" 
d="M589 508v-508.002h-178v69c-14.667 -24 -36 -42.833 -64 -56.5s-58.667 -20.5 -92 -20.5c-43.333 0 -82 10.667 -116 32s-60.5 51.833 -79.5 91.5s-28.5 85.5 -28.5 137.5c0 52.667 9.66699 99.334 29 140.001s46 72.334 80 95.001s72.333 34 115 34
c33.333 0 63.833 -7.16699 91.5 -21.5s49.167 -33.5 64.5 -57.5v65h178zM385 159.998c17.333 22 26 53.668 26 95.001c0 42 -8.66699 74.167 -26 96.5s-42 33.5 -74 33.5c-31.333 0 -56 -11.5 -74 -34.5s-27 -55.5 -27 -97.5c0 -40.667 8.66699 -71.834 26 -93.501
s42.333 -32.5 75 -32.5c32 0 56.667 11 74 33zM226 756.999h189v-163h-189v163z" />
    <glyph glyph-name="uni0228" unicode="&#x228;" horiz-adv-x="604" 
d="M247 568l0.00390625 -134.001h304v-144h-304v-146h325v-144h-201l-6 -40h8c27.333 0 48.666 -6.33301 63.999 -19s23 -29.667 23 -51c0 -27.333 -12.333 -49.166 -37 -65.499s-60.334 -24.5 -107.001 -24.5c-14.667 0 -30.834 1.5 -48.501 4.5
s-33.834 7.16699 -48.501 12.5l11 65c36 -9.33301 62.667 -14 80 -14c28.667 0 43 7.33301 43 22c0 11.333 -10.667 17 -32 17c-8 0 -18.667 -1.66699 -32 -5l-20 22l10 76h-215v712h508v-144h-325z" />
    <glyph glyph-name="uni022A" unicode="&#x22a;" horiz-adv-x="805" 
d="M213 35.5c-54 29.667 -95.501 72.167 -124.501 127.5s-43.5 120 -43.5 194s14.667 138.333 44 193s70.833 96.834 124.5 126.501s116.834 44.5 189.501 44.5s135.834 -14.833 189.501 -44.5s94.834 -71.834 123.501 -126.501s43 -119 43 -193s-14.333 -138.667 -43 -194
s-69.834 -97.833 -123.501 -127.5s-116.834 -44.5 -189.501 -44.5s-136 14.833 -190 44.5zM528.499 191c30.333 38 45.5 93.333 45.5 166c0 72 -15.167 126.833 -45.5 164.5s-72.166 56.5 -125.499 56.5s-95 -18.667 -125 -56s-45 -92.333 -45 -165
c0 -73.333 15 -128.833 45 -166.5s71.667 -56.5 125 -56.5s95.166 19 125.499 57zM220.999 928h160v-151h-160v151zM421.999 928h160v-151h-160v151zM240.999 960v108h321v-108h-321z" />
    <glyph glyph-name="uni022B" unicode="&#x22b;" horiz-adv-x="618" 
d="M162 24c-42 21.333 -74.333 52.002 -97 92.002s-34 87 -34 141s11.333 101 34 141s55 70.667 97 92s91.333 32 148 32c56 0 104.833 -10.833 146.5 -32.5s73.834 -52.334 96.501 -92.001s34 -86.5 34 -140.5s-11.333 -100.833 -34 -140.5
s-54.834 -70.334 -96.501 -92.001s-90.5 -32.5 -146.5 -32.5c-56.667 0 -106 10.667 -148 32zM408 257.002c0 44 -8.16699 76.5 -24.5 97.5s-40.833 31.5 -73.5 31.5c-33.333 0 -58.333 -10.5 -75 -31.5s-25 -53.5 -25 -97.5c0 -44.667 8.33301 -77.5 25 -98.5
s41.667 -31.5 75 -31.5c65.333 0 98 43.333 98 130zM129 751.002h160v-152h-160v152zM330 751.002h160v-152h-160v152zM149 812.002v108h321v-108h-321z" />
    <glyph glyph-name="uni022C" unicode="&#x22c;" horiz-adv-x="805" 
d="M213 35.5c-54 29.667 -95.501 72.167 -124.501 127.5s-43.5 120 -43.5 194s14.667 138.333 44 193s70.833 96.834 124.5 126.501s116.834 44.5 189.501 44.5s135.834 -14.833 189.501 -44.5s94.834 -71.834 123.501 -126.501s43 -119 43 -193s-14.333 -138.667 -43 -194
s-69.834 -97.833 -123.501 -127.5s-116.834 -44.5 -189.501 -44.5s-136 14.833 -190 44.5zM528.499 191c30.333 38 45.5 93.333 45.5 166c0 72 -15.167 126.833 -45.5 164.5s-72.166 56.5 -125.499 56.5s-95 -18.667 -125 -56s-45 -92.333 -45 -165
c0 -73.333 15 -128.833 45 -166.5s71.667 -56.5 125 -56.5s95.166 19 125.499 57zM253.999 894.5c22 26.333 50 39.5 84 39.5c11.333 0 22.333 -2.16699 33 -6.5s24 -11.166 40 -20.499c12.667 -7.33301 23.334 -13 32.001 -17s17 -6 25 -6c11.333 0 20.666 4 27.999 12
s12 19.667 14 35h72c0 -54 -11 -94.167 -33 -120.5s-50 -39.5 -84 -39.5c-11.333 0 -22.333 2.16699 -33 6.5s-24 11.166 -40 20.499c-12.667 7.33301 -23.334 13 -32.001 17s-17 6 -25 6c-11.333 0 -20.666 -4 -27.999 -12s-12 -19.667 -14 -35h-72
c0 54 11 94.167 33 120.5zM240.999 960v108h321v-108h-321z" />
    <glyph glyph-name="uni022D" unicode="&#x22d;" horiz-adv-x="618" 
d="M162 24c-42 21.333 -74.333 52.002 -97 92.002s-34 87 -34 141s11.333 101 34 141s55 70.667 97 92s91.333 32 148 32c56 0 104.833 -10.833 146.5 -32.5s73.834 -52.334 96.501 -92.001s34 -86.5 34 -140.5s-11.333 -100.833 -34 -140.5
s-54.834 -70.334 -96.501 -92.001s-90.5 -32.5 -146.5 -32.5c-56.667 0 -106 10.667 -148 32zM408 257.002c0 44 -8.16699 76.5 -24.5 97.5s-40.833 31.5 -73.5 31.5c-33.333 0 -58.333 -10.5 -75 -31.5s-25 -53.5 -25 -97.5c0 -44.667 8.33301 -77.5 25 -98.5
s41.667 -31.5 75 -31.5c65.333 0 98 43.333 98 130zM162 719.502c22 26.333 50 39.5 84 39.5c11.333 0 22.333 -2.16699 33 -6.5s24 -11.166 40 -20.499c12.667 -7.33301 23.334 -13 32.001 -17s17 -6 25 -6c11.333 0 20.666 4 27.999 12s12 19.667 14 35h72
c0 -54 -11 -94.167 -33 -120.5s-50 -39.5 -84 -39.5c-11.333 0 -22.333 2.16699 -33 6.5s-24 11.166 -40 20.499c-12.667 7.33301 -23.334 13 -32.001 17s-17 6 -25 6c-11.333 0 -20.666 -4 -27.999 -12s-12 -19.667 -14 -35h-72c0 54 11 94.167 33 120.5zM149 812.002v108
h321v-108h-321z" />
    <glyph glyph-name="uni0230" unicode="&#x230;" horiz-adv-x="805" 
d="M213 35.5c-54 29.667 -95.501 72.167 -124.501 127.5s-43.5 120 -43.5 194s14.667 138.333 44 193s70.833 96.834 124.5 126.501s116.834 44.5 189.501 44.5s135.834 -14.833 189.501 -44.5s94.834 -71.834 123.501 -126.501s43 -119 43 -193s-14.333 -138.667 -43 -194
s-69.834 -97.833 -123.501 -127.5s-116.834 -44.5 -189.501 -44.5s-136 14.833 -190 44.5zM528.499 191c30.333 38 45.5 93.333 45.5 166c0 72 -15.167 126.833 -45.5 164.5s-72.166 56.5 -125.499 56.5s-95 -18.667 -125 -56s-45 -92.333 -45 -165
c0 -73.333 15 -128.833 45 -166.5s71.667 -56.5 125 -56.5s95.166 19 125.499 57zM306.999 934h189v-163h-189v163zM240.999 960v108h321v-108h-321z" />
    <glyph glyph-name="uni0231" unicode="&#x231;" horiz-adv-x="618" 
d="M162 24c-42 21.333 -74.333 52.002 -97 92.002s-34 87 -34 141s11.333 101 34 141s55 70.667 97 92s91.333 32 148 32c56 0 104.833 -10.833 146.5 -32.5s73.834 -52.334 96.501 -92.001s34 -86.5 34 -140.5s-11.333 -100.833 -34 -140.5
s-54.834 -70.334 -96.501 -92.001s-90.5 -32.5 -146.5 -32.5c-56.667 0 -106 10.667 -148 32zM408 257.002c0 44 -8.16699 76.5 -24.5 97.5s-40.833 31.5 -73.5 31.5c-33.333 0 -58.333 -10.5 -75 -31.5s-25 -53.5 -25 -97.5c0 -44.667 8.33301 -77.5 25 -98.5
s41.667 -31.5 75 -31.5c65.333 0 98 43.333 98 130zM215 757.002h189v-163h-189v163zM149 812.002v108h321v-108h-321z" />
    <glyph glyph-name="uni0232" unicode="&#x232;" horiz-adv-x="657" 
d="M724 712l-301 -440v-272h-189v273l-299 439h212l180 -284l183 284h214zM167 798v108h321v-108h-321z" />
    <glyph glyph-name="uni0233" unicode="&#x233;" horiz-adv-x="559" 
d="M579 508l-233 -525.999c-30.667 -68.667 -69.167 -118.834 -115.5 -150.501s-103.5 -51.5 -171.5 -59.5l-42 138c46.667 9.33301 81.667 21.333 105 36s41 35 53 61l13 28l-207 473h188l114 -293l118 293h178zM118 621.001v108h321v-108h-321z" />
    <glyph glyph-name="uni0237" unicode="&#x237;" horiz-adv-x="289" 
d="M-20 -79c21.333 0 39.002 6.16895 53.002 18.502s21 31.166 21 56.499v512h181v-514c0 -68.667 -17.833 -122.334 -53.5 -161.001s-87.834 -58 -156.501 -58c-38.667 0 -70 4.66699 -94 14v139c19.333 -4.66699 35.666 -7 48.999 -7z" />
    <glyph glyph-name="uni0259" unicode="&#x259;" horiz-adv-x="553" 
d="M393.5 489c41 -22 72.666 -53 94.999 -93s33.5 -86.667 33.5 -140c0 -51.333 -10.333 -97 -31 -137s-49.667 -71.167 -87 -93.5s-79.666 -33.5 -126.999 -33.5c-76 0 -136 23 -180 69s-66 109.333 -66 190v27h320c-4 39.333 -14.833 67.5 -32.5 84.5
s-44.5 25.5 -80.5 25.5c-44.667 0 -95.667 -15.667 -153 -47l-46 119c26 19.333 57.833 34.5 95.5 45.5s76.5 16.5 116.5 16.5c54 0 101.5 -11 142.5 -33zM349.999 191h-162c8 -51.333 34.667 -77 80 -77c44.667 0 72 25.667 82 77z" />
    <glyph glyph-name="uni02BB" unicode="&#x2bb;" horiz-adv-x="300" 
d="M237 719v-128.001h-172v67c0 33.333 4.83301 62.333 14.5 87s26.167 47 49.5 67l62 -41c-18 -17.333 -29 -34.666 -33 -51.999h79z" />
    <glyph glyph-name="uni02BC" unicode="&#x2bc;" horiz-adv-x="300" 
d="M235 770v-68.001c0 -33.333 -4.83301 -62.166 -14.5 -86.499s-26.167 -46.833 -49.5 -67.5l-62 43c16.667 15.333 27.667 32 33 50h-79v129h172z" />
    <glyph glyph-name="uni02BE" unicode="&#x2be;" horiz-adv-x="300" 
d="M232.5 746c22.333 -22 33.501 -48.334 33.501 -79.001c0 -32 -11 -58.667 -33 -80s-49 -32 -81 -32v67c12 0 21.833 4.33301 29.5 13s11.5 19.334 11.5 32.001c0 12 -3.83301 22.167 -11.5 30.5s-17.5 12.5 -29.5 12.5v69c31.333 0 58.166 -11 80.499 -33z" />
    <glyph glyph-name="uni02BF" unicode="&#x2bf;" horiz-adv-x="300" 
d="M152 710c-12 0 -22 -4.16602 -30 -12.499s-12 -18.5 -12 -30.5c0 -12.667 4 -23.334 12 -32.001s18 -13 30 -13v-67c-32 0 -59.167 10.667 -81.5 32s-33.5 48 -33.5 80c0 31.333 11.167 57.833 33.5 79.5s49.5 32.5 81.5 32.5v-69z" />
    <glyph glyph-name="circumflex" unicode="&#x2c6;" horiz-adv-x="300" 
d="M99 562h-136l136 208h105l136 -208h-136l-52 106z" />
    <glyph glyph-name="caron" unicode="&#x2c7;" horiz-adv-x="300" 
d="M204 770h136l-136 -208h-105l-136 208h136l53 -107z" />
    <glyph glyph-name="uni02C8" unicode="&#x2c8;" horiz-adv-x="300" 
d="M97 562v209h109v-209h-109z" />
    <glyph glyph-name="uni02C9" unicode="&#x2c9;" horiz-adv-x="300" 
d="M-9 610v108h321v-108h-321z" />
    <glyph glyph-name="uni02CA" unicode="&#x2ca;" horiz-adv-x="300" 
d="M206 562h-109l98 208h172z" />
    <glyph glyph-name="uni02CB" unicode="&#x2cb;" horiz-adv-x="300" 
d="M97 562l-161 208h172l98 -208h-109z" />
    <glyph glyph-name="uni02CC" unicode="&#x2cc;" horiz-adv-x="300" 
d="M97 -273v208h109v-208h-109z" />
    <glyph glyph-name="breve" unicode="&#x2d8;" horiz-adv-x="300" 
d="M27 621.5c-36.667 26.333 -60.3311 64.166 -70.998 113.499l77 34c30 -51.333 69.667 -77 119 -77c48.667 0 88 25.667 118 77l77 -34c-10.667 -49.333 -34.334 -87.166 -71.001 -113.499s-78 -39.5 -124 -39.5c-46.667 0 -88.334 13.167 -125.001 39.5z" />
    <glyph glyph-name="dotaccent" unicode="&#x2d9;" horiz-adv-x="300" 
d="M57 746h189v-163h-189v163z" />
    <glyph glyph-name="ring" unicode="&#x2da;" horiz-adv-x="300" 
d="M70.5 587c-22.333 21.333 -33.499 48 -33.499 80c0 31.333 11.167 57.833 33.5 79.5s49.5 32.5 81.5 32.5c31.333 0 58.166 -11 80.499 -33s33.5 -48.333 33.5 -79c0 -32 -11 -58.667 -33 -80s-49 -32 -81 -32s-59.167 10.667 -81.5 32zM181.501 635
c7.66699 8.66699 11.5 19.334 11.5 32.001c0 12 -3.83301 22.167 -11.5 30.5s-17.5 12.5 -29.5 12.5s-22 -4.16699 -30 -12.5s-12 -18.5 -12 -30.5c0 -12.667 4 -23.334 12 -32.001s18 -13 30 -13s21.833 4.33301 29.5 13z" />
    <glyph glyph-name="ogonek" unicode="&#x2db;" horiz-adv-x="300" 
d="M13.5 -169.5c-25 20.333 -37.5 47.499 -37.5 81.499c0 34.667 13.333 64.334 40 89.001s65.667 40 117 46l19 -37c-22 -6.66699 -38.333 -15.667 -49 -27s-16 -26 -16 -44c0 -33.333 19 -50 57 -50c17.333 0 35.333 3.66699 54 11l17 -81
c-31.333 -12.667 -67 -19 -107 -19c-38 0 -69.5 10.167 -94.5 30.5z" />
    <glyph glyph-name="tilde" unicode="&#x2dc;" horiz-adv-x="300" 
d="M4 708.5c22 26.333 50 39.5 84 39.5c11.333 0 22.333 -2.16699 33 -6.5s24 -11.166 40 -20.499c12.667 -7.33301 23.334 -13 32.001 -17s17 -6 25 -6c11.333 0 20.666 4 27.999 12s12 19.667 14 35h72c0 -54 -11 -94.167 -33 -120.5s-50 -39.5 -84 -39.5
c-11.333 0 -22.333 2.16699 -33 6.5s-24 11.166 -40 20.499c-12.667 7.33301 -23.334 13 -32.001 17s-17 6 -25 6c-11.333 0 -20.666 -4 -27.999 -12s-12 -19.667 -14 -35h-72c0 54 11 94.167 33 120.5z" />
    <glyph glyph-name="hungarumlaut" unicode="&#x2dd;" horiz-adv-x="300" 
d="M115 562h-75l30 208h124zM263 562h-75l29 208h124z" />
    <glyph glyph-name="gravecomb" unicode="&#x300;" 
d="M-203 562l-161 208h172l98 -208h-109z" />
    <glyph glyph-name="acutecomb" unicode="&#x301;" 
d="M-94 562h-109l98 208h172z" />
    <glyph glyph-name="uni0302" unicode="&#x302;" 
d="M-201 562h-136l136 208h105l136 -208h-136l-52 106z" />
    <glyph glyph-name="tildecomb" unicode="&#x303;" 
d="M-296 708.5c22 26.333 50 39.5 84 39.5c11.333 0 22.333 -2.16699 33 -6.5s24 -11.166 40 -20.499c12.667 -7.33301 23.334 -13 32.001 -17s17 -6 25 -6c11.333 0 20.666 4 27.999 12s12 19.667 14 35h72c0 -54 -11 -94.167 -33 -120.5s-50 -39.5 -84 -39.5
c-11.333 0 -22.333 2.16699 -33 6.5s-24 11.166 -40 20.499c-12.667 7.33301 -23.334 13 -32.001 17s-17 6 -25 6c-11.333 0 -20.666 -4 -27.999 -12s-12 -19.667 -14 -35h-72c0 54 11 94.167 33 120.5z" />
    <glyph glyph-name="uni0304" unicode="&#x304;" 
d="M-309 610v108h321v-108h-321z" />
    <glyph glyph-name="uni0306" unicode="&#x306;" 
d="M-273 621.5c-36.667 26.333 -60.3311 64.166 -70.998 113.499l77 34c30 -51.333 69.667 -77 119 -77c48.667 0 88 25.667 118 77l77 -34c-10.667 -49.333 -34.334 -87.166 -71.001 -113.499s-78 -39.5 -124 -39.5c-46.667 0 -88.334 13.167 -125.001 39.5z" />
    <glyph glyph-name="uni0307" unicode="&#x307;" 
d="M-243 746h189v-163h-189v163z" />
    <glyph glyph-name="uni0308" unicode="&#x308;" 
d="M-329 740h160v-152h-160v152zM-128 740h160v-152h-160v152z" />
    <glyph glyph-name="hookabovecomb" unicode="&#x309;" 
d="M-104 562h-86.002v24c0 14 3 25.167 9 33.5s15 17.833 27 28.5c7.33301 6 12.666 11 15.999 15s5 8.33301 5 13c0 7.33301 -2.5 12.833 -7.5 16.5s-12.833 5.5 -23.5 5.5c-16 0 -31.333 -2.66699 -46 -8l-23 62c28.667 13.333 58.334 20 89.001 20
c38.667 0 68.834 -7.66699 90.501 -23s32.5 -33.666 32.5 -54.999c0 -16 -4.33301 -29 -13 -39s-21 -20.667 -37 -32c-11.333 -7.33301 -19.666 -13.833 -24.999 -19.5s-8 -11.834 -8 -18.501v-23z" />
    <glyph glyph-name="uni030A" unicode="&#x30a;" 
d="M-229.5 587c-22.333 21.333 -33.499 48 -33.499 80c0 31.333 11.167 57.833 33.5 79.5s49.5 32.5 81.5 32.5c31.333 0 58.166 -11 80.499 -33s33.5 -48.333 33.5 -79c0 -32 -11 -58.667 -33 -80s-49 -32 -81 -32s-59.167 10.667 -81.5 32zM-118.499 635
c7.66699 8.66699 11.5 19.334 11.5 32.001c0 12 -3.83301 22.167 -11.5 30.5s-17.5 12.5 -29.5 12.5s-22 -4.16699 -30 -12.5s-12 -18.5 -12 -30.5c0 -12.667 4 -23.334 12 -32.001s18 -13 30 -13s21.833 4.33301 29.5 13z" />
    <glyph glyph-name="uni030B" unicode="&#x30b;" 
d="M-185 562h-75l30 208h124zM-37 562h-75l29 208h124z" />
    <glyph glyph-name="uni030C" unicode="&#x30c;" 
d="M-96 770h136l-136 -208h-105l-136 208h136l53 -107z" />
    <glyph glyph-name="uni030F" unicode="&#x30f;" 
d="M-260 562l-78 208h124l29 -208h-75zM-112 562l-79 208h124l30 -208h-75z" />
    <glyph glyph-name="uni0311" unicode="&#x311;" 
d="M-24 723c36.667 -26.667 60.333 -64.668 71 -114.001l-77 -32c-31.333 51.333 -70.666 77 -117.999 77c-48 0 -87.667 -25.667 -119 -77l-77 33c11.333 48.667 35.166 86.334 71.499 113.001s77.833 40 124.5 40c46 0 87.333 -13.333 124 -40z" />
    <glyph glyph-name="uni0312" unicode="&#x312;" 
d="M-63 719v-128.001h-172v67c0 33.333 4.83301 62.333 14.5 87s26.167 47 49.5 67l62 -41c-18 -17.333 -29 -34.666 -33 -51.999h79z" />
    <glyph glyph-name="uni031B" unicode="&#x31b;" 
d="M-148 486l0.000976562 15.001c20 0 35.833 2.5 47.5 7.5s20.667 14.667 27 29s9.5 35.166 9.5 62.499v22h156v-43c0 -41.333 -12.333 -77 -37 -107s-56.334 -47.667 -95.001 -53z" />
    <glyph glyph-name="dotbelowcomb" unicode="&#x323;" 
d="M-228 -57h159v-151h-159v151z" />
    <glyph glyph-name="uni0324" unicode="&#x324;" 
d="M-329 -56h160v-152h-160v152zM-128 -56h160v-152h-160v152z" />
    <glyph glyph-name="uni0326" unicode="&#x326;" 
d="M-63 -64v-67c0 -33.333 -4.83301 -62 -14.5 -86s-26.167 -46.333 -49.5 -67l-62 42c18 16 29 32.667 33 50h-79v128h172z" />
    <glyph glyph-name="uni0327" unicode="&#x327;" 
d="M-48 -59c15.333 -12.667 23.0039 -29.668 23.0039 -51.001c0 -27.333 -12.333 -49.166 -37 -65.499s-60.334 -24.5 -107.001 -24.5c-14.667 0 -30.834 1.5 -48.501 4.5s-33.834 7.16699 -48.501 12.5l11 65c36 -9.33301 62.667 -14 80 -14c28.667 0 43 7.33301 43 22
c0 11.333 -10.667 17 -32 17c-8 0 -18.667 -1.66699 -32 -5l-20 22l13 96h92l-9 -60h8c27.333 0 48.666 -6.33301 63.999 -19z" />
    <glyph glyph-name="uni0328" unicode="&#x328;" 
d="M-286.5 -169.5c-25 20.333 -37.5 47.499 -37.5 81.499c0 34.667 13.333 64.334 40 89.001s65.667 40 117 46l19 -37c-22 -6.66699 -38.333 -15.667 -49 -27s-16 -26 -16 -44c0 -33.333 19 -50 57 -50c17.333 0 35.333 3.66699 54 11l17 -81
c-31.333 -12.667 -67 -19 -107 -19c-38 0 -69.5 10.167 -94.5 30.5z" />
    <glyph glyph-name="uni032E" unicode="&#x32e;" 
d="M-273 -195.5c-36.667 26.333 -60.332 64.166 -70.999 113.499l77 32c30.667 -50 70.334 -75 119.001 -75c48 0 87.333 25 118 75l77 -32c-10.667 -49.333 -34.334 -87.166 -71.001 -113.499s-78 -39.5 -124 -39.5c-46.667 0 -88.334 13.167 -125.001 39.5z" />
    <glyph glyph-name="uni0331" unicode="&#x331;" 
d="M-309 -183v101h321v-101h-321z" />
    <glyph glyph-name="uni0335" unicode="&#x335;" 
d="M-309 203v97h321v-97h-321z" />
    <glyph glyph-name="uni0394" unicode="&#x394;" horiz-adv-x="769" 
d="M457 712l282 -579v-133h-708v133l282 579h144zM387 516l-164 -363h327z" />
    <glyph glyph-name="Sigma" unicode="&#x3a3;" horiz-adv-x="621" 
d="M573 712v-149h-314l178 -241l-1 -113l-178 -242h315v-149h-527v135l228 312l-228 312v135h527z" />
    <glyph glyph-name="uni03A9" unicode="&#x3a9;" horiz-adv-x="833" 
d="M754 277.5c-24 -45 -59.332 -87.833 -105.999 -128.5h125v-149h-305v145c48.667 42.667 83.334 84.5 104.001 125.5s31 87.167 31 138.5c0 53.333 -16.333 94.833 -49 124.5s-78.334 44.5 -137.001 44.5s-104.5 -15 -137.5 -45s-49.5 -71.333 -49.5 -124
c0 -51.333 10.667 -97.5 32 -138.5s56.333 -82.833 105 -125.5v-145h-306v149h124c-46.667 40.667 -82 83.5 -106 128.5s-36 90.833 -36 137.5c0 60.667 15.667 114.334 47 161.001s75.166 82.667 131.499 108s121.5 38 195.5 38s139.167 -12.667 195.5 -38
s100 -61.333 131 -108s46.5 -100.334 46.5 -161.001c0 -46.667 -12 -92.5 -36 -137.5z" />
    <glyph glyph-name="uni03BC" unicode="&#x3bc;" horiz-adv-x="619" 
d="M565 508v-508h-177v68c-32.667 -50.667 -81 -76 -145 -76h-11v-208h-181v724h181v-302c0 -50 21.667 -75 65 -75c25.333 0 45.833 9 61.5 27s23.5 42 23.5 72v278h183z" />
    <glyph glyph-name="pi" unicode="&#x3c0;" horiz-adv-x="651" 
d="M643 119l-12.001 -128.999l-52 3c-61.333 4 -109.666 13.833 -144.999 29.5s-60.833 39.667 -76.5 72s-23.5 75.833 -23.5 130.5v150h-47c-2 -62.667 -7.83301 -123.334 -17.5 -182.001s-26.5 -123 -50.5 -193l-185 -1c22 79.333 38.667 147.5 50 204.5
s18.666 114.167 21.999 171.5h-102v133h611v-133h-100v-182c0 -24 5.33301 -41 16 -51s29.334 -16 56.001 -18z" />
    <glyph glyph-name="uni1E08" unicode="&#x1e08;" horiz-adv-x="685" 
d="M613 931l-157 -158h-109l104 158h162zM558 16.5c-38.667 -13.667 -79.3311 -21.833 -121.998 -24.5l-5 -32h8c27.333 0 48.666 -6.33301 63.999 -19s23 -29.667 23 -51c0 -27.333 -12.333 -49.166 -37 -65.499s-60.334 -24.5 -107.001 -24.5
c-14.667 0 -30.834 1.5 -48.501 4.5s-33.834 7.16699 -48.501 12.5l11 65c36 -9.33301 62.667 -14 80 -14c28.667 0 43 7.33301 43 22c0 11.333 -10.667 17 -32 17c-8 0 -18.667 -1.66699 -32 -5l-20 22l10 71c-62 8.66699 -115.5 29.167 -160.5 61.5
s-79.5 74.166 -103.5 125.499s-36 109.666 -36 174.999c0 72 14.833 135.5 44.5 190.5s72 97.667 127 128s119.5 45.5 193.5 45.5c46.667 0 91.834 -7 135.501 -21s78.834 -33 105.501 -57l-57 -133c-58 42 -118 63 -180 63c-57.333 0 -101.333 -18.167 -132 -54.5
s-46 -90.166 -46 -161.499c0 -72 15.333 -126.333 46 -163s74.667 -55 132 -55c62 0 122 21 180 63l57 -133c-23.333 -21.333 -54.333 -38.833 -93 -52.5z" />
    <glyph glyph-name="uni1E09" unicode="&#x1e09;" horiz-adv-x="515" 
d="M524 781l-161 -208h-109l98 208h172zM246 352c-20 -21.333 -29.9961 -53.0029 -29.9961 -95.0029c0 -42.667 10 -74.834 30 -96.501s49 -32.5 87 -32.5c22 0 44.833 4.33301 68.5 13s44.5 20.334 62.5 35.001l46 -123c-19.333 -17.333 -44.833 -31.166 -76.5 -41.499
s-65.5 -16.5 -101.5 -18.5l-5 -33h8c27.333 0 48.666 -6.33301 63.999 -19s23 -29.667 23 -51c0 -27.333 -12.333 -49.166 -37 -65.499s-60.334 -24.5 -107.001 -24.5c-14.667 0 -30.834 1.5 -48.501 4.5s-33.834 7.16699 -48.501 12.5l11 65c36 -9.33301 62.667 -14 80 -14
c28.667 0 43 7.33301 43 22c0 11.333 -10.667 17 -32 17c-8 0 -18.667 -1.66699 -32 -5l-20 22l10 73c-66.667 11.333 -118.334 39.333 -155.001 84s-55 102 -55 172c0 53.333 11.833 100.333 35.5 141s56.834 72.167 99.501 94.5s92 33.5 148 33.5
c37.333 0 74 -5.5 110 -16.5s64.667 -25.833 86 -44.5l-46 -125c-18 14.667 -39 26.334 -63 35.001s-47 13 -69 13c-37.333 0 -66 -10.667 -86 -32z" />
    <glyph glyph-name="uni1E0C" unicode="&#x1e0c;" horiz-adv-x="781" 
d="M64 712l291 -0.00195312c78.667 0 146.5 -14.167 203.5 -42.5s100.667 -69.166 131 -122.499s45.5 -116.666 45.5 -189.999c0 -74 -15 -137.833 -45 -191.5s-73.5 -94.667 -130.5 -123s-125.167 -42.5 -204.5 -42.5h-291v712zM342 149.998
c69.333 0 121.167 17.168 155.5 51.501s51.5 86.166 51.5 155.499c0 136.667 -69 205 -207 205h-90v-412h90zM310.001 -57.001h159v-151h-159v151z" />
    <glyph glyph-name="uni1E0D" unicode="&#x1e0d;" horiz-adv-x="643" 
d="M589 736v-735.999h-178v69c-14.667 -24 -36 -42.833 -64 -56.5s-58.667 -20.5 -92 -20.5c-43.333 0 -82 11.167 -116 33.5s-60.5 53.666 -79.5 93.999s-28.5 86.833 -28.5 139.5c0 52 9.5 98 28.5 138s45.5 70.833 79.5 92.5s72.667 32.5 116 32.5
c32 0 61.5 -6.66699 88.5 -20s48.5 -31.333 64.5 -54v288h181zM385 160.501c17.333 22.333 26 54.501 26 96.501c0 40.667 -8.83301 72.167 -26.5 94.5s-42.167 33.5 -73.5 33.5c-32.667 0 -57.667 -10.833 -75 -32.5s-26 -52.834 -26 -93.501
c0 -42 8.83301 -74.5 26.5 -97.5s42.5 -34.5 74.5 -34.5s56.667 11.167 74 33.5zM242 -56.998h159v-151h-159v151z" />
    <glyph glyph-name="uni1E0E" unicode="&#x1e0e;" horiz-adv-x="781" 
d="M64 712l291 -0.00195312c78.667 0 146.5 -14.167 203.5 -42.5s100.667 -69.166 131 -122.499s45.5 -116.666 45.5 -189.999c0 -74 -15 -137.833 -45 -191.5s-73.5 -94.667 -130.5 -123s-125.167 -42.5 -204.5 -42.5h-291v712zM342 149.998
c69.333 0 121.167 17.168 155.5 51.501s51.5 86.166 51.5 155.499c0 136.667 -69 205 -207 205h-90v-412h90zM229.001 -183.001v101h321v-101h-321z" />
    <glyph glyph-name="uni1E0F" unicode="&#x1e0f;" horiz-adv-x="643" 
d="M589 736v-735.999h-178v69c-14.667 -24 -36 -42.833 -64 -56.5s-58.667 -20.5 -92 -20.5c-43.333 0 -82 11.167 -116 33.5s-60.5 53.666 -79.5 93.999s-28.5 86.833 -28.5 139.5c0 52 9.5 98 28.5 138s45.5 70.833 79.5 92.5s72.667 32.5 116 32.5
c32 0 61.5 -6.66699 88.5 -20s48.5 -31.333 64.5 -54v288h181zM385 160.501c17.333 22.333 26 54.501 26 96.501c0 40.667 -8.83301 72.167 -26.5 94.5s-42.167 33.5 -73.5 33.5c-32.667 0 -57.667 -10.833 -75 -32.5s-26 -52.834 -26 -93.501
c0 -42 8.83301 -74.5 26.5 -97.5s42.5 -34.5 74.5 -34.5s56.667 11.167 74 33.5zM161 -182.998v101h321v-101h-321z" />
    <glyph glyph-name="uni1E14" unicode="&#x1e14;" horiz-adv-x="604" 
d="M64 0v712h508v-144h-325v-134h304v-144h-304v-146h325v-144h-508zM175 798v108h321v-108h-321zM281 935l-157 158h162l104 -158h-109z" />
    <glyph glyph-name="uni1E15" unicode="&#x1e15;" horiz-adv-x="553" 
d="M523 236l-318.995 0.00195312c3.33301 -39.333 14.666 -67.666 33.999 -84.999s47.666 -26 84.999 -26c25.333 0 50.666 4.16699 75.999 12.5s48.333 19.833 69 34.5l46 -120c-25.333 -18.667 -56 -33.334 -92 -44.001s-72 -16 -108 -16c-58 0 -108.333 10.667 -151 32
s-75.334 51.833 -98.001 91.5s-34 86.5 -34 140.5c0 51.333 10.833 97.166 32.5 137.499s51.667 71.833 90 94.5s82.166 34 131.499 34c48 0 90 -10.667 126 -32s63.667 -51.833 83 -91.5s29 -85.834 29 -138.501v-24zM206.005 320.002h162c-6.66699 52 -32.667 78 -78 78
c-44.667 0 -72.667 -26 -84 -78zM124.005 621.002v108h321v-108h-321zM230.005 764.002l-161 208h172l98 -208h-109z" />
    <glyph glyph-name="uni1E16" unicode="&#x1e16;" horiz-adv-x="604" 
d="M64 0v712h508v-144h-325v-134h304v-144h-304v-146h325v-144h-508zM175 798v108h321v-108h-321zM390 935h-109l104 158h162z" />
    <glyph glyph-name="uni1E17" unicode="&#x1e17;" horiz-adv-x="553" 
d="M523 236l-318.995 0.00195312c3.33301 -39.333 14.666 -67.666 33.999 -84.999s47.666 -26 84.999 -26c25.333 0 50.666 4.16699 75.999 12.5s48.333 19.833 69 34.5l46 -120c-25.333 -18.667 -56 -33.334 -92 -44.001s-72 -16 -108 -16c-58 0 -108.333 10.667 -151 32
s-75.334 51.833 -98.001 91.5s-34 86.5 -34 140.5c0 51.333 10.833 97.166 32.5 137.499s51.667 71.833 90 94.5s82.166 34 131.499 34c48 0 90 -10.667 126 -32s63.667 -51.833 83 -91.5s29 -85.834 29 -138.501v-24zM206.005 320.002h162c-6.66699 52 -32.667 78 -78 78
c-44.667 0 -72.667 -26 -84 -78zM124.005 621.002v108h321v-108h-321zM339.005 764.002h-109l98 208h172z" />
    <glyph glyph-name="uni1E1C" unicode="&#x1e1c;" horiz-adv-x="604" 
d="M217 810c-32.667 19.333 -54.999 46.666 -66.999 81.999l77 33c20 -27.333 56.333 -41 109 -41c52 0 88 13.667 108 41l77 -33c-12 -35.333 -34.333 -62.666 -67 -81.999s-72 -29 -118 -29c-46.667 0 -86.334 9.66699 -119.001 29zM247.001 568l0.00390625 -134.001h304
v-144h-304v-146h325v-144h-201l-6 -40h8c27.333 0 48.666 -6.33301 63.999 -19s23 -29.667 23 -51c0 -27.333 -12.333 -49.166 -37 -65.499s-60.334 -24.5 -107.001 -24.5c-14.667 0 -30.834 1.5 -48.501 4.5s-33.834 7.16699 -48.501 12.5l11 65
c36 -9.33301 62.667 -14 80 -14c28.667 0 43 7.33301 43 22c0 11.333 -10.667 17 -32 17c-8 0 -18.667 -1.66699 -32 -5l-20 22l10 76h-215v712h508v-144h-325z" />
    <glyph glyph-name="uni1E1D" unicode="&#x1e1d;" horiz-adv-x="553" 
d="M160 632.5c-36.667 26.333 -60.3311 64.166 -70.998 113.499l77 34c30 -51.333 69.667 -77 119 -77c48.667 0 88 25.667 118 77l77 -34c-10.667 -49.333 -34.334 -87.166 -71.001 -113.499s-78 -39.5 -124 -39.5c-46.667 0 -88.334 13.167 -125.001 39.5zM523.003 236
l-318.995 -0.000976562c3.33301 -39.333 14.666 -67.666 33.999 -84.999s47.666 -26 84.999 -26c25.333 0 50.666 4.16699 75.999 12.5s48.333 19.833 69 34.5l46 -120c-21.333 -16 -47.166 -29.167 -77.499 -39.5s-61.166 -16.833 -92.499 -19.5l-5 -33h8
c27.333 0 48.666 -6.33301 63.999 -19s23 -29.667 23 -51c0 -27.333 -12.333 -49.166 -37 -65.499s-60.334 -24.5 -107.001 -24.5c-14.667 0 -30.834 1.5 -48.501 4.5s-33.834 7.16699 -48.501 12.5l11 65c36 -9.33301 62.667 -14 80 -14c28.667 0 43 7.33301 43 22
c0 11.333 -10.667 17 -32 17c-8 0 -18.667 -1.66699 -32 -5l-20 22l10 72c-69.333 11.333 -123.666 39.833 -162.999 85.5s-59 103.834 -59 174.501c0 51.333 10.833 97.166 32.5 137.499s51.667 71.833 90 94.5s82.166 34 131.499 34c48 0 90 -10.667 126 -32
s63.667 -51.833 83 -91.5s29 -85.834 29 -138.501v-24zM206.008 319.999h162c-6.66699 52 -32.667 78 -78 78c-44.667 0 -72.667 -26 -84 -78z" />
    <glyph glyph-name="uni1E20" unicode="&#x1e20;" horiz-adv-x="751" 
d="M696 402l0.000976562 -357.002c-38 -17.333 -80.5 -30.666 -127.5 -39.999s-95.167 -14 -144.5 -14c-77.333 0 -144.5 14.667 -201.5 44s-100.833 71.5 -131.5 126.5s-46 120.167 -46 195.5c0 73.333 15.333 137.5 46 192.5s74 97.333 130 127s121.333 44.5 196 44.5
c51.333 0 99.833 -6.66699 145.5 -20s82.834 -31.666 111.501 -54.999l-59 -133c-32.667 21.333 -64.167 36.833 -94.5 46.5s-62.833 14.5 -97.5 14.5c-63.333 0 -110.5 -17.833 -141.5 -53.5s-46.5 -90.167 -46.5 -163.5c0 -76 16.167 -132.333 48.5 -169
s82.166 -55 149.499 -55c31.333 0 62.666 3.33301 93.999 10v132h-124v127h293zM256.001 797.998v108h321v-108h-321z" />
    <glyph glyph-name="uni1E21" unicode="&#x1e21;" horiz-adv-x="647" 
d="M595 508l0.000976562 -475.999c0 -83.333 -25 -146.833 -75 -190.5s-123.333 -65.5 -220 -65.5c-82.667 0 -154.334 14.667 -215.001 44l27 132c30 -13.333 60.833 -23.833 92.5 -31.5s61.5 -11.5 89.5 -11.5c41.333 0 71.833 8.83301 91.5 26.5s29.5 45.167 29.5 82.5
v75c-16.667 -22 -39.167 -40.667 -67.5 -56s-58.5 -23 -90.5 -23c-43.333 0 -82.166 10.5 -116.499 31.5s-61.166 50.667 -80.499 89s-29 82.833 -29 133.5c0 50 9.66699 94.167 29 132.5s46.166 68.166 80.499 89.499s73.166 32 116.499 32c34 0 65 -7 93 -21
s49.667 -33 65 -57v64h180zM388.001 180.501c18 21 27 50.168 27 87.501c0 36 -9 64.5 -27 85.5s-43 31.5 -75 31.5s-57.167 -10.333 -75.5 -31s-27.5 -49.334 -27.5 -86.001s9.33301 -65.667 28 -87s43.667 -32 75 -32c32 0 57 10.5 75 31.5zM163.001 621.002v108h321v-108
h-321z" />
    <glyph glyph-name="uni1E24" unicode="&#x1e24;" horiz-adv-x="784" 
d="M536 712h184v-712h-184v288h-288v-288h-184v712h184v-277h288v277zM312 -57h159v-151h-159v151z" />
    <glyph glyph-name="uni1E25" unicode="&#x1e25;" horiz-adv-x="624" 
d="M528.5 467.5c29.667 -36.333 44.501 -91.167 44.501 -164.5v-303h-181v295c0 31.333 -5.33301 53.833 -16 67.5s-27.334 20.5 -50.001 20.5c-27.333 0 -49.333 -9.16699 -66 -27.5s-25 -42.5 -25 -72.5v-283h-181v736h181v-290c39.333 50.667 92.333 76 159 76
c60 0 104.833 -18.167 134.5 -54.5zM234.001 -57.001h159v-151h-159v151z" />
    <glyph glyph-name="uni1E2A" unicode="&#x1e2a;" horiz-adv-x="784" 
d="M536 712h184v-712h-184v288h-288v-288h-184v712h184v-277h288v277zM267 -195.5c-36.667 26.333 -60.332 64.166 -70.999 113.499l77 32c30.667 -50 70.334 -75 119.001 -75c48 0 87.333 25 118 75l77 -32c-10.667 -49.333 -34.334 -87.166 -71.001 -113.499
s-78 -39.5 -124 -39.5c-46.667 0 -88.334 13.167 -125.001 39.5z" />
    <glyph glyph-name="uni1E2B" unicode="&#x1e2b;" horiz-adv-x="624" 
d="M528.5 467.5c29.667 -36.333 44.501 -91.167 44.501 -164.5v-303h-181v295c0 31.333 -5.33301 53.833 -16 67.5s-27.334 20.5 -50.001 20.5c-27.333 0 -49.333 -9.16699 -66 -27.5s-25 -42.5 -25 -72.5v-283h-181v736h181v-290c39.333 50.667 92.333 76 159 76
c60 0 104.833 -18.167 134.5 -54.5zM189.001 -195.501c-36.667 26.333 -60.332 64.166 -70.999 113.499l77 32c30.667 -50 70.334 -75 119.001 -75c48 0 87.333 25 118 75l77 -32c-10.667 -49.333 -34.334 -87.166 -71.001 -113.499s-78 -39.5 -124 -39.5
c-46.667 0 -88.334 13.167 -125.001 39.5z" />
    <glyph glyph-name="uni1E2E" unicode="&#x1e2e;" horiz-adv-x="316" 
d="M64 0v712h188v-712h-188zM-24 928h160v-151h-160v151zM177 928h160v-151h-160v151zM211 935h-109l104 158h162z" />
    <glyph glyph-name="uni1E2F" unicode="&#x1e2f;" horiz-adv-x="289" 
d="M54 0v508h181v-508h-181zM-37 751h160v-152h-160v152zM164 751h160v-152h-160v152zM198 764h-109l98 208h172z" />
    <glyph glyph-name="uni1E36" unicode="&#x1e36;" horiz-adv-x="579" 
d="M64 0v712h188v-560h301v-152h-489zM237 -57h159v-151h-159v151z" />
    <glyph glyph-name="uni1E37" unicode="&#x1e37;" horiz-adv-x="289" 
d="M54 0v736h181v-736h-181zM64 -57h159v-151h-159v151z" />
    <glyph glyph-name="uni1E3A" unicode="&#x1e3a;" horiz-adv-x="579" 
d="M64 0v712h188v-560h301v-152h-489zM156 -183v101h321v-101h-321z" />
    <glyph glyph-name="uni1E3B" unicode="&#x1e3b;" horiz-adv-x="289" 
d="M54 0v736h181v-736h-181zM-17 -183v101h321v-101h-321z" />
    </font>
</defs>
</svg>
